M48
;Layer_Color=9474304
;FILE_FORMAT=4:4
METRIC,LZ
;TYPE=PLATED
T1F00S00C0.6000
T2F00S00C0.7620
T3F00S00C0.8000
T4F00S00C0.8128
T5F00S00C1.0000
T6F00S00C1.1000
T7F00S00C1.2400
T8F00S00C1.2954
T9F00S00C1.4000
T10F00S00C1.7500
;TYPE=NON_PLATED
T11F00S00C2.0000
%
T01
X-0033782Y-0036957
X-0026543Y-0036068
X-003302Y-0028321
X-0021209Y-0031242
X-0021971Y-0036195
X-00167619Y-00361929
X-0018923Y-0038735
X-0012192Y-0036703
X-0012573Y-0031623
X-001651Y-002794
X-0008763Y-0027432
X-00051931Y-00339381
X-0001651Y-0017907
X-0003699Y-0011684
X-0003048Y-0005969
X-0009271Y-0009017
X-0012319Y-0009271
X-0014224Y-0011557
X-0013194Y-00135751
X-0013589Y-0018923
X-0016383Y-0017018
X-0007747Y-001524
X-0017907Y-0007366
X-0018669Y-0002921
X-0022352Y-0009017
X-0025146Y-0008763
X-0024003Y-0021209
X-0029972Y-002286
X-0032639Y-002032
T02
X-0038378Y-0038505
X-0001378
X-00015Y-00015
X-0038378
T03
X-0036957Y-0035464
Y-0033464
Y-0031464
Y-0029464
X-0002752Y-0029131
Y-0031131
Y-0033131
Y-0035131
T04
X-0032004Y-0037338
X-0029464
X-0027813Y-0037465
X-0025273
X-0023368Y-0037592
X-0020828
T05
X-0010922Y-0002286
X-0008382
X-0006223
X-0003683
X-0037084Y-0017653
Y-0020193
Y-0022352
Y-0024892
T06
X-0022265Y-001274
X-0027265
T07
X-0025146Y-0006604
X-0022606
X-0020066
T08
X-00039584Y-00189933
X-0003937Y-0013843
X-0004064Y-0008763
X-0033528Y-0006223
Y-0011303
T09
X-0024765Y-001774
T10
X-0023368Y-0002159
T11
X-0024765Y-001524
M30
