G04*
G04 #@! TF.GenerationSoftware,Altium Limited,Altium Designer,23.1.1 (15)*
G04*
G04 Layer_Physical_Order=1*
G04 Layer_Color=255*
%FSLAX44Y44*%
%MOMM*%
G71*
G04*
G04 #@! TF.SameCoordinates,F07AD2E6-3264-46D2-9BB4-269CB8441167*
G04*
G04*
G04 #@! TF.FilePolarity,Positive*
G04*
G01*
G75*
G04:AMPARAMS|DCode=16|XSize=0.92mm|YSize=1.38mm|CornerRadius=0.115mm|HoleSize=0mm|Usage=FLASHONLY|Rotation=90.000|XOffset=0mm|YOffset=0mm|HoleType=Round|Shape=RoundedRectangle|*
%AMROUNDEDRECTD16*
21,1,0.9200,1.1500,0,0,90.0*
21,1,0.6900,1.3800,0,0,90.0*
1,1,0.2300,0.5750,0.3450*
1,1,0.2300,0.5750,-0.3450*
1,1,0.2300,-0.5750,-0.3450*
1,1,0.2300,-0.5750,0.3450*
%
%ADD16ROUNDEDRECTD16*%
G04:AMPARAMS|DCode=17|XSize=3.24mm|YSize=1.31mm|CornerRadius=0.0983mm|HoleSize=0mm|Usage=FLASHONLY|Rotation=180.000|XOffset=0mm|YOffset=0mm|HoleType=Round|Shape=RoundedRectangle|*
%AMROUNDEDRECTD17*
21,1,3.2400,1.1135,0,0,180.0*
21,1,3.0435,1.3100,0,0,180.0*
1,1,0.1965,-1.5218,0.5568*
1,1,0.1965,1.5218,0.5568*
1,1,0.1965,1.5218,-0.5568*
1,1,0.1965,-1.5218,-0.5568*
%
%ADD17ROUNDEDRECTD17*%
G04:AMPARAMS|DCode=18|XSize=0.93mm|YSize=1.31mm|CornerRadius=0.0698mm|HoleSize=0mm|Usage=FLASHONLY|Rotation=180.000|XOffset=0mm|YOffset=0mm|HoleType=Round|Shape=RoundedRectangle|*
%AMROUNDEDRECTD18*
21,1,0.9300,1.1705,0,0,180.0*
21,1,0.7905,1.3100,0,0,180.0*
1,1,0.1395,-0.3953,0.5853*
1,1,0.1395,0.3953,0.5853*
1,1,0.1395,0.3953,-0.5853*
1,1,0.1395,-0.3953,-0.5853*
%
%ADD18ROUNDEDRECTD18*%
G04:AMPARAMS|DCode=19|XSize=0.54mm|YSize=0.6mm|CornerRadius=0.0675mm|HoleSize=0mm|Usage=FLASHONLY|Rotation=0.000|XOffset=0mm|YOffset=0mm|HoleType=Round|Shape=RoundedRectangle|*
%AMROUNDEDRECTD19*
21,1,0.5400,0.4650,0,0,0.0*
21,1,0.4050,0.6000,0,0,0.0*
1,1,0.1350,0.2025,-0.2325*
1,1,0.1350,-0.2025,-0.2325*
1,1,0.1350,-0.2025,0.2325*
1,1,0.1350,0.2025,0.2325*
%
%ADD19ROUNDEDRECTD19*%
G04:AMPARAMS|DCode=20|XSize=0.54mm|YSize=0.6mm|CornerRadius=0.0675mm|HoleSize=0mm|Usage=FLASHONLY|Rotation=90.000|XOffset=0mm|YOffset=0mm|HoleType=Round|Shape=RoundedRectangle|*
%AMROUNDEDRECTD20*
21,1,0.5400,0.4650,0,0,90.0*
21,1,0.4050,0.6000,0,0,90.0*
1,1,0.1350,0.2325,0.2025*
1,1,0.1350,0.2325,-0.2025*
1,1,0.1350,-0.2325,-0.2025*
1,1,0.1350,-0.2325,0.2025*
%
%ADD20ROUNDEDRECTD20*%
G04:AMPARAMS|DCode=21|XSize=0.92mm|YSize=1.38mm|CornerRadius=0.115mm|HoleSize=0mm|Usage=FLASHONLY|Rotation=0.000|XOffset=0mm|YOffset=0mm|HoleType=Round|Shape=RoundedRectangle|*
%AMROUNDEDRECTD21*
21,1,0.9200,1.1500,0,0,0.0*
21,1,0.6900,1.3800,0,0,0.0*
1,1,0.2300,0.3450,-0.5750*
1,1,0.2300,-0.3450,-0.5750*
1,1,0.2300,-0.3450,0.5750*
1,1,0.2300,0.3450,0.5750*
%
%ADD21ROUNDEDRECTD21*%
G04:AMPARAMS|DCode=22|XSize=2.25mm|YSize=2.12mm|CornerRadius=0.265mm|HoleSize=0mm|Usage=FLASHONLY|Rotation=270.000|XOffset=0mm|YOffset=0mm|HoleType=Round|Shape=RoundedRectangle|*
%AMROUNDEDRECTD22*
21,1,2.2500,1.5900,0,0,270.0*
21,1,1.7200,2.1200,0,0,270.0*
1,1,0.5300,-0.7950,-0.8600*
1,1,0.5300,-0.7950,0.8600*
1,1,0.5300,0.7950,0.8600*
1,1,0.5300,0.7950,-0.8600*
%
%ADD22ROUNDEDRECTD22*%
%ADD23R,0.6000X0.5000*%
%ADD24R,1.2200X0.9100*%
%ADD25R,3.8100X4.2418*%
%ADD26R,2.8000X2.4000*%
%ADD27R,2.4000X2.8000*%
%ADD43C,1.8034*%
%ADD45C,1.5240*%
%ADD53C,0.4000*%
%ADD54C,0.5000*%
%ADD55C,1.5000*%
%ADD56R,1.8600X1.8600*%
%ADD57C,1.6500*%
%ADD58C,1.3080*%
%ADD59C,1.3208*%
%ADD60R,1.3080X1.3080*%
%ADD61C,1.8600*%
%ADD62C,2.1000*%
%ADD63C,2.0000*%
%ADD64C,2.6250*%
%ADD65C,1.4500*%
G36*
X-15190Y-50D02*
X-13574Y-50D01*
X-10403Y-681D01*
X-7417Y-1918D01*
X-4729Y-3714D01*
X-2444Y-5999D01*
X-648Y-8687D01*
X589Y-11674D01*
X1220Y-14844D01*
X1220Y-16460D01*
X1220Y-16460D01*
X1220Y-16460D01*
X1220Y-381050D01*
X1220Y-382921D01*
X490Y-386592D01*
X-942Y-390050D01*
X-3022Y-393162D01*
X-5668Y-395808D01*
X-8780Y-397888D01*
X-12238Y-399320D01*
X-15909Y-400050D01*
X-17780Y-400050D01*
X-379730D01*
X-381606Y-400050D01*
X-385287Y-399318D01*
X-388754Y-397882D01*
X-391874Y-395797D01*
X-394527Y-393144D01*
X-396612Y-390024D01*
X-398048Y-386557D01*
X-398780Y-382876D01*
X-398780Y-381000D01*
Y-17780D01*
Y-16034D01*
X-398099Y-12608D01*
X-396762Y-9382D01*
X-394822Y-6478D01*
X-392352Y-4008D01*
X-389448Y-2068D01*
X-386222Y-732D01*
X-382796Y-50D01*
X-381050D01*
X-381050Y-50D01*
X-15190Y-50D01*
D02*
G37*
%LPC*%
G36*
X-60908Y-12820D02*
X-60960D01*
Y-21590D01*
X-52190D01*
Y-21538D01*
X-52874Y-18985D01*
X-54196Y-16695D01*
X-56065Y-14826D01*
X-58355Y-13504D01*
X-60908Y-12820D01*
D02*
G37*
G36*
X-107898D02*
X-107950D01*
Y-21590D01*
X-99180D01*
Y-21538D01*
X-99864Y-18985D01*
X-101186Y-16695D01*
X-103055Y-14826D01*
X-105345Y-13504D01*
X-107898Y-12820D01*
D02*
G37*
G36*
X-63500D02*
X-63552D01*
X-66105Y-13504D01*
X-68395Y-14826D01*
X-70264Y-16695D01*
X-71586Y-18985D01*
X-72270Y-21538D01*
Y-21590D01*
X-63500D01*
Y-12820D01*
D02*
G37*
G36*
X-110490D02*
X-110542D01*
X-113095Y-13504D01*
X-115385Y-14826D01*
X-117254Y-16695D01*
X-118576Y-18985D01*
X-119260Y-21538D01*
Y-21590D01*
X-110490D01*
Y-12820D01*
D02*
G37*
G36*
X-156210Y-8362D02*
X-157050D01*
X-159196Y-8789D01*
X-159407Y-8930D01*
X-162090D01*
Y-11079D01*
X-174263Y-23252D01*
X-178825D01*
X-178856Y-23199D01*
X-180679Y-21376D01*
X-182911Y-20087D01*
X-185401Y-19420D01*
X-187979D01*
X-190469Y-20087D01*
X-192701Y-21376D01*
X-194524Y-23199D01*
X-195813Y-25431D01*
X-196480Y-27921D01*
Y-30499D01*
X-195813Y-32989D01*
X-194524Y-35221D01*
X-192701Y-37044D01*
X-190903Y-38082D01*
X-191243Y-39352D01*
X-266700D01*
X-268651Y-39740D01*
X-270305Y-40845D01*
X-294686Y-65226D01*
X-295791Y-66880D01*
X-296179Y-68831D01*
Y-165780D01*
X-324082Y-193683D01*
X-325101Y-193410D01*
X-327679D01*
X-330169Y-194077D01*
X-332401Y-195366D01*
X-334224Y-197189D01*
X-335513Y-199421D01*
X-336180Y-201911D01*
Y-204489D01*
X-335513Y-206979D01*
X-334224Y-209211D01*
X-332401Y-211034D01*
X-330169Y-212323D01*
X-327679Y-212990D01*
X-325101D01*
X-322611Y-212323D01*
X-320379Y-211034D01*
X-318556Y-209211D01*
X-317267Y-206979D01*
X-316600Y-204489D01*
Y-201911D01*
X-316873Y-200893D01*
X-287477Y-171496D01*
X-286371Y-169842D01*
X-285983Y-167891D01*
Y-70943D01*
X-264588Y-49548D01*
X-187199D01*
X-184883Y-51865D01*
X-183229Y-52970D01*
X-181278Y-53358D01*
X-172143D01*
X-169166Y-56335D01*
X-167512Y-57440D01*
X-166710Y-57599D01*
X-166706Y-57620D01*
X-165890Y-58840D01*
X-164670Y-59656D01*
X-163230Y-59942D01*
X-151730D01*
X-150290Y-59656D01*
X-149070Y-58840D01*
X-148254Y-57620D01*
X-147968Y-56180D01*
Y-49280D01*
X-148254Y-47840D01*
X-149070Y-46620D01*
X-150290Y-45804D01*
X-151730Y-45518D01*
X-163230D01*
X-164670Y-45804D01*
X-165034Y-46047D01*
X-166426Y-44655D01*
X-168080Y-43550D01*
X-170031Y-43162D01*
X-179166D01*
X-181483Y-40845D01*
X-183137Y-39740D01*
X-183206Y-39727D01*
X-183248Y-38423D01*
X-182911Y-38333D01*
X-180679Y-37044D01*
X-178856Y-35221D01*
X-178421Y-34468D01*
X-171940D01*
X-169794Y-34041D01*
X-168262Y-33017D01*
X-166992Y-33467D01*
Y-37080D01*
X-166706Y-38520D01*
X-165890Y-39741D01*
X-164670Y-40556D01*
X-163230Y-40842D01*
X-151730D01*
X-150290Y-40556D01*
X-149070Y-39741D01*
X-148254Y-38520D01*
X-147968Y-37080D01*
Y-30180D01*
X-148254Y-28740D01*
X-149070Y-27520D01*
X-150290Y-26704D01*
X-150602Y-26642D01*
Y-13970D01*
X-151010Y-11920D01*
Y-8930D01*
X-153853D01*
X-154064Y-8789D01*
X-156210Y-8362D01*
D02*
G37*
G36*
X-13663Y-4840D02*
X-16338D01*
X-18922Y-5533D01*
X-21239Y-6870D01*
X-23130Y-8762D01*
X-24468Y-11079D01*
X-25160Y-13663D01*
Y-16338D01*
X-24468Y-18922D01*
X-23130Y-21239D01*
X-21239Y-23130D01*
X-18922Y-24468D01*
X-16338Y-25160D01*
X-13663D01*
X-11079Y-24468D01*
X-8762Y-23130D01*
X-6870Y-21239D01*
X-5533Y-18922D01*
X-4840Y-16338D01*
Y-13663D01*
X-5533Y-11079D01*
X-6870Y-8762D01*
X-8762Y-6870D01*
X-11079Y-5533D01*
X-13663Y-4840D01*
D02*
G37*
G36*
X-382442D02*
X-385117D01*
X-387701Y-5533D01*
X-390018Y-6870D01*
X-391910Y-8762D01*
X-393247Y-11079D01*
X-393940Y-13663D01*
Y-16338D01*
X-393247Y-18922D01*
X-391910Y-21239D01*
X-390018Y-23130D01*
X-387701Y-24468D01*
X-385117Y-25160D01*
X-382442D01*
X-379858Y-24468D01*
X-377541Y-23130D01*
X-375650Y-21239D01*
X-374312Y-18922D01*
X-373620Y-16338D01*
Y-13663D01*
X-374312Y-11079D01*
X-375650Y-8762D01*
X-377541Y-6870D01*
X-379858Y-5533D01*
X-382442Y-4840D01*
D02*
G37*
G36*
X-35508Y-12820D02*
X-38152D01*
X-40705Y-13504D01*
X-42995Y-14826D01*
X-44864Y-16695D01*
X-46186Y-18985D01*
X-46870Y-21538D01*
Y-24182D01*
X-46186Y-26735D01*
X-44864Y-29025D01*
X-42995Y-30894D01*
X-40705Y-32216D01*
X-38152Y-32900D01*
X-35508D01*
X-32955Y-32216D01*
X-30665Y-30894D01*
X-28796Y-29025D01*
X-27474Y-26735D01*
X-26790Y-24182D01*
Y-21538D01*
X-27474Y-18985D01*
X-28796Y-16695D01*
X-30665Y-14826D01*
X-32955Y-13504D01*
X-35508Y-12820D01*
D02*
G37*
G36*
X-52190Y-24130D02*
X-60960D01*
Y-32900D01*
X-60908D01*
X-58355Y-32216D01*
X-56065Y-30894D01*
X-54196Y-29025D01*
X-52874Y-26735D01*
X-52190Y-24182D01*
Y-24130D01*
D02*
G37*
G36*
X-63500D02*
X-72270D01*
Y-24182D01*
X-71586Y-26735D01*
X-70264Y-29025D01*
X-68395Y-30894D01*
X-66105Y-32216D01*
X-63552Y-32900D01*
X-63500D01*
Y-24130D01*
D02*
G37*
G36*
X-232137Y-5925D02*
X-235223D01*
X-238249Y-6527D01*
X-241100Y-7708D01*
X-243666Y-9422D01*
X-245848Y-11604D01*
X-247562Y-14170D01*
X-248743Y-17021D01*
X-249345Y-20047D01*
Y-23133D01*
X-248743Y-26159D01*
X-247562Y-29010D01*
X-245848Y-31576D01*
X-243666Y-33758D01*
X-241100Y-35472D01*
X-238249Y-36653D01*
X-235223Y-37255D01*
X-232137D01*
X-229111Y-36653D01*
X-226260Y-35472D01*
X-223694Y-33758D01*
X-221512Y-31576D01*
X-219798Y-29010D01*
X-218617Y-26159D01*
X-218015Y-23133D01*
Y-20047D01*
X-218617Y-17021D01*
X-219798Y-14170D01*
X-221512Y-11604D01*
X-223694Y-9422D01*
X-226260Y-7708D01*
X-229111Y-6527D01*
X-232137Y-5925D01*
D02*
G37*
G36*
X-135890Y-42420D02*
X-140223D01*
Y-43175D01*
X-139973Y-44429D01*
X-139263Y-45493D01*
X-138199Y-46203D01*
X-136945Y-46453D01*
X-135890D01*
Y-42420D01*
D02*
G37*
G36*
X-135550Y-8872D02*
X-135841Y-8930D01*
X-141090D01*
Y-19010D01*
X-140648D01*
Y-31810D01*
X-140260Y-33761D01*
X-140223Y-33816D01*
Y-34535D01*
X-139973Y-35789D01*
X-139278Y-36830D01*
X-139973Y-37871D01*
X-140223Y-39125D01*
Y-39880D01*
X-134620D01*
Y-41150D01*
X-133350D01*
Y-46453D01*
X-132295D01*
X-131041Y-46203D01*
X-129977Y-45493D01*
X-129267Y-44429D01*
X-129017Y-43175D01*
Y-41664D01*
X-128035Y-40858D01*
X-127534Y-40958D01*
X-85162D01*
X-62825Y-63295D01*
X-61171Y-64400D01*
X-59220Y-64788D01*
X-38841D01*
X-38314Y-65701D01*
X-36491Y-67524D01*
X-34259Y-68813D01*
X-31769Y-69480D01*
X-29191D01*
X-26701Y-68813D01*
X-24469Y-67524D01*
X-22646Y-65701D01*
X-21357Y-63469D01*
X-20690Y-60979D01*
Y-58401D01*
X-21357Y-55911D01*
X-22646Y-53679D01*
X-24469Y-51856D01*
X-26701Y-50567D01*
X-29191Y-49900D01*
X-31769D01*
X-34259Y-50567D01*
X-36491Y-51856D01*
X-38314Y-53679D01*
X-38841Y-54592D01*
X-57109D01*
X-78724Y-32977D01*
X-78515Y-31390D01*
X-77655Y-30894D01*
X-75786Y-29025D01*
X-74464Y-26735D01*
X-73780Y-24182D01*
Y-21538D01*
X-74464Y-18985D01*
X-75786Y-16695D01*
X-77655Y-14826D01*
X-79945Y-13504D01*
X-82498Y-12820D01*
X-85142D01*
X-87695Y-13504D01*
X-89985Y-14826D01*
X-91854Y-16695D01*
X-93176Y-18985D01*
X-93860Y-21538D01*
Y-24182D01*
X-93176Y-26735D01*
X-91854Y-29025D01*
X-91290Y-29589D01*
X-91776Y-30762D01*
X-101264D01*
X-101750Y-29589D01*
X-101186Y-29025D01*
X-99864Y-26735D01*
X-99180Y-24182D01*
Y-24130D01*
X-109220D01*
X-119260D01*
Y-24182D01*
X-118576Y-26735D01*
X-117254Y-29025D01*
X-116690Y-29589D01*
X-117176Y-30762D01*
X-125423D01*
X-127140Y-29045D01*
X-128793Y-27940D01*
X-130452Y-27610D01*
Y-19010D01*
X-130010D01*
Y-8930D01*
X-135259D01*
X-135550Y-8872D01*
D02*
G37*
G36*
X-333759Y-50673D02*
X-336801D01*
X-339741Y-51461D01*
X-342376Y-52982D01*
X-344528Y-55134D01*
X-346049Y-57769D01*
X-346837Y-60708D01*
Y-63752D01*
X-346049Y-66691D01*
X-344528Y-69326D01*
X-342376Y-71478D01*
X-339741Y-72999D01*
X-336801Y-73787D01*
X-333759D01*
X-330819Y-72999D01*
X-328184Y-71478D01*
X-326032Y-69326D01*
X-324511Y-66691D01*
X-323723Y-63752D01*
Y-60708D01*
X-324511Y-57769D01*
X-326032Y-55134D01*
X-328184Y-52982D01*
X-330819Y-51461D01*
X-333759Y-50673D01*
D02*
G37*
G36*
X-224501Y-54200D02*
X-227619D01*
X-230630Y-55007D01*
X-233330Y-56566D01*
X-235534Y-58770D01*
X-237093Y-61470D01*
X-237900Y-64481D01*
Y-67599D01*
X-237093Y-70610D01*
X-235534Y-73310D01*
X-233330Y-75514D01*
X-230630Y-77073D01*
X-227619Y-77880D01*
X-224501D01*
X-221490Y-77073D01*
X-218790Y-75514D01*
X-216586Y-73310D01*
X-215027Y-70610D01*
X-214220Y-67599D01*
Y-64481D01*
X-215027Y-61470D01*
X-216586Y-58770D01*
X-218790Y-56566D01*
X-221490Y-55007D01*
X-224501Y-54200D01*
D02*
G37*
G36*
X-199101D02*
X-202219D01*
X-205230Y-55007D01*
X-207930Y-56566D01*
X-210134Y-58770D01*
X-211693Y-61470D01*
X-212500Y-64481D01*
Y-67599D01*
X-211693Y-70610D01*
X-210134Y-73310D01*
X-207930Y-75514D01*
X-205230Y-77073D01*
X-202219Y-77880D01*
X-199101D01*
X-196090Y-77073D01*
X-193390Y-75514D01*
X-191186Y-73310D01*
X-189769Y-70856D01*
X-188585Y-71346D01*
X-188860Y-72371D01*
Y-74949D01*
X-188193Y-77439D01*
X-186904Y-79671D01*
X-185081Y-81494D01*
X-182849Y-82783D01*
X-180947Y-83292D01*
X-181115Y-84562D01*
X-215453D01*
X-215686Y-84159D01*
X-217509Y-82336D01*
X-219741Y-81047D01*
X-222231Y-80380D01*
X-224809D01*
X-227299Y-81047D01*
X-229531Y-82336D01*
X-231354Y-84159D01*
X-232643Y-86391D01*
X-233310Y-88881D01*
Y-91459D01*
X-232643Y-93949D01*
X-231354Y-96181D01*
X-229531Y-98004D01*
X-227299Y-99293D01*
X-224809Y-99960D01*
X-222231D01*
X-219741Y-99293D01*
X-217509Y-98004D01*
X-215686Y-96181D01*
X-215453Y-95778D01*
X-157060D01*
X-154914Y-95351D01*
X-153095Y-94135D01*
X-148056Y-89096D01*
X-146883Y-89583D01*
Y-106946D01*
X-148251Y-107736D01*
X-150074Y-109559D01*
X-150307Y-109962D01*
X-152080D01*
Y-101570D01*
X-181160D01*
Y-126720D01*
X-215345Y-160905D01*
X-216561Y-162724D01*
X-216988Y-164870D01*
Y-199148D01*
X-229109Y-211270D01*
X-229234Y-211218D01*
X-230282Y-210646D01*
X-230907Y-208311D01*
X-232196Y-206079D01*
X-234019Y-204256D01*
X-234932Y-203729D01*
Y-196448D01*
X-228045Y-189561D01*
X-226940Y-187907D01*
X-226552Y-185956D01*
Y-146480D01*
X-226940Y-144529D01*
X-228045Y-142875D01*
X-246362Y-124558D01*
Y-95991D01*
X-245449Y-95464D01*
X-243626Y-93641D01*
X-242337Y-91409D01*
X-241670Y-88919D01*
Y-86341D01*
X-242337Y-83851D01*
X-243626Y-81619D01*
X-245449Y-79796D01*
X-246568Y-79150D01*
X-246227Y-77880D01*
X-239620D01*
Y-54200D01*
X-263300D01*
Y-77880D01*
X-256693D01*
X-256352Y-79150D01*
X-257471Y-79796D01*
X-259294Y-81619D01*
X-260583Y-83851D01*
X-261250Y-86341D01*
Y-88919D01*
X-260583Y-91409D01*
X-259294Y-93641D01*
X-257471Y-95464D01*
X-256558Y-95991D01*
Y-126670D01*
X-256170Y-128621D01*
X-255065Y-130274D01*
X-246749Y-138590D01*
X-247275Y-139860D01*
X-249301D01*
X-252490Y-140715D01*
X-255350Y-142366D01*
X-257684Y-144700D01*
X-259335Y-147560D01*
X-260190Y-150749D01*
Y-154051D01*
X-259335Y-157240D01*
X-257684Y-160100D01*
X-255350Y-162435D01*
X-252731Y-163947D01*
X-252687Y-164867D01*
X-252801Y-165317D01*
X-255657Y-166966D01*
X-258085Y-169394D01*
X-259801Y-172367D01*
X-260690Y-175683D01*
Y-176130D01*
X-247650D01*
Y-177400D01*
X-246380D01*
Y-190440D01*
X-245933D01*
X-244757Y-190125D01*
X-243967Y-191228D01*
X-244740Y-192385D01*
X-245128Y-194336D01*
Y-203729D01*
X-246041Y-204256D01*
X-247864Y-206079D01*
X-248391Y-206992D01*
X-302468D01*
X-304419Y-207380D01*
X-306073Y-208485D01*
X-317890Y-220302D01*
X-327463D01*
X-328140Y-219290D01*
X-329360Y-218474D01*
X-330800Y-218188D01*
X-342300D01*
X-343740Y-218474D01*
X-344960Y-219290D01*
X-345776Y-220510D01*
X-346062Y-221950D01*
Y-228850D01*
X-345776Y-230290D01*
X-344960Y-231510D01*
X-343740Y-232326D01*
X-342300Y-232612D01*
X-330800D01*
X-329360Y-232326D01*
X-328140Y-231510D01*
X-327463Y-230498D01*
X-317154D01*
X-316628Y-231768D01*
X-324262Y-239402D01*
X-327463D01*
X-328140Y-238390D01*
X-329360Y-237574D01*
X-330800Y-237288D01*
X-342300D01*
X-343740Y-237574D01*
X-344960Y-238390D01*
X-345776Y-239610D01*
X-346062Y-241050D01*
Y-247950D01*
X-345776Y-249390D01*
X-344960Y-250610D01*
X-343740Y-251426D01*
X-342300Y-251712D01*
X-330800D01*
X-329360Y-251426D01*
X-328140Y-250610D01*
X-327463Y-249598D01*
X-322150D01*
X-320582Y-249286D01*
X-319560Y-249883D01*
X-319312Y-250144D01*
Y-263592D01*
X-329139Y-273420D01*
X-331489D01*
X-333979Y-274087D01*
X-336211Y-275376D01*
X-338034Y-277199D01*
X-339323Y-279431D01*
X-339990Y-281921D01*
Y-284499D01*
X-339323Y-286989D01*
X-338034Y-289221D01*
X-336211Y-291044D01*
X-333979Y-292333D01*
X-331489Y-293000D01*
X-328911D01*
X-326421Y-292333D01*
X-324189Y-291044D01*
X-322366Y-289221D01*
X-321077Y-286989D01*
X-320410Y-284499D01*
Y-281921D01*
X-320699Y-280841D01*
X-311300Y-271442D01*
X-298120D01*
X-296095Y-271039D01*
X-294378Y-269892D01*
X-293231Y-268175D01*
X-292828Y-266150D01*
Y-263158D01*
X-274862D01*
Y-266150D01*
X-274459Y-268175D01*
X-273312Y-269892D01*
X-271595Y-271039D01*
X-269570Y-271442D01*
X-253670D01*
X-251645Y-271039D01*
X-249928Y-269892D01*
X-248781Y-268175D01*
X-248378Y-266150D01*
Y-263158D01*
X-237240D01*
Y-268870D01*
X-219960D01*
Y-254690D01*
X-222992D01*
Y-221014D01*
X-207415Y-205436D01*
X-206199Y-203617D01*
X-205772Y-201471D01*
Y-167193D01*
X-173230Y-134650D01*
X-152080D01*
Y-121178D01*
X-150307D01*
X-150074Y-121581D01*
X-148251Y-123404D01*
X-146019Y-124693D01*
X-143529Y-125360D01*
X-140951D01*
X-138461Y-124693D01*
X-136229Y-123404D01*
X-134406Y-121581D01*
X-133117Y-119349D01*
X-132450Y-116859D01*
Y-114281D01*
X-133117Y-111791D01*
X-134406Y-109559D01*
X-135667Y-108298D01*
Y-80395D01*
X-135420Y-80346D01*
X-134200Y-79530D01*
X-133384Y-78310D01*
X-133098Y-76870D01*
Y-76728D01*
X-128522D01*
Y-76870D01*
X-128236Y-78310D01*
X-127420Y-79530D01*
X-126200Y-80346D01*
X-124760Y-80632D01*
X-118428D01*
X-117902Y-81902D01*
X-119550Y-83550D01*
X-121901Y-82920D01*
X-124479D01*
X-126969Y-83587D01*
X-129201Y-84876D01*
X-131024Y-86699D01*
X-132313Y-88931D01*
X-132980Y-91421D01*
Y-93999D01*
X-132313Y-96489D01*
X-131024Y-98721D01*
X-129201Y-100544D01*
X-126969Y-101833D01*
X-124479Y-102500D01*
X-121901D01*
X-119411Y-101833D01*
X-119098Y-101652D01*
X-117950Y-101407D01*
X-117950Y-101407D01*
X-117950Y-101407D01*
X-117160Y-102000D01*
X-117160Y-102532D01*
X-117160Y-102532D01*
X-117160Y-102561D01*
Y-116840D01*
X-103890D01*
Y-101570D01*
X-116051D01*
X-116487Y-101570D01*
X-116487Y-101570D01*
X-116839Y-100653D01*
X-116263Y-99628D01*
X-115356Y-98721D01*
X-114067Y-96489D01*
X-113400Y-93999D01*
Y-91820D01*
X-102213Y-80632D01*
X-98760D01*
X-98074Y-80496D01*
X-97620Y-81700D01*
X-98721Y-82336D01*
X-100544Y-84159D01*
X-101833Y-86391D01*
X-102500Y-88881D01*
Y-88900D01*
X-93980D01*
Y-80380D01*
X-93999D01*
X-95813Y-80866D01*
X-96344Y-79694D01*
X-96100Y-79530D01*
X-95284Y-78310D01*
X-94998Y-76870D01*
Y-65370D01*
X-95284Y-63930D01*
X-96100Y-62710D01*
X-97320Y-61894D01*
X-98760Y-61608D01*
X-105660D01*
X-107100Y-61894D01*
X-108320Y-62710D01*
X-109136Y-63930D01*
X-109422Y-65370D01*
Y-73423D01*
X-112828Y-76828D01*
X-114098Y-76302D01*
Y-65370D01*
X-114384Y-63930D01*
X-115200Y-62710D01*
X-116420Y-61894D01*
X-117860Y-61608D01*
X-124760D01*
X-126200Y-61894D01*
X-127420Y-62710D01*
X-128236Y-63930D01*
X-128522Y-65370D01*
Y-65512D01*
X-133098D01*
Y-65370D01*
X-133384Y-63930D01*
X-134200Y-62710D01*
X-135420Y-61894D01*
X-136860Y-61608D01*
X-143760D01*
X-145200Y-61894D01*
X-146420Y-62710D01*
X-147236Y-63930D01*
X-147522Y-65370D01*
Y-72702D01*
X-150928Y-76107D01*
X-152198Y-75581D01*
Y-65370D01*
X-152484Y-63930D01*
X-153300Y-62710D01*
X-154520Y-61894D01*
X-155960Y-61608D01*
X-162860D01*
X-164300Y-61894D01*
X-165520Y-62710D01*
X-166336Y-63930D01*
X-166622Y-65370D01*
Y-67292D01*
X-171593D01*
X-173059Y-65826D01*
X-175291Y-64537D01*
X-177781Y-63870D01*
X-180359D01*
X-182849Y-64537D01*
X-185081Y-65826D01*
X-186904Y-67649D01*
X-188051Y-69636D01*
X-189234Y-69145D01*
X-188820Y-67599D01*
Y-64481D01*
X-189627Y-61470D01*
X-191186Y-58770D01*
X-193390Y-56566D01*
X-196090Y-55007D01*
X-199101Y-54200D01*
D02*
G37*
G36*
X-39118Y-76073D02*
X-39370D01*
Y-86360D01*
X-29083D01*
Y-86109D01*
X-29871Y-83169D01*
X-31392Y-80534D01*
X-33544Y-78382D01*
X-36179Y-76861D01*
X-39118Y-76073D01*
D02*
G37*
G36*
X-41910D02*
X-42161D01*
X-45101Y-76861D01*
X-47736Y-78382D01*
X-49888Y-80534D01*
X-51409Y-83169D01*
X-52197Y-86109D01*
Y-86360D01*
X-41910D01*
Y-76073D01*
D02*
G37*
G36*
X-91421Y-80380D02*
X-91440D01*
Y-88900D01*
X-82920D01*
Y-88881D01*
X-83587Y-86391D01*
X-84876Y-84159D01*
X-86699Y-82336D01*
X-88931Y-81047D01*
X-91421Y-80380D01*
D02*
G37*
G36*
X-29083Y-88900D02*
X-39370D01*
Y-99187D01*
X-39118D01*
X-36179Y-98399D01*
X-33544Y-96878D01*
X-31392Y-94726D01*
X-29871Y-92091D01*
X-29083Y-89151D01*
Y-88900D01*
D02*
G37*
G36*
X-41910D02*
X-52197D01*
Y-89151D01*
X-51409Y-92091D01*
X-49888Y-94726D01*
X-47736Y-96878D01*
X-45101Y-98399D01*
X-42161Y-99187D01*
X-41910D01*
Y-88900D01*
D02*
G37*
G36*
X-82920Y-91440D02*
X-91440D01*
Y-99960D01*
X-91421D01*
X-88931Y-99293D01*
X-86699Y-98004D01*
X-84876Y-96181D01*
X-83587Y-93949D01*
X-82920Y-91459D01*
Y-91440D01*
D02*
G37*
G36*
X-93980D02*
X-102500D01*
Y-91459D01*
X-101833Y-93949D01*
X-100544Y-96181D01*
X-98721Y-98004D01*
X-96489Y-99293D01*
X-93999Y-99960D01*
X-93980D01*
Y-91440D01*
D02*
G37*
G36*
X-333759Y-101473D02*
X-334010D01*
Y-111760D01*
X-323723D01*
Y-111509D01*
X-324511Y-108569D01*
X-326032Y-105934D01*
X-328184Y-103782D01*
X-330819Y-102261D01*
X-333759Y-101473D01*
D02*
G37*
G36*
X-336550D02*
X-336801D01*
X-339741Y-102261D01*
X-342376Y-103782D01*
X-344528Y-105934D01*
X-346049Y-108569D01*
X-346837Y-111509D01*
Y-111760D01*
X-336550D01*
Y-101473D01*
D02*
G37*
G36*
X-101350Y-101570D02*
Y-116840D01*
X-88080D01*
Y-101570D01*
X-101350D01*
D02*
G37*
G36*
X-323723Y-114300D02*
X-334010D01*
Y-124587D01*
X-333759D01*
X-330819Y-123799D01*
X-328184Y-122278D01*
X-326032Y-120126D01*
X-324511Y-117491D01*
X-323723Y-114551D01*
Y-114300D01*
D02*
G37*
G36*
X-336550D02*
X-346837D01*
Y-114551D01*
X-346049Y-117491D01*
X-344528Y-120126D01*
X-342376Y-122278D01*
X-339741Y-123799D01*
X-336801Y-124587D01*
X-336550D01*
Y-114300D01*
D02*
G37*
G36*
X-130652Y-125961D02*
X-130670D01*
Y-134480D01*
X-122150D01*
Y-134462D01*
X-122818Y-131972D01*
X-124107Y-129739D01*
X-125929Y-127916D01*
X-128162Y-126628D01*
X-130652Y-125961D01*
D02*
G37*
G36*
X-133210D02*
X-133229D01*
X-135719Y-126628D01*
X-137952Y-127916D01*
X-139774Y-129739D01*
X-141063Y-131972D01*
X-141730Y-134462D01*
Y-134480D01*
X-133210D01*
Y-125961D01*
D02*
G37*
G36*
X-88080Y-119380D02*
X-101350D01*
Y-134650D01*
X-88080D01*
Y-119380D01*
D02*
G37*
G36*
X-103890D02*
X-117160D01*
Y-134650D01*
X-103890D01*
Y-119380D01*
D02*
G37*
G36*
X-221229Y-116610D02*
X-224070D01*
X-226815Y-117345D01*
X-229275Y-118766D01*
X-231284Y-120775D01*
X-232705Y-123235D01*
X-233440Y-125979D01*
Y-128820D01*
X-232705Y-131565D01*
X-231284Y-134025D01*
X-229275Y-136034D01*
X-226815Y-137455D01*
X-224070Y-138190D01*
X-221229D01*
X-218485Y-137455D01*
X-216025Y-136034D01*
X-214016Y-134025D01*
X-212595Y-131565D01*
X-211860Y-128820D01*
Y-125979D01*
X-212595Y-123235D01*
X-214016Y-120775D01*
X-216025Y-118766D01*
X-218485Y-117345D01*
X-221229Y-116610D01*
D02*
G37*
G36*
X-271230D02*
X-274071D01*
X-276815Y-117345D01*
X-279275Y-118766D01*
X-281284Y-120775D01*
X-282705Y-123235D01*
X-283440Y-125979D01*
Y-128820D01*
X-282705Y-131565D01*
X-281284Y-134025D01*
X-279275Y-136034D01*
X-276815Y-137455D01*
X-274071Y-138190D01*
X-271230D01*
X-268485Y-137455D01*
X-266025Y-136034D01*
X-264016Y-134025D01*
X-262596Y-131565D01*
X-261860Y-128820D01*
Y-125979D01*
X-262596Y-123235D01*
X-264016Y-120775D01*
X-266025Y-118766D01*
X-268485Y-117345D01*
X-271230Y-116610D01*
D02*
G37*
G36*
X-122150Y-137021D02*
X-130670D01*
Y-145541D01*
X-130652D01*
X-128162Y-144873D01*
X-125929Y-143584D01*
X-124107Y-141762D01*
X-122818Y-139529D01*
X-122150Y-137039D01*
Y-137021D01*
D02*
G37*
G36*
X-133210D02*
X-141730D01*
Y-137039D01*
X-141063Y-139529D01*
X-139774Y-141762D01*
X-137952Y-143584D01*
X-135719Y-144873D01*
X-133229Y-145541D01*
X-133210D01*
Y-137021D01*
D02*
G37*
G36*
X-171665Y-145827D02*
X-172720D01*
Y-149860D01*
X-168387D01*
Y-149105D01*
X-168636Y-147851D01*
X-169347Y-146787D01*
X-170411Y-146076D01*
X-171665Y-145827D01*
D02*
G37*
G36*
X-175260D02*
X-176315D01*
X-177569Y-146076D01*
X-178633Y-146787D01*
X-179343Y-147851D01*
X-179593Y-149105D01*
Y-149860D01*
X-175260D01*
Y-145827D01*
D02*
G37*
G36*
X-76181Y-142610D02*
X-76200D01*
Y-151130D01*
X-67680D01*
Y-151111D01*
X-68347Y-148621D01*
X-69636Y-146389D01*
X-71459Y-144566D01*
X-73691Y-143277D01*
X-76181Y-142610D01*
D02*
G37*
G36*
X-78740D02*
X-78759D01*
X-81249Y-143277D01*
X-83481Y-144566D01*
X-85304Y-146389D01*
X-86593Y-148621D01*
X-87260Y-151111D01*
Y-151130D01*
X-78740D01*
Y-142610D01*
D02*
G37*
G36*
X-67680Y-153670D02*
X-76200D01*
Y-162190D01*
X-76181D01*
X-73691Y-161523D01*
X-71459Y-160234D01*
X-69636Y-158411D01*
X-68347Y-156179D01*
X-67680Y-153689D01*
Y-153670D01*
D02*
G37*
G36*
X-78740D02*
X-87260D01*
Y-153689D01*
X-86593Y-156179D01*
X-85304Y-158411D01*
X-83481Y-160234D01*
X-81249Y-161523D01*
X-78759Y-162190D01*
X-78740D01*
Y-153670D01*
D02*
G37*
G36*
X-96337Y-155517D02*
X-99020D01*
Y-163400D01*
X-93036D01*
Y-158818D01*
X-93288Y-157555D01*
X-94003Y-156484D01*
X-95074Y-155768D01*
X-96337Y-155517D01*
D02*
G37*
G36*
X-101560D02*
X-104242D01*
X-105506Y-155768D01*
X-106576Y-156484D01*
X-107292Y-157555D01*
X-107543Y-158818D01*
Y-163400D01*
X-101560D01*
Y-155517D01*
D02*
G37*
G36*
X-93036Y-165940D02*
X-99020D01*
Y-173824D01*
X-96337D01*
X-95074Y-173572D01*
X-94003Y-172857D01*
X-93288Y-171786D01*
X-93036Y-170523D01*
Y-165940D01*
D02*
G37*
G36*
X-101560D02*
X-107543D01*
Y-170523D01*
X-107292Y-171786D01*
X-106576Y-172857D01*
X-105506Y-173572D01*
X-104242Y-173824D01*
X-101560D01*
Y-165940D01*
D02*
G37*
G36*
X-369518Y-166490D02*
X-369570D01*
Y-175260D01*
X-360800D01*
Y-175208D01*
X-361484Y-172655D01*
X-362806Y-170365D01*
X-364675Y-168496D01*
X-366965Y-167174D01*
X-369518Y-166490D01*
D02*
G37*
G36*
X-372110D02*
X-372162D01*
X-374715Y-167174D01*
X-377005Y-168496D01*
X-378874Y-170365D01*
X-380196Y-172655D01*
X-380880Y-175208D01*
Y-175260D01*
X-372110D01*
Y-166490D01*
D02*
G37*
G36*
X-360800Y-177800D02*
X-369570D01*
Y-186570D01*
X-369518D01*
X-366965Y-185886D01*
X-364675Y-184564D01*
X-362806Y-182695D01*
X-361484Y-180405D01*
X-360800Y-177852D01*
Y-177800D01*
D02*
G37*
G36*
X-372110D02*
X-380880D01*
Y-177852D01*
X-380196Y-180405D01*
X-378874Y-182695D01*
X-377005Y-184564D01*
X-374715Y-185886D01*
X-372162Y-186570D01*
X-372110D01*
Y-177800D01*
D02*
G37*
G36*
X-35701Y-107050D02*
X-38279D01*
X-40769Y-107717D01*
X-43001Y-109006D01*
X-44824Y-110829D01*
X-46113Y-113061D01*
X-46780Y-115551D01*
Y-118129D01*
X-46113Y-120619D01*
X-44824Y-122851D01*
X-43001Y-124674D01*
X-41286Y-125664D01*
X-41466Y-127027D01*
X-43831Y-127661D01*
X-46466Y-129182D01*
X-48618Y-131334D01*
X-50139Y-133969D01*
X-50927Y-136909D01*
Y-139951D01*
X-50139Y-142891D01*
X-48618Y-145526D01*
X-46466Y-147678D01*
X-43831Y-149199D01*
X-40891Y-149987D01*
X-37848D01*
X-36088Y-149515D01*
X-34818Y-150490D01*
Y-166370D01*
X-34391Y-168516D01*
X-33175Y-170335D01*
X-26179Y-177331D01*
X-26300Y-177781D01*
Y-180359D01*
X-25633Y-182849D01*
X-24344Y-185081D01*
X-22521Y-186904D01*
X-20289Y-188193D01*
X-17799Y-188860D01*
X-15221D01*
X-12731Y-188193D01*
X-10499Y-186904D01*
X-8676Y-185081D01*
X-7387Y-182849D01*
X-6720Y-180359D01*
Y-177781D01*
X-7387Y-175291D01*
X-8676Y-173059D01*
X-10499Y-171236D01*
X-12731Y-169947D01*
X-15221Y-169280D01*
X-17799D01*
X-18249Y-169401D01*
X-23602Y-164047D01*
Y-126646D01*
X-24029Y-124500D01*
X-25245Y-122680D01*
X-27749Y-120176D01*
X-27200Y-118129D01*
Y-115551D01*
X-27867Y-113061D01*
X-29156Y-110829D01*
X-30979Y-109006D01*
X-33211Y-107717D01*
X-35701Y-107050D01*
D02*
G37*
G36*
X-248920Y-178670D02*
X-260690D01*
Y-179117D01*
X-259801Y-182433D01*
X-258085Y-185407D01*
X-255657Y-187835D01*
X-252683Y-189552D01*
X-249367Y-190440D01*
X-248920D01*
Y-178670D01*
D02*
G37*
G36*
X-38063Y-178377D02*
X-41106D01*
X-44045Y-179164D01*
X-46680Y-180686D01*
X-48832Y-182837D01*
X-50354Y-185473D01*
X-51141Y-188412D01*
Y-191455D01*
X-50354Y-194394D01*
X-48832Y-197030D01*
X-46680Y-199181D01*
X-44045Y-200703D01*
X-41106Y-201490D01*
X-38063D01*
X-35123Y-200703D01*
X-32488Y-199181D01*
X-30336Y-197030D01*
X-28815Y-194394D01*
X-28027Y-191455D01*
Y-188412D01*
X-28815Y-185473D01*
X-30336Y-182837D01*
X-32488Y-180686D01*
X-35123Y-179164D01*
X-38063Y-178377D01*
D02*
G37*
G36*
X-369518Y-191890D02*
X-372162D01*
X-374715Y-192574D01*
X-377005Y-193896D01*
X-378874Y-195765D01*
X-380196Y-198055D01*
X-380880Y-200608D01*
Y-203252D01*
X-380196Y-205805D01*
X-378874Y-208095D01*
X-377005Y-209964D01*
X-374715Y-211286D01*
X-372162Y-211970D01*
X-369518D01*
X-366965Y-211286D01*
X-364675Y-209964D01*
X-362806Y-208095D01*
X-361484Y-205805D01*
X-360800Y-203252D01*
Y-200608D01*
X-361484Y-198055D01*
X-362806Y-195765D01*
X-364675Y-193896D01*
X-366965Y-192574D01*
X-369518Y-191890D01*
D02*
G37*
G36*
Y-213480D02*
X-372162D01*
X-374715Y-214164D01*
X-377005Y-215486D01*
X-378874Y-217355D01*
X-380196Y-219645D01*
X-380880Y-222198D01*
Y-224842D01*
X-380196Y-227395D01*
X-378874Y-229685D01*
X-377005Y-231554D01*
X-374715Y-232876D01*
X-372162Y-233560D01*
X-369518D01*
X-366965Y-232876D01*
X-364675Y-231554D01*
X-362806Y-229685D01*
X-361484Y-227395D01*
X-360800Y-224842D01*
Y-222198D01*
X-361484Y-219645D01*
X-362806Y-217355D01*
X-364675Y-215486D01*
X-366965Y-214164D01*
X-369518Y-213480D01*
D02*
G37*
G36*
Y-238880D02*
X-369570D01*
Y-247650D01*
X-360800D01*
Y-247598D01*
X-361484Y-245045D01*
X-362806Y-242755D01*
X-364675Y-240886D01*
X-366965Y-239564D01*
X-369518Y-238880D01*
D02*
G37*
G36*
X-372110D02*
X-372162D01*
X-374715Y-239564D01*
X-377005Y-240886D01*
X-378874Y-242755D01*
X-380196Y-245045D01*
X-380880Y-247598D01*
Y-247650D01*
X-372110D01*
Y-238880D01*
D02*
G37*
G36*
X-166340Y-242250D02*
X-181610D01*
Y-255520D01*
X-166340D01*
Y-242250D01*
D02*
G37*
G36*
X-184150D02*
X-199420D01*
Y-255520D01*
X-184150D01*
Y-242250D01*
D02*
G37*
G36*
X-360800Y-250190D02*
X-369570D01*
Y-258960D01*
X-369518D01*
X-366965Y-258276D01*
X-364675Y-256954D01*
X-362806Y-255085D01*
X-361484Y-252795D01*
X-360800Y-250242D01*
Y-250190D01*
D02*
G37*
G36*
X-372110D02*
X-380880D01*
Y-250242D01*
X-380196Y-252795D01*
X-378874Y-255085D01*
X-377005Y-256954D01*
X-374715Y-258276D01*
X-372162Y-258960D01*
X-372110D01*
Y-250190D01*
D02*
G37*
G36*
X-184150Y-258060D02*
X-199420D01*
Y-271330D01*
X-184150D01*
Y-258060D01*
D02*
G37*
G36*
X-183290Y-287668D02*
X-185470D01*
Y-295910D01*
X-179527D01*
Y-291430D01*
X-179814Y-289990D01*
X-180630Y-288770D01*
X-181850Y-287954D01*
X-183290Y-287668D01*
D02*
G37*
G36*
X-188010D02*
X-190190D01*
X-191630Y-287954D01*
X-192850Y-288770D01*
X-193666Y-289990D01*
X-193952Y-291430D01*
Y-295910D01*
X-188010D01*
Y-287668D01*
D02*
G37*
G36*
X-368375Y-285560D02*
X-370765D01*
X-373075Y-286179D01*
X-375145Y-287374D01*
X-376836Y-289065D01*
X-378031Y-291135D01*
X-378650Y-293445D01*
Y-295835D01*
X-378031Y-298145D01*
X-376836Y-300215D01*
X-375145Y-301906D01*
X-373075Y-303101D01*
X-370765Y-303720D01*
X-368375D01*
X-366065Y-303101D01*
X-363995Y-301906D01*
X-362304Y-300215D01*
X-361109Y-298145D01*
X-360490Y-295835D01*
Y-293445D01*
X-361109Y-291135D01*
X-362304Y-289065D01*
X-363995Y-287374D01*
X-366065Y-286179D01*
X-368375Y-285560D01*
D02*
G37*
G36*
X-166340Y-258060D02*
X-181610D01*
Y-271330D01*
X-172671D01*
X-172145Y-272600D01*
X-172934Y-273389D01*
X-174223Y-275621D01*
X-174890Y-278111D01*
Y-280689D01*
X-174223Y-283179D01*
X-172934Y-285411D01*
X-171826Y-286519D01*
X-172127Y-287874D01*
X-172530Y-287954D01*
X-173750Y-288770D01*
X-174566Y-289990D01*
X-174852Y-291430D01*
Y-302930D01*
X-174566Y-304370D01*
X-173750Y-305590D01*
X-172530Y-306406D01*
X-171090Y-306692D01*
X-164190D01*
X-162750Y-306406D01*
X-161530Y-305590D01*
X-160714Y-304370D01*
X-160428Y-302930D01*
Y-302278D01*
X-155852D01*
Y-302930D01*
X-155566Y-304370D01*
X-154750Y-305590D01*
X-153530Y-306406D01*
X-152090Y-306692D01*
X-145190D01*
X-143750Y-306406D01*
X-142529Y-305590D01*
X-141714Y-304370D01*
X-141427Y-302930D01*
Y-291430D01*
X-141714Y-289990D01*
X-142529Y-288770D01*
X-143750Y-287954D01*
X-145190Y-287668D01*
X-152090D01*
X-153530Y-287954D01*
X-154750Y-288770D01*
X-155566Y-289990D01*
X-155852Y-291430D01*
Y-292082D01*
X-160428D01*
Y-291430D01*
X-160714Y-289990D01*
X-160951Y-289636D01*
X-160670Y-288147D01*
X-159089Y-287234D01*
X-157266Y-285411D01*
X-155977Y-283179D01*
X-155310Y-280689D01*
Y-278111D01*
X-155977Y-275621D01*
X-157266Y-273389D01*
X-159089Y-271566D01*
X-161321Y-270277D01*
X-163811Y-269610D01*
X-166340D01*
Y-258060D01*
D02*
G37*
G36*
X-179527Y-298450D02*
X-185470D01*
Y-306692D01*
X-183290D01*
X-181850Y-306406D01*
X-180630Y-305590D01*
X-179814Y-304370D01*
X-179527Y-302930D01*
Y-298450D01*
D02*
G37*
G36*
X-188010D02*
X-193952D01*
Y-302930D01*
X-193666Y-304370D01*
X-192850Y-305590D01*
X-191630Y-306406D01*
X-190190Y-306692D01*
X-188010D01*
Y-298450D01*
D02*
G37*
G36*
X-26250Y-302250D02*
Y-310040D01*
X-18460D01*
X-19059Y-307805D01*
X-20254Y-305735D01*
X-21945Y-304044D01*
X-24015Y-302849D01*
X-26250Y-302250D01*
D02*
G37*
G36*
X-210801Y-302630D02*
X-210820D01*
Y-311150D01*
X-202300D01*
Y-311131D01*
X-202967Y-308641D01*
X-204256Y-306409D01*
X-206079Y-304586D01*
X-208311Y-303297D01*
X-210801Y-302630D01*
D02*
G37*
G36*
X-368300Y-305580D02*
Y-313370D01*
X-360510D01*
X-361109Y-311135D01*
X-362304Y-309065D01*
X-363995Y-307374D01*
X-366065Y-306179D01*
X-368300Y-305580D01*
D02*
G37*
G36*
X-370840D02*
X-373075Y-306179D01*
X-375145Y-307374D01*
X-376836Y-309065D01*
X-378031Y-311135D01*
X-378630Y-313370D01*
X-370840D01*
Y-305580D01*
D02*
G37*
G36*
X-126090Y-287668D02*
X-132990D01*
X-134430Y-287954D01*
X-135650Y-288770D01*
X-136466Y-289990D01*
X-136752Y-291430D01*
Y-302930D01*
X-136466Y-304370D01*
X-135650Y-305590D01*
X-134638Y-306267D01*
Y-309849D01*
X-134578Y-310150D01*
X-135384Y-311132D01*
X-170180D01*
X-172131Y-311520D01*
X-173785Y-312625D01*
X-177841Y-316681D01*
X-178268D01*
X-178389Y-316600D01*
X-180340Y-316212D01*
X-180540D01*
X-182491Y-316600D01*
X-184145Y-317705D01*
X-184911Y-318852D01*
X-185420Y-319192D01*
X-186461Y-318496D01*
X-187715Y-318247D01*
X-188470D01*
Y-323850D01*
Y-329453D01*
X-187715D01*
X-186461Y-329203D01*
X-185420Y-328508D01*
X-184379Y-329203D01*
X-183125Y-329453D01*
X-179075D01*
X-177820Y-329203D01*
X-176757Y-328493D01*
X-176047Y-327429D01*
X-175937Y-326877D01*
X-175729D01*
X-173778Y-326489D01*
X-172124Y-325384D01*
X-168068Y-321328D01*
X-134091D01*
X-133564Y-322241D01*
X-131741Y-324064D01*
X-129509Y-325353D01*
X-127019Y-326020D01*
X-124441D01*
X-121951Y-325353D01*
X-119719Y-324064D01*
X-117896Y-322241D01*
X-116607Y-320009D01*
X-115940Y-317519D01*
Y-314941D01*
X-116607Y-312451D01*
X-117896Y-310219D01*
X-119719Y-308396D01*
X-121951Y-307107D01*
X-122995Y-306828D01*
X-123200Y-306245D01*
X-123320Y-305426D01*
X-122614Y-304370D01*
X-122328Y-302930D01*
Y-291430D01*
X-122614Y-289990D01*
X-123430Y-288770D01*
X-124650Y-287954D01*
X-126090Y-287668D01*
D02*
G37*
G36*
X-18460Y-312580D02*
X-26250D01*
Y-320370D01*
X-24015Y-319771D01*
X-21945Y-318576D01*
X-20254Y-316885D01*
X-19059Y-314815D01*
X-18460Y-312580D01*
D02*
G37*
G36*
X-168387Y-152400D02*
X-173990D01*
X-179593D01*
Y-153155D01*
X-179343Y-154409D01*
X-178648Y-155450D01*
X-179343Y-156491D01*
X-179593Y-157745D01*
Y-161795D01*
X-179343Y-163050D01*
X-178633Y-164113D01*
X-177569Y-164823D01*
X-176315Y-165073D01*
X-175597D01*
X-173231Y-167439D01*
X-173620Y-168891D01*
Y-171469D01*
X-172953Y-173959D01*
X-171664Y-176191D01*
X-170875Y-176980D01*
X-171401Y-178250D01*
X-199420D01*
Y-207330D01*
X-166340D01*
Y-197888D01*
X-159606D01*
X-148149Y-209345D01*
X-146495Y-210450D01*
X-144544Y-210838D01*
X-127000D01*
X-125049Y-210450D01*
X-123395Y-209345D01*
X-121557Y-207507D01*
X-107888Y-221176D01*
X-108449Y-222411D01*
X-138407D01*
X-139782Y-222684D01*
X-140947Y-223463D01*
X-141726Y-224628D01*
X-141999Y-226002D01*
Y-237137D01*
X-141726Y-238512D01*
X-140947Y-239677D01*
X-139782Y-240455D01*
X-138407Y-240729D01*
X-107972D01*
X-106598Y-240455D01*
X-105433Y-239677D01*
X-104654Y-238512D01*
X-104381Y-237137D01*
Y-226479D01*
X-103146Y-225918D01*
X-44658Y-284406D01*
Y-331150D01*
X-45831Y-331636D01*
X-45920Y-331547D01*
X-48152Y-330258D01*
X-50642Y-329591D01*
X-53220D01*
X-55710Y-330258D01*
X-57942Y-331547D01*
X-59765Y-333370D01*
X-59898Y-333600D01*
X-104171D01*
X-106122Y-333988D01*
X-107775Y-335093D01*
X-110572Y-337890D01*
X-114575D01*
X-115150Y-337030D01*
X-116370Y-336214D01*
X-117810Y-335928D01*
X-124710D01*
X-126150Y-336214D01*
X-127370Y-337030D01*
X-128186Y-338250D01*
X-128472Y-339690D01*
Y-347743D01*
X-131877Y-351148D01*
X-133147Y-350622D01*
Y-339690D01*
X-133434Y-338250D01*
X-134249Y-337030D01*
X-135470Y-336214D01*
X-136910Y-335928D01*
X-143810D01*
X-145250Y-336214D01*
X-146470Y-337030D01*
X-147286Y-338250D01*
X-147572Y-339690D01*
Y-339707D01*
X-154688D01*
Y-338420D01*
X-154974Y-336980D01*
X-155790Y-335760D01*
X-157010Y-334944D01*
X-158450Y-334658D01*
X-165350D01*
X-166790Y-334944D01*
X-168010Y-335760D01*
X-168826Y-336980D01*
X-169112Y-338420D01*
Y-344673D01*
X-169210Y-344819D01*
X-169598Y-346770D01*
Y-352324D01*
X-171398Y-352807D01*
X-173631Y-354095D01*
X-175453Y-355918D01*
X-176742Y-358151D01*
X-177409Y-360641D01*
Y-363218D01*
X-176742Y-365708D01*
X-175453Y-367941D01*
X-173631Y-369763D01*
X-172672Y-370317D01*
X-173012Y-371587D01*
X-175255D01*
X-176509Y-371837D01*
X-177573Y-372547D01*
X-178284Y-373611D01*
X-178533Y-374865D01*
Y-375920D01*
X-173230D01*
Y-377190D01*
X-171960D01*
Y-382793D01*
X-171205D01*
X-169951Y-382543D01*
X-168910Y-381848D01*
X-167869Y-382543D01*
X-166615Y-382793D01*
X-162565D01*
X-161311Y-382543D01*
X-160247Y-381833D01*
X-159537Y-380769D01*
X-159287Y-379515D01*
Y-378587D01*
X-145646Y-364946D01*
X-137541D01*
X-137015Y-366216D01*
X-147367Y-376568D01*
X-150820D01*
X-152260Y-376854D01*
X-153480Y-377670D01*
X-154296Y-378890D01*
X-154582Y-380330D01*
Y-391830D01*
X-154296Y-393270D01*
X-153480Y-394490D01*
X-152260Y-395306D01*
X-150820Y-395592D01*
X-143920D01*
X-142480Y-395306D01*
X-141259Y-394490D01*
X-140444Y-393270D01*
X-140157Y-391830D01*
Y-383777D01*
X-136752Y-380372D01*
X-135482Y-380898D01*
Y-391830D01*
X-135196Y-393270D01*
X-134380Y-394490D01*
X-133160Y-395306D01*
X-131720Y-395592D01*
X-124820D01*
X-123380Y-395306D01*
X-122160Y-394490D01*
X-121344Y-393270D01*
X-121058Y-391830D01*
Y-391178D01*
X-111760D01*
Y-393446D01*
X-68580D01*
Y-357229D01*
X-46650D01*
X-44699Y-356841D01*
X-43045Y-355736D01*
X-37870Y-350561D01*
X-36600Y-351087D01*
Y-352505D01*
X-35981Y-354815D01*
X-34786Y-356885D01*
X-33095Y-358576D01*
X-31025Y-359771D01*
X-28715Y-360390D01*
X-26325D01*
X-24015Y-359771D01*
X-21945Y-358576D01*
X-20254Y-356885D01*
X-19059Y-354815D01*
X-18440Y-352505D01*
Y-350115D01*
X-19059Y-347805D01*
X-20254Y-345735D01*
X-21945Y-344044D01*
X-24015Y-342849D01*
X-26325Y-342230D01*
X-28715D01*
X-31025Y-342849D01*
X-32813Y-343881D01*
X-33703Y-343548D01*
X-34083Y-343236D01*
Y-339215D01*
X-32813Y-338739D01*
X-31025Y-339771D01*
X-28715Y-340390D01*
X-26325D01*
X-24015Y-339771D01*
X-21945Y-338576D01*
X-20254Y-336885D01*
X-19059Y-334815D01*
X-18440Y-332505D01*
Y-330115D01*
X-19059Y-327805D01*
X-20254Y-325735D01*
X-21945Y-324044D01*
X-24015Y-322849D01*
X-26325Y-322230D01*
X-28715D01*
X-31025Y-322849D01*
X-33095Y-324044D01*
X-33289Y-324238D01*
X-34462Y-323752D01*
Y-318868D01*
X-33289Y-318382D01*
X-33095Y-318576D01*
X-31025Y-319771D01*
X-28790Y-320370D01*
Y-311310D01*
Y-302250D01*
X-31025Y-302849D01*
X-33095Y-304044D01*
X-33289Y-304238D01*
X-34462Y-303752D01*
Y-300390D01*
X-18440D01*
Y-282230D01*
X-34475D01*
X-34850Y-280343D01*
X-35955Y-278690D01*
X-116459Y-198186D01*
Y-172192D01*
X-116188Y-171786D01*
X-115937Y-170523D01*
Y-158818D01*
X-116188Y-157555D01*
X-116903Y-156484D01*
X-117974Y-155768D01*
X-119237Y-155517D01*
X-127142D01*
X-128406Y-155768D01*
X-129477Y-156484D01*
X-130192Y-157555D01*
X-130443Y-158818D01*
Y-159138D01*
X-131617Y-159624D01*
X-133264Y-157976D01*
X-134918Y-156871D01*
X-136869Y-156483D01*
X-139804D01*
X-140874Y-155768D01*
X-142138Y-155517D01*
X-150043D01*
X-151306Y-155768D01*
X-152377Y-156484D01*
X-153092Y-157555D01*
X-153344Y-158818D01*
Y-166583D01*
X-154614Y-166751D01*
X-154707Y-166401D01*
X-155996Y-164169D01*
X-157819Y-162346D01*
X-160051Y-161057D01*
X-162541Y-160390D01*
X-165119D01*
X-165704Y-160547D01*
X-168387Y-157864D01*
Y-157745D01*
X-168636Y-156491D01*
X-169332Y-155450D01*
X-168636Y-154409D01*
X-168387Y-153155D01*
Y-152400D01*
D02*
G37*
G36*
X-191010Y-318247D02*
X-191765D01*
X-193020Y-318496D01*
X-194083Y-319207D01*
X-194793Y-320271D01*
X-195043Y-321525D01*
Y-322580D01*
X-191010D01*
Y-318247D01*
D02*
G37*
G36*
X-360510Y-315910D02*
X-368300D01*
Y-323700D01*
X-366065Y-323101D01*
X-363995Y-321906D01*
X-362304Y-320215D01*
X-361109Y-318145D01*
X-360510Y-315910D01*
D02*
G37*
G36*
X-370840D02*
X-378630D01*
X-378031Y-318145D01*
X-376836Y-320215D01*
X-375145Y-321906D01*
X-373075Y-323101D01*
X-370840Y-323700D01*
Y-315910D01*
D02*
G37*
G36*
X-191010Y-325120D02*
X-195043D01*
Y-326175D01*
X-194793Y-327429D01*
X-194083Y-328493D01*
X-193020Y-329203D01*
X-191765Y-329453D01*
X-191010D01*
Y-325120D01*
D02*
G37*
G36*
X-86341Y-264530D02*
X-88919D01*
X-91409Y-265197D01*
X-93641Y-266486D01*
X-95464Y-268309D01*
X-96753Y-270541D01*
X-97420Y-273031D01*
Y-275609D01*
X-96753Y-278099D01*
X-95464Y-280331D01*
X-94871Y-280924D01*
X-95397Y-282194D01*
X-111760D01*
Y-329692D01*
X-68580D01*
Y-282194D01*
X-79863D01*
X-80389Y-280924D01*
X-79796Y-280331D01*
X-78507Y-278099D01*
X-77840Y-275609D01*
Y-273031D01*
X-78507Y-270541D01*
X-79796Y-268309D01*
X-81619Y-266486D01*
X-83851Y-265197D01*
X-86341Y-264530D01*
D02*
G37*
G36*
X-177550Y-334658D02*
X-179730D01*
Y-342900D01*
X-173788D01*
Y-338420D01*
X-174074Y-336980D01*
X-174890Y-335760D01*
X-176110Y-334944D01*
X-177550Y-334658D01*
D02*
G37*
G36*
X-182270D02*
X-184450D01*
X-185890Y-334944D01*
X-187110Y-335760D01*
X-187926Y-336980D01*
X-188212Y-338420D01*
Y-342900D01*
X-182270D01*
Y-334658D01*
D02*
G37*
G36*
X-253670Y-287358D02*
X-269570D01*
X-271595Y-287761D01*
X-273312Y-288908D01*
X-274459Y-290625D01*
X-274862Y-292650D01*
Y-309850D01*
X-274459Y-311875D01*
X-273312Y-313592D01*
X-271595Y-314739D01*
X-269570Y-315142D01*
X-260488D01*
Y-325444D01*
X-260720Y-325600D01*
X-261536Y-326820D01*
X-261822Y-328260D01*
Y-339760D01*
X-261536Y-341200D01*
X-260720Y-342420D01*
X-259500Y-343236D01*
X-258060Y-343522D01*
X-251160D01*
X-249720Y-343236D01*
X-248500Y-342420D01*
X-247684Y-341200D01*
X-247398Y-339760D01*
Y-328260D01*
X-247684Y-326820D01*
X-248500Y-325600D01*
X-249720Y-324784D01*
X-250292Y-324670D01*
Y-313835D01*
X-249928Y-313592D01*
X-248781Y-311875D01*
X-248378Y-309850D01*
Y-292650D01*
X-248781Y-290625D01*
X-249928Y-288908D01*
X-251645Y-287761D01*
X-253670Y-287358D01*
D02*
G37*
G36*
X-368375Y-325560D02*
X-370765D01*
X-373075Y-326179D01*
X-375145Y-327374D01*
X-376836Y-329065D01*
X-378031Y-331135D01*
X-378650Y-333445D01*
Y-335835D01*
X-378031Y-338145D01*
X-376836Y-340215D01*
X-375145Y-341906D01*
X-373075Y-343101D01*
X-370765Y-343720D01*
X-368375D01*
X-366065Y-343101D01*
X-363995Y-341906D01*
X-362304Y-340215D01*
X-361109Y-338145D01*
X-360490Y-335835D01*
Y-333445D01*
X-361109Y-331135D01*
X-362304Y-329065D01*
X-363995Y-327374D01*
X-366065Y-326179D01*
X-368375Y-325560D01*
D02*
G37*
G36*
X-219960Y-287390D02*
X-237240D01*
Y-301570D01*
X-233698D01*
Y-315406D01*
X-233310Y-317356D01*
X-232205Y-319010D01*
X-226621Y-324594D01*
X-227107Y-325768D01*
X-230780D01*
X-232220Y-326054D01*
X-233440Y-326870D01*
X-234256Y-328090D01*
X-234542Y-329530D01*
Y-341030D01*
X-234256Y-342470D01*
X-233440Y-343690D01*
X-232428Y-344367D01*
Y-351489D01*
X-232040Y-353440D01*
X-230935Y-355093D01*
X-228476Y-357553D01*
X-228833Y-358171D01*
X-229500Y-360661D01*
Y-363239D01*
X-228833Y-365729D01*
X-227997Y-367176D01*
X-228927Y-368106D01*
X-230151Y-367399D01*
X-232476Y-366776D01*
X-234884D01*
X-237209Y-367399D01*
X-239294Y-368603D01*
X-240997Y-370305D01*
X-242201Y-372391D01*
X-242377Y-373050D01*
X-243692D01*
X-244209Y-371120D01*
X-245413Y-369035D01*
X-247115Y-367333D01*
X-249200Y-366129D01*
X-251460Y-365524D01*
Y-374650D01*
Y-383776D01*
X-249200Y-383171D01*
X-247115Y-381967D01*
X-245413Y-380265D01*
X-244209Y-378180D01*
X-244033Y-377520D01*
X-242718D01*
X-242201Y-379450D01*
X-240997Y-381535D01*
X-239294Y-383237D01*
X-237209Y-384441D01*
X-234884Y-385064D01*
X-232476D01*
X-230151Y-384441D01*
X-228065Y-383237D01*
X-226363Y-381535D01*
X-225159Y-379450D01*
X-224536Y-377124D01*
Y-374716D01*
X-225159Y-372391D01*
X-225865Y-371167D01*
X-224936Y-370237D01*
X-223489Y-371073D01*
X-220999Y-371740D01*
X-218421D01*
X-217615Y-371524D01*
X-216867Y-372638D01*
X-217406Y-374650D01*
X-209550D01*
Y-366794D01*
X-209902Y-366888D01*
X-210675Y-365880D01*
X-210587Y-365729D01*
X-209920Y-363239D01*
Y-360661D01*
X-210587Y-358171D01*
X-211876Y-355939D01*
X-213699Y-354116D01*
X-215931Y-352827D01*
X-218421Y-352160D01*
X-219449D01*
X-222232Y-349377D01*
Y-344367D01*
X-221220Y-343690D01*
X-220404Y-342470D01*
X-220118Y-341030D01*
Y-332757D01*
X-218944Y-332271D01*
X-216730Y-334485D01*
X-215443Y-335345D01*
Y-341030D01*
X-215156Y-342470D01*
X-214340Y-343690D01*
X-213120Y-344506D01*
X-211680Y-344792D01*
X-204780D01*
X-203340Y-344506D01*
X-202120Y-343690D01*
X-201304Y-342470D01*
X-201018Y-341030D01*
Y-329530D01*
X-201304Y-328090D01*
X-202120Y-326870D01*
X-203340Y-326054D01*
X-204780Y-325768D01*
X-211028D01*
X-213316Y-323480D01*
X-212790Y-322210D01*
X-210801D01*
X-208311Y-321543D01*
X-206079Y-320254D01*
X-204256Y-318431D01*
X-202967Y-316199D01*
X-202300Y-313709D01*
Y-313690D01*
X-212090D01*
Y-312420D01*
X-213360D01*
Y-302630D01*
X-213379D01*
X-215869Y-303297D01*
X-218101Y-304586D01*
X-219924Y-306409D01*
X-221213Y-308641D01*
X-221880Y-311131D01*
Y-311973D01*
X-223150Y-312652D01*
X-223502Y-312417D01*
Y-301570D01*
X-219960D01*
Y-287390D01*
D02*
G37*
G36*
X-298120Y-287358D02*
X-314020D01*
X-316045Y-287761D01*
X-317762Y-288908D01*
X-318909Y-290625D01*
X-319312Y-292650D01*
Y-309850D01*
X-318909Y-311875D01*
X-317762Y-313592D01*
X-316045Y-314739D01*
X-314020Y-315142D01*
X-302888D01*
Y-328733D01*
X-303900Y-329410D01*
X-304716Y-330630D01*
X-305002Y-332070D01*
Y-343570D01*
X-304716Y-345010D01*
X-303900Y-346230D01*
X-302680Y-347046D01*
X-301240Y-347332D01*
X-294340D01*
X-292900Y-347046D01*
X-291680Y-346230D01*
X-290864Y-345010D01*
X-290578Y-343570D01*
Y-332070D01*
X-290864Y-330630D01*
X-291680Y-329410D01*
X-292692Y-328733D01*
Y-310261D01*
X-292828Y-309577D01*
Y-292650D01*
X-293231Y-290625D01*
X-294378Y-288908D01*
X-296095Y-287761D01*
X-298120Y-287358D01*
D02*
G37*
G36*
X-173788Y-345440D02*
X-179730D01*
Y-353682D01*
X-177550D01*
X-176110Y-353396D01*
X-174890Y-352580D01*
X-174074Y-351360D01*
X-173788Y-349920D01*
Y-345440D01*
D02*
G37*
G36*
X-182270D02*
X-188212D01*
Y-349920D01*
X-187926Y-351360D01*
X-187110Y-352580D01*
X-185890Y-353396D01*
X-184450Y-353682D01*
X-182270D01*
Y-345440D01*
D02*
G37*
G36*
X-313440Y-328308D02*
X-320340D01*
X-321780Y-328594D01*
X-323000Y-329410D01*
X-323816Y-330630D01*
X-324102Y-332070D01*
Y-343570D01*
X-323816Y-345010D01*
X-323000Y-346230D01*
X-321988Y-346907D01*
Y-350338D01*
X-327243Y-355594D01*
X-327960D01*
X-329911Y-355982D01*
X-331565Y-357087D01*
X-334739Y-360260D01*
X-336531Y-359780D01*
X-339109D01*
X-341599Y-360447D01*
X-343831Y-361736D01*
X-345654Y-363559D01*
X-346943Y-365791D01*
X-347610Y-368281D01*
Y-370859D01*
X-346943Y-373349D01*
X-345654Y-375581D01*
X-343831Y-377404D01*
X-341599Y-378693D01*
X-339109Y-379360D01*
X-336531D01*
X-334041Y-378693D01*
X-331809Y-377404D01*
X-330180Y-375775D01*
X-329332Y-375838D01*
X-328791Y-376051D01*
X-328561Y-376909D01*
X-327357Y-378994D01*
X-325654Y-380697D01*
X-323569Y-381901D01*
X-321244Y-382524D01*
X-318836D01*
X-316511Y-381901D01*
X-314426Y-380697D01*
X-312723Y-378994D01*
X-311519Y-376909D01*
X-310896Y-374584D01*
Y-372176D01*
X-311519Y-369851D01*
X-312723Y-367766D01*
X-314426Y-366063D01*
X-316511Y-364859D01*
X-318836Y-364236D01*
X-319670D01*
X-320196Y-362966D01*
X-313285Y-356055D01*
X-312180Y-354401D01*
X-311792Y-352450D01*
Y-346907D01*
X-310780Y-346230D01*
X-309964Y-345010D01*
X-309678Y-343570D01*
Y-332070D01*
X-309964Y-330630D01*
X-310780Y-329410D01*
X-312000Y-328594D01*
X-313440Y-328308D01*
D02*
G37*
G36*
X-360490Y-345560D02*
X-378650D01*
Y-363720D01*
X-360490D01*
Y-345560D01*
D02*
G37*
G36*
X-270260Y-324498D02*
X-277160D01*
X-278600Y-324784D01*
X-279820Y-325600D01*
X-280636Y-326820D01*
X-280922Y-328260D01*
Y-339760D01*
X-280636Y-341200D01*
X-279820Y-342420D01*
X-278808Y-343097D01*
Y-350222D01*
X-278420Y-352173D01*
X-277315Y-353826D01*
X-274438Y-356703D01*
X-274553Y-356901D01*
X-275220Y-359391D01*
Y-361969D01*
X-274553Y-364459D01*
X-274301Y-364894D01*
X-275138Y-365985D01*
X-276926Y-365506D01*
X-279334D01*
X-281660Y-366129D01*
X-283745Y-367333D01*
X-285242Y-368830D01*
X-286169Y-368880D01*
X-286752Y-368755D01*
X-287323Y-367766D01*
X-289025Y-366063D01*
X-291110Y-364859D01*
X-293370Y-364254D01*
Y-373380D01*
Y-382506D01*
X-291110Y-381901D01*
X-289025Y-380697D01*
X-287528Y-379200D01*
X-286601Y-379150D01*
X-286018Y-379275D01*
X-285447Y-380265D01*
X-283745Y-381967D01*
X-281660Y-383171D01*
X-279334Y-383794D01*
X-276926D01*
X-274601Y-383171D01*
X-272516Y-381967D01*
X-270813Y-380265D01*
X-269609Y-378180D01*
X-268986Y-375854D01*
Y-373446D01*
X-269609Y-371120D01*
X-269726Y-370918D01*
X-269639Y-370731D01*
X-268848Y-369900D01*
X-266719Y-370470D01*
X-264141D01*
X-262012Y-369900D01*
X-261221Y-370731D01*
X-261134Y-370918D01*
X-261251Y-371120D01*
X-261856Y-373380D01*
X-254000D01*
Y-365524D01*
X-255722Y-365985D01*
X-256559Y-364894D01*
X-256307Y-364459D01*
X-255640Y-361969D01*
Y-359391D01*
X-256307Y-356901D01*
X-257596Y-354669D01*
X-259419Y-352846D01*
X-261651Y-351557D01*
X-264141Y-350890D01*
X-265832D01*
X-268612Y-348110D01*
Y-343097D01*
X-267600Y-342420D01*
X-266784Y-341200D01*
X-266498Y-339760D01*
Y-328260D01*
X-266784Y-326820D01*
X-267600Y-325600D01*
X-268820Y-324784D01*
X-270260Y-324498D01*
D02*
G37*
G36*
X-295910Y-364254D02*
X-298169Y-364859D01*
X-300254Y-366063D01*
X-301957Y-367766D01*
X-303161Y-369851D01*
X-303766Y-372110D01*
X-295910D01*
Y-364254D01*
D02*
G37*
G36*
X-207010Y-366794D02*
Y-374650D01*
X-199154D01*
X-199759Y-372391D01*
X-200963Y-370305D01*
X-202666Y-368603D01*
X-204750Y-367399D01*
X-207010Y-366794D01*
D02*
G37*
G36*
X-295910Y-374650D02*
X-303766D01*
X-303161Y-376909D01*
X-301957Y-378994D01*
X-300254Y-380697D01*
X-298169Y-381901D01*
X-295910Y-382506D01*
Y-374650D01*
D02*
G37*
G36*
X-174500Y-378460D02*
X-178533D01*
Y-379515D01*
X-178284Y-380769D01*
X-177573Y-381833D01*
X-176509Y-382543D01*
X-175255Y-382793D01*
X-174500D01*
Y-378460D01*
D02*
G37*
G36*
X-254000Y-375920D02*
X-261856D01*
X-261251Y-378180D01*
X-260047Y-380265D01*
X-258344Y-381967D01*
X-256259Y-383171D01*
X-254000Y-383776D01*
Y-375920D01*
D02*
G37*
G36*
X-199154Y-377190D02*
X-207010D01*
Y-385046D01*
X-204750Y-384441D01*
X-202666Y-383237D01*
X-200963Y-381535D01*
X-199759Y-379450D01*
X-199154Y-377190D01*
D02*
G37*
G36*
X-209550D02*
X-217406D01*
X-216801Y-379450D01*
X-215597Y-381535D01*
X-213895Y-383237D01*
X-211810Y-384441D01*
X-209550Y-385046D01*
Y-377190D01*
D02*
G37*
G36*
X-187941Y-377560D02*
X-187960D01*
Y-386080D01*
X-179440D01*
Y-386061D01*
X-180107Y-383571D01*
X-181396Y-381339D01*
X-183219Y-379516D01*
X-185451Y-378227D01*
X-187941Y-377560D01*
D02*
G37*
G36*
X-190500D02*
X-190519D01*
X-193009Y-378227D01*
X-195241Y-379516D01*
X-197064Y-381339D01*
X-198353Y-383571D01*
X-199020Y-386061D01*
Y-386080D01*
X-190500D01*
Y-377560D01*
D02*
G37*
G36*
X-12442Y-374890D02*
X-15118D01*
X-17702Y-375582D01*
X-20018Y-376920D01*
X-21910Y-378811D01*
X-23248Y-381128D01*
X-23940Y-383712D01*
Y-386387D01*
X-23248Y-388971D01*
X-21910Y-391288D01*
X-20018Y-393180D01*
X-17702Y-394517D01*
X-15118Y-395210D01*
X-12442D01*
X-9858Y-394517D01*
X-7542Y-393180D01*
X-5650Y-391288D01*
X-4312Y-388971D01*
X-3620Y-386387D01*
Y-383712D01*
X-4312Y-381128D01*
X-5650Y-378811D01*
X-7542Y-376920D01*
X-9858Y-375582D01*
X-12442Y-374890D01*
D02*
G37*
G36*
X-382442D02*
X-385117D01*
X-387701Y-375582D01*
X-390018Y-376920D01*
X-391910Y-378811D01*
X-393247Y-381128D01*
X-393940Y-383712D01*
Y-386387D01*
X-393247Y-388971D01*
X-391910Y-391288D01*
X-390018Y-393180D01*
X-387701Y-394517D01*
X-385117Y-395210D01*
X-382442D01*
X-379858Y-394517D01*
X-377541Y-393180D01*
X-375650Y-391288D01*
X-374312Y-388971D01*
X-373620Y-386387D01*
Y-383712D01*
X-374312Y-381128D01*
X-375650Y-378811D01*
X-377541Y-376920D01*
X-379858Y-375582D01*
X-382442Y-374890D01*
D02*
G37*
G36*
X-179440Y-388620D02*
X-187960D01*
Y-397140D01*
X-187941D01*
X-185451Y-396473D01*
X-183219Y-395184D01*
X-181396Y-393361D01*
X-180107Y-391129D01*
X-179440Y-388639D01*
Y-388620D01*
D02*
G37*
G36*
X-190500D02*
X-199020D01*
Y-388639D01*
X-198353Y-391129D01*
X-197064Y-393361D01*
X-195241Y-395184D01*
X-193009Y-396473D01*
X-190519Y-397140D01*
X-190500D01*
Y-388620D01*
D02*
G37*
%LPD*%
D16*
X-336550Y-225400D02*
D03*
Y-244500D02*
D03*
X-157480Y-33630D02*
D03*
Y-52730D02*
D03*
D17*
X-123190Y-231570D02*
D03*
D18*
X-146090Y-164670D02*
D03*
X-123190D02*
D03*
X-100290D02*
D03*
D19*
X-181100Y-323850D02*
D03*
X-189740D02*
D03*
X-164590Y-377190D02*
D03*
X-173230D02*
D03*
D20*
X-134620Y-32510D02*
D03*
Y-41150D02*
D03*
X-173990Y-159770D02*
D03*
Y-151130D02*
D03*
D21*
X-128270Y-386080D02*
D03*
X-147370D02*
D03*
X-140360Y-345440D02*
D03*
X-121260D02*
D03*
X-254610Y-334010D02*
D03*
X-273710D02*
D03*
X-121310Y-71120D02*
D03*
X-102210D02*
D03*
X-140310D02*
D03*
X-159410D02*
D03*
X-148640Y-297180D02*
D03*
X-129540D02*
D03*
X-297790Y-337820D02*
D03*
X-316890D02*
D03*
X-208230Y-335280D02*
D03*
X-227330D02*
D03*
X-167640Y-297180D02*
D03*
X-186740D02*
D03*
X-161900Y-344170D02*
D03*
X-181000D02*
D03*
D22*
X-306070Y-301250D02*
D03*
Y-257550D02*
D03*
X-261620Y-301250D02*
D03*
Y-257550D02*
D03*
D23*
X-135550Y-13970D02*
D03*
X-156550D02*
D03*
D24*
X-228600Y-261780D02*
D03*
Y-294480D02*
D03*
D25*
X-90170Y-305943D02*
D03*
Y-369697D02*
D03*
D26*
X-182880Y-256790D02*
D03*
Y-192790D02*
D03*
D27*
X-102620Y-118110D02*
D03*
X-166620D02*
D03*
D43*
X-39584Y-189933D02*
D03*
X-39370Y-138430D02*
D03*
X-40640Y-87630D02*
D03*
X-335280Y-62230D02*
D03*
Y-113030D02*
D03*
D45*
X-15000Y-15000D02*
D03*
X-383780D02*
D03*
X-13780Y-385050D02*
D03*
X-383780D02*
D03*
D53*
X-166370Y-280670D02*
X-165100Y-279400D01*
X-166370Y-295910D02*
Y-280670D01*
X-167640Y-297180D02*
X-166370Y-295910D01*
X-167640Y-297180D02*
X-165648D01*
X-148640D01*
X-167619Y-361929D02*
Y-359088D01*
X-164500Y-355969D02*
Y-346770D01*
X-161900Y-344170D01*
X-167619Y-359088D02*
X-164500Y-355969D01*
X-147758Y-359848D02*
X-133368D01*
X-163575Y-375665D02*
X-147758Y-359848D01*
X-265430Y-360680D02*
Y-358502D01*
X-273710Y-350222D02*
X-265430Y-358502D01*
X-273710Y-350222D02*
Y-334010D01*
X-325132Y-360692D02*
X-316890Y-352450D01*
X-327960Y-360692D02*
X-325132D01*
X-337820Y-369570D02*
X-336838D01*
X-327960Y-360692D01*
X-227330Y-351489D02*
Y-335280D01*
X-219710Y-361950D02*
Y-359109D01*
X-227330Y-351489D02*
X-219710Y-359109D01*
X-123190Y-92710D02*
X-121500D01*
X-102210Y-73420D01*
X-163830Y-172822D02*
Y-169630D01*
X-173130Y-160330D02*
X-163830Y-169630D01*
Y-172822D02*
X-153772Y-182880D01*
X-148433D01*
X-127534Y-35860D02*
X-83050D01*
X-134480Y-32650D02*
X-130744D01*
X-134620Y-32510D02*
X-134480Y-32650D01*
X-130744D02*
X-127534Y-35860D01*
X-135550Y-31810D02*
Y-13970D01*
X-146090Y-164670D02*
Y-163731D01*
Y-180537D02*
Y-164670D01*
X-148433Y-182880D02*
X-146090Y-180537D01*
Y-163731D02*
X-143940Y-161581D01*
X-182880Y-192790D02*
X-157494D01*
X-144544Y-205740D01*
X-134856Y-175980D02*
X-133350Y-174474D01*
X-135890Y-189230D02*
X-134856Y-188196D01*
Y-175980D01*
X-133350Y-174474D02*
Y-165100D01*
X-127000Y-205740D02*
X-121557Y-200297D01*
X-144544Y-205740D02*
X-127000D01*
X-123190Y-164670D02*
X-121557Y-166303D01*
Y-200297D02*
X-39560Y-282294D01*
X-121557Y-200297D02*
Y-166303D01*
X-291081Y-167891D02*
Y-68831D01*
X-266700Y-44450D01*
X-185088D01*
X-157480Y-52730D02*
X-156210D01*
X-165561D02*
X-157480D01*
X-336550Y-244500D02*
X-322150D01*
X-306070Y-301981D02*
Y-301250D01*
Y-301981D02*
X-297790Y-310261D01*
X-228600Y-315406D02*
Y-294480D01*
Y-315406D02*
X-213125Y-330880D01*
X-316890Y-352450D02*
Y-337820D01*
X-297790D02*
Y-310261D01*
X-255390Y-333230D02*
X-254610Y-334010D01*
X-213125Y-330880D02*
X-210330D01*
X-208230Y-332980D01*
Y-335280D02*
Y-332980D01*
X-240030Y-212090D02*
Y-194336D01*
X-302468Y-212090D02*
X-240030D01*
X-255390Y-333230D02*
Y-307480D01*
X-261620Y-301250D02*
X-255390Y-307480D01*
X-240030Y-194336D02*
X-231650Y-185956D01*
X-301538Y-230418D02*
X-299720Y-228600D01*
X-315778Y-225400D02*
X-302468Y-212090D01*
X-308068Y-230418D02*
X-301538D01*
X-336550Y-225400D02*
X-315778D01*
X-322150Y-244500D02*
X-308068Y-230418D01*
X-372110Y-334010D02*
X-371480Y-334640D01*
X-369570D01*
X-136869Y-161581D02*
X-133350Y-165100D01*
X-143940Y-161581D02*
X-136869D01*
X-161265Y-344805D02*
X-140995D01*
X-128270Y-386080D02*
X-106553D01*
X-129540Y-309849D02*
X-125730Y-313659D01*
X-170180Y-316230D02*
X-125730D01*
X-129540Y-309849D02*
Y-297180D01*
X-125730Y-316230D02*
Y-313659D01*
X-119160Y-342988D02*
X-108461D01*
X-140995Y-344805D02*
X-140360Y-345440D01*
X-121260Y-347740D02*
Y-345440D01*
X-132437Y-368848D02*
X-123738D01*
X-147370Y-383780D02*
X-132437Y-368848D01*
X-123738D02*
X-121920Y-367030D01*
X-133368Y-359848D02*
X-121260Y-347740D01*
X-147370Y-386080D02*
Y-383780D01*
X-108461Y-342988D02*
X-104171Y-338698D01*
X-161900Y-344170D02*
X-161265Y-344805D01*
X-179871Y-321779D02*
X-175729D01*
X-180540Y-321310D02*
X-180340D01*
X-179871Y-321779D01*
X-175729D02*
X-170180Y-316230D01*
X-90170Y-369697D02*
Y-368681D01*
X-73620Y-352131D01*
X-106553Y-386080D02*
X-90170Y-369697D01*
X-83050Y-35860D02*
X-59220Y-59690D01*
X-30480D01*
X-73620Y-352131D02*
X-46650D01*
X-52222Y-339090D02*
X-51931Y-339381D01*
X-104171Y-338698D02*
X-58420D01*
Y-339090D02*
X-52222D01*
X-46650Y-352131D02*
X-39181Y-344662D01*
X-39560Y-336297D02*
X-39181Y-336676D01*
Y-344662D02*
Y-336676D01*
X-39560Y-336297D02*
Y-282294D01*
X-326390Y-203200D02*
X-291081Y-167891D01*
X-177800Y-72390D02*
X-160680D01*
X-159410Y-71120D01*
X-170031Y-48260D02*
X-165561Y-52730D01*
X-102210Y-73420D02*
Y-71120D01*
X-179070Y-73660D02*
X-177800Y-72390D01*
X-181278Y-48260D02*
X-170031D01*
X-185088Y-44450D02*
X-181278Y-48260D01*
X-251460Y-126670D02*
X-231650Y-146480D01*
X-251460Y-126670D02*
Y-87630D01*
X-231650Y-185956D02*
Y-146480D01*
D54*
X-194840Y-319325D02*
X-193965D01*
X-212090Y-312420D02*
X-210272Y-314238D01*
X-199927D02*
X-194840Y-319325D01*
X-210272Y-314238D02*
X-199927D01*
X-193965Y-319325D02*
X-189740Y-323550D01*
Y-323850D02*
Y-323550D01*
X-223520Y-90170D02*
X-157060D01*
X-141275Y-74385D01*
X-115740Y-147320D02*
X-100290Y-162770D01*
X-173490Y-150930D02*
Y-150630D01*
X-170180Y-147320D01*
X-173690Y-151130D02*
X-173490Y-150930D01*
X-170180Y-147320D02*
X-115740D01*
X-166620Y-118110D02*
X-164080Y-115570D01*
X-211380Y-201471D02*
Y-164870D01*
X-166620Y-120110D01*
Y-118110D01*
X-100290Y-164670D02*
Y-162770D01*
X-202380Y-175077D02*
X-178633Y-151330D01*
X-202380Y-207068D02*
Y-175077D01*
X-178633Y-151330D02*
X-174490D01*
Y-151057D01*
X-173990Y-151130D02*
X-173690D01*
X-141275Y-114605D02*
Y-74385D01*
X-90170Y-305943D02*
X-87630Y-303403D01*
Y-274320D01*
X-330200Y-283210D02*
Y-282411D01*
X-306070Y-258281D01*
Y-257550D01*
X-261620D01*
X-234380D01*
X-230150Y-261780D01*
X-228600D01*
Y-218691D01*
X-211380Y-201471D01*
X-140310Y-73420D02*
Y-71120D01*
X-141275Y-74385D02*
X-140310Y-73420D01*
Y-71120D02*
X-121310D01*
X-164080Y-115570D02*
X-142240D01*
X-141275Y-114605D01*
X-36990Y-118866D02*
Y-116840D01*
X-29210Y-166370D02*
X-16510Y-179070D01*
X-36990Y-118866D02*
X-29210Y-126646D01*
Y-166370D02*
Y-126646D01*
X-89740Y-164670D02*
X-77470Y-152400D01*
X-100290Y-164670D02*
X-89740D01*
X-187412Y-385532D02*
X-183812D01*
X-189230Y-387350D02*
X-187412Y-385532D01*
X-173230Y-374950D02*
Y-374650D01*
X-183812Y-385532D02*
X-173230Y-374950D01*
Y-374650D02*
Y-374350D01*
X-202380Y-207068D02*
X-182880Y-226568D01*
X-181000Y-366580D02*
X-173230Y-374350D01*
X-182880Y-256790D02*
Y-226568D01*
X-181000Y-366580D02*
Y-344170D01*
X-186740Y-260650D02*
X-182880Y-256790D01*
X-184016Y-339770D02*
X-183100D01*
X-181000Y-344170D02*
Y-341870D01*
X-183100Y-339770D02*
X-181000Y-341870D01*
X-186740Y-297180D02*
Y-260650D01*
X-189740Y-334046D02*
X-184016Y-339770D01*
X-186740Y-311580D02*
Y-297180D01*
X-189540Y-314380D02*
X-186740Y-311580D01*
X-189740Y-334046D02*
Y-323850D01*
X-189540Y-323650D01*
Y-314380D01*
X-156210Y-33630D02*
Y-13970D01*
X-157050D02*
X-156550D01*
X-156210D01*
X-171940Y-28860D02*
X-157050Y-13970D01*
X-186340Y-28860D02*
X-171940D01*
X-186690Y-29210D02*
X-186340Y-28860D01*
X-134620Y-41150D02*
X-134320D01*
X-123487Y-51983D01*
X-99175D01*
X-78920Y-72238D01*
Y-76380D02*
Y-72238D01*
X-92710Y-90170D02*
X-78920Y-76380D01*
X-93120Y-90580D02*
X-92710Y-90170D01*
X-102620Y-118110D02*
X-93120Y-108610D01*
X-102620Y-120110D02*
Y-118110D01*
X-93120Y-108610D02*
Y-90580D01*
X-112120Y-129610D02*
X-102620Y-120110D01*
X-123229Y-129610D02*
X-112120D01*
X-131940Y-135751D02*
X-129370D01*
X-123229Y-129610D01*
D55*
X-83820Y-22860D02*
D03*
X-36830D02*
D03*
X-62230D02*
D03*
X-370840Y-248920D02*
D03*
Y-223520D02*
D03*
X-109220Y-22860D02*
D03*
X-370840Y-176530D02*
D03*
Y-201930D02*
D03*
D56*
X-251460Y-66040D02*
D03*
D57*
X-222650Y-127400D02*
D03*
X-272650D02*
D03*
D58*
X-27520Y-351310D02*
D03*
Y-331310D02*
D03*
X-369570Y-294640D02*
D03*
X-27520Y-311310D02*
D03*
X-369570Y-314640D02*
D03*
Y-334640D02*
D03*
D59*
X-233680Y-375920D02*
D03*
X-278130Y-374650D02*
D03*
X-320040Y-373380D02*
D03*
X-208280Y-375920D02*
D03*
X-252730Y-374650D02*
D03*
X-294640Y-373380D02*
D03*
D60*
X-27520Y-291310D02*
D03*
X-369570Y-354640D02*
D03*
D61*
X-226060Y-66040D02*
D03*
X-200660D02*
D03*
D62*
X-247650Y-177400D02*
D03*
D63*
Y-152400D02*
D03*
D64*
X-233680Y-21590D02*
D03*
D65*
X-165100Y-279400D02*
D03*
X-167619Y-361929D02*
D03*
X-265430Y-360680D02*
D03*
X-337820Y-369570D02*
D03*
X-219710Y-361950D02*
D03*
X-212090Y-312420D02*
D03*
X-223520Y-90170D02*
D03*
X-123190Y-92710D02*
D03*
X-163830Y-170180D02*
D03*
X-135890Y-189230D02*
D03*
X-179070Y-73660D02*
D03*
X-87630Y-274320D02*
D03*
X-121920Y-367030D02*
D03*
X-51931Y-339381D02*
D03*
X-125730Y-316230D02*
D03*
X-16510Y-179070D02*
D03*
X-36990Y-116840D02*
D03*
X-142240Y-115570D02*
D03*
X-330200Y-283210D02*
D03*
X-77470Y-152400D02*
D03*
X-189230Y-387350D02*
D03*
X-299720Y-228600D02*
D03*
X-186690Y-29210D02*
D03*
X-92710Y-90170D02*
D03*
X-131940Y-135751D02*
D03*
X-326390Y-203200D02*
D03*
X-30480Y-59690D02*
D03*
X-251460Y-87630D02*
D03*
X-240030Y-212090D02*
D03*
M02*
