G04*
G04 #@! TF.GenerationSoftware,Altium Limited,Altium Designer,23.1.1 (15)*
G04*
G04 Layer_Color=8388736*
%FSLAX44Y44*%
%MOMM*%
G71*
G04*
G04 #@! TF.SameCoordinates,F07AD2E6-3264-46D2-9BB4-269CB8441167*
G04*
G04*
G04 #@! TF.FilePolarity,Negative*
G04*
G01*
G75*
G04:AMPARAMS|DCode=28|XSize=1.1232mm|YSize=1.5832mm|CornerRadius=0.2166mm|HoleSize=0mm|Usage=FLASHONLY|Rotation=90.000|XOffset=0mm|YOffset=0mm|HoleType=Round|Shape=RoundedRectangle|*
%AMROUNDEDRECTD28*
21,1,1.1232,1.1500,0,0,90.0*
21,1,0.6900,1.5832,0,0,90.0*
1,1,0.4332,0.5750,0.3450*
1,1,0.4332,0.5750,-0.3450*
1,1,0.4332,-0.5750,-0.3450*
1,1,0.4332,-0.5750,0.3450*
%
%ADD28ROUNDEDRECTD28*%
G04:AMPARAMS|DCode=29|XSize=3.4432mm|YSize=1.5132mm|CornerRadius=0.1999mm|HoleSize=0mm|Usage=FLASHONLY|Rotation=180.000|XOffset=0mm|YOffset=0mm|HoleType=Round|Shape=RoundedRectangle|*
%AMROUNDEDRECTD29*
21,1,3.4432,1.1135,0,0,180.0*
21,1,3.0435,1.5132,0,0,180.0*
1,1,0.3997,-1.5218,0.5568*
1,1,0.3997,1.5218,0.5568*
1,1,0.3997,1.5218,-0.5568*
1,1,0.3997,-1.5218,-0.5568*
%
%ADD29ROUNDEDRECTD29*%
G04:AMPARAMS|DCode=30|XSize=1.1332mm|YSize=1.5132mm|CornerRadius=0.1714mm|HoleSize=0mm|Usage=FLASHONLY|Rotation=180.000|XOffset=0mm|YOffset=0mm|HoleType=Round|Shape=RoundedRectangle|*
%AMROUNDEDRECTD30*
21,1,1.1332,1.1705,0,0,180.0*
21,1,0.7905,1.5132,0,0,180.0*
1,1,0.3427,-0.3953,0.5853*
1,1,0.3427,0.3953,0.5853*
1,1,0.3427,0.3953,-0.5853*
1,1,0.3427,-0.3953,-0.5853*
%
%ADD30ROUNDEDRECTD30*%
G04:AMPARAMS|DCode=31|XSize=0.7432mm|YSize=0.8032mm|CornerRadius=0.1691mm|HoleSize=0mm|Usage=FLASHONLY|Rotation=0.000|XOffset=0mm|YOffset=0mm|HoleType=Round|Shape=RoundedRectangle|*
%AMROUNDEDRECTD31*
21,1,0.7432,0.4650,0,0,0.0*
21,1,0.4050,0.8032,0,0,0.0*
1,1,0.3382,0.2025,-0.2325*
1,1,0.3382,-0.2025,-0.2325*
1,1,0.3382,-0.2025,0.2325*
1,1,0.3382,0.2025,0.2325*
%
%ADD31ROUNDEDRECTD31*%
G04:AMPARAMS|DCode=32|XSize=0.7432mm|YSize=0.8032mm|CornerRadius=0.1691mm|HoleSize=0mm|Usage=FLASHONLY|Rotation=90.000|XOffset=0mm|YOffset=0mm|HoleType=Round|Shape=RoundedRectangle|*
%AMROUNDEDRECTD32*
21,1,0.7432,0.4650,0,0,90.0*
21,1,0.4050,0.8032,0,0,90.0*
1,1,0.3382,0.2325,0.2025*
1,1,0.3382,0.2325,-0.2025*
1,1,0.3382,-0.2325,-0.2025*
1,1,0.3382,-0.2325,0.2025*
%
%ADD32ROUNDEDRECTD32*%
G04:AMPARAMS|DCode=33|XSize=1.1232mm|YSize=1.5832mm|CornerRadius=0.2166mm|HoleSize=0mm|Usage=FLASHONLY|Rotation=0.000|XOffset=0mm|YOffset=0mm|HoleType=Round|Shape=RoundedRectangle|*
%AMROUNDEDRECTD33*
21,1,1.1232,1.1500,0,0,0.0*
21,1,0.6900,1.5832,0,0,0.0*
1,1,0.4332,0.3450,-0.5750*
1,1,0.4332,-0.3450,-0.5750*
1,1,0.4332,-0.3450,0.5750*
1,1,0.4332,0.3450,0.5750*
%
%ADD33ROUNDEDRECTD33*%
G04:AMPARAMS|DCode=34|XSize=2.454mm|YSize=2.324mm|CornerRadius=0.367mm|HoleSize=0mm|Usage=FLASHONLY|Rotation=270.000|XOffset=0mm|YOffset=0mm|HoleType=Round|Shape=RoundedRectangle|*
%AMROUNDEDRECTD34*
21,1,2.4540,1.5900,0,0,270.0*
21,1,1.7200,2.3240,0,0,270.0*
1,1,0.7340,-0.7950,-0.8600*
1,1,0.7340,-0.7950,0.8600*
1,1,0.7340,0.7950,0.8600*
1,1,0.7340,0.7950,-0.8600*
%
%ADD34ROUNDEDRECTD34*%
%ADD35R,0.8032X0.7032*%
%ADD36R,1.4240X1.1140*%
%ADD37R,4.0132X4.4450*%
%ADD38R,3.0032X2.6032*%
%ADD39R,2.6032X3.0032*%
%ADD40C,1.7032*%
%ADD41R,2.0632X2.0632*%
%ADD42C,1.8532*%
%ADD43C,1.8034*%
%ADD44C,1.5112*%
%ADD45C,1.5240*%
%ADD46R,1.5112X1.5112*%
%ADD47C,2.0632*%
%ADD48C,2.3032*%
%ADD49C,1.7272*%
%ADD50C,2.2032*%
%ADD51C,2.8282*%
%ADD52C,1.6532*%
D28*
X-336550Y-225400D02*
D03*
Y-244500D02*
D03*
X-157480Y-33630D02*
D03*
Y-52730D02*
D03*
D29*
X-123190Y-231570D02*
D03*
D30*
X-146090Y-164670D02*
D03*
X-123190D02*
D03*
X-100290D02*
D03*
D31*
X-181100Y-323850D02*
D03*
X-189740D02*
D03*
X-164590Y-377190D02*
D03*
X-173230D02*
D03*
D32*
X-134620Y-32510D02*
D03*
Y-41150D02*
D03*
X-173990Y-159770D02*
D03*
Y-151130D02*
D03*
D33*
X-128270Y-386080D02*
D03*
X-147370D02*
D03*
X-140360Y-345440D02*
D03*
X-121260D02*
D03*
X-254610Y-334010D02*
D03*
X-273710D02*
D03*
X-121310Y-71120D02*
D03*
X-102210D02*
D03*
X-140310D02*
D03*
X-159410D02*
D03*
X-148640Y-297180D02*
D03*
X-129540D02*
D03*
X-297790Y-337820D02*
D03*
X-316890D02*
D03*
X-208230Y-335280D02*
D03*
X-227330D02*
D03*
X-167640Y-297180D02*
D03*
X-186740D02*
D03*
X-161900Y-344170D02*
D03*
X-181000D02*
D03*
D34*
X-306070Y-301250D02*
D03*
Y-257550D02*
D03*
X-261620Y-301250D02*
D03*
Y-257550D02*
D03*
D35*
X-135550Y-13970D02*
D03*
X-156550D02*
D03*
D36*
X-228600Y-261780D02*
D03*
Y-294480D02*
D03*
D37*
X-90170Y-305943D02*
D03*
Y-369697D02*
D03*
D38*
X-182880Y-256790D02*
D03*
Y-192790D02*
D03*
D39*
X-102620Y-118110D02*
D03*
X-166620D02*
D03*
D40*
X-83820Y-22860D02*
D03*
X-36830D02*
D03*
X-62230D02*
D03*
X-370840Y-248920D02*
D03*
Y-223520D02*
D03*
X-109220Y-22860D02*
D03*
X-370840Y-176530D02*
D03*
Y-201930D02*
D03*
D41*
X-251460Y-66040D02*
D03*
D42*
X-222650Y-127400D02*
D03*
X-272650D02*
D03*
D43*
X-39584Y-189933D02*
D03*
X-39370Y-138430D02*
D03*
X-40640Y-87630D02*
D03*
X-335280Y-62230D02*
D03*
Y-113030D02*
D03*
D44*
X-27520Y-351310D02*
D03*
Y-331310D02*
D03*
X-369570Y-294640D02*
D03*
X-27520Y-311310D02*
D03*
X-369570Y-314640D02*
D03*
Y-334640D02*
D03*
D45*
X-233680Y-375920D02*
D03*
X-278130Y-374650D02*
D03*
X-320040Y-373380D02*
D03*
X-208280Y-375920D02*
D03*
X-252730Y-374650D02*
D03*
X-294640Y-373380D02*
D03*
D46*
X-27520Y-291310D02*
D03*
X-369570Y-354640D02*
D03*
D47*
X-226060Y-66040D02*
D03*
X-200660D02*
D03*
D48*
X-247650Y-177400D02*
D03*
D49*
X-15000Y-15000D02*
D03*
X-383780D02*
D03*
X-13780Y-385050D02*
D03*
X-383780D02*
D03*
D50*
X-247650Y-152400D02*
D03*
D51*
X-233680Y-21590D02*
D03*
D52*
X-165100Y-279400D02*
D03*
X-167619Y-361929D02*
D03*
X-265430Y-360680D02*
D03*
X-337820Y-369570D02*
D03*
X-219710Y-361950D02*
D03*
X-212090Y-312420D02*
D03*
X-223520Y-90170D02*
D03*
X-123190Y-92710D02*
D03*
X-163830Y-170180D02*
D03*
X-135890Y-189230D02*
D03*
X-179070Y-73660D02*
D03*
X-87630Y-274320D02*
D03*
X-121920Y-367030D02*
D03*
X-51931Y-339381D02*
D03*
X-125730Y-316230D02*
D03*
X-16510Y-179070D02*
D03*
X-36990Y-116840D02*
D03*
X-142240Y-115570D02*
D03*
X-330200Y-283210D02*
D03*
X-77470Y-152400D02*
D03*
X-189230Y-387350D02*
D03*
X-299720Y-228600D02*
D03*
X-186690Y-29210D02*
D03*
X-92710Y-90170D02*
D03*
X-131940Y-135751D02*
D03*
X-326390Y-203200D02*
D03*
X-30480Y-59690D02*
D03*
X-251460Y-87630D02*
D03*
X-240030Y-212090D02*
D03*
M02*
