G04*
G04 #@! TF.GenerationSoftware,Altium Limited,Altium Designer,23.1.1 (15)*
G04*
G04 Layer_Color=65535*
%FSLAX44Y44*%
%MOMM*%
G71*
G04*
G04 #@! TF.SameCoordinates,F07AD2E6-3264-46D2-9BB4-269CB8441167*
G04*
G04*
G04 #@! TF.FilePolarity,Positive*
G04*
G01*
G75*
%ADD10C,0.2000*%
%ADD11C,0.1524*%
%ADD12C,0.2540*%
%ADD13C,0.1270*%
%ADD14C,0.1000*%
%ADD15C,0.1800*%
G36*
X-145050Y-7709D02*
X-140791D01*
Y-20220D01*
X-145050D01*
Y-7709D01*
D02*
G37*
D10*
X-99290Y-154390D02*
G03*
X-99290Y-154390I-1000J0D01*
G01*
X-2520Y-291310D02*
G03*
X-2520Y-291310I-1000J0D01*
G01*
X-305070Y-239400D02*
G03*
X-305070Y-239400I-1000J0D01*
G01*
X-250460Y-91440D02*
G03*
X-250460Y-91440I-1000J0D01*
G01*
X-392570Y-354640D02*
G03*
X-392570Y-354640I-1000J0D01*
G01*
X-111525Y-35314D02*
G03*
X-79621Y-32590I15005J12454D01*
G01*
Y-13130D02*
G03*
X-111525Y-10406I-16899J-9730D01*
G01*
X-227600Y-252130D02*
G03*
X-227600Y-252130I-1000J0D01*
G01*
X-260620Y-239400D02*
G03*
X-260620Y-239400I-1000J0D01*
G01*
X-181880Y-175790D02*
G03*
X-181880Y-175790I-1000J0D01*
G01*
X-182620Y-118110D02*
G03*
X-182620Y-118110I-1000J0D01*
G01*
X-383294Y-174225D02*
G03*
X-380570Y-206129I12454J-15005D01*
G01*
X-361110D02*
G03*
X-358386Y-174225I-9730J16899D01*
G01*
Y-251225D02*
G03*
X-361110Y-219321I-12454J15005D01*
G01*
X-380570D02*
G03*
X-383294Y-251225I9730J-16899D01*
G01*
X-64535Y-35314D02*
G03*
X-32631Y-32590I15005J12454D01*
G01*
Y-13130D02*
G03*
X-64535Y-10406I-16899J-9730D01*
G01*
X-111525Y-35314D02*
Y-32860D01*
Y-12860D02*
Y-10406D01*
X-383294Y-174225D02*
X-380840D01*
X-360840D02*
X-358386D01*
X-360840Y-251225D02*
X-358386D01*
X-383294D02*
X-380840D01*
X-64535Y-35314D02*
Y-32860D01*
Y-12860D02*
Y-10406D01*
D11*
X-295011Y-364422D02*
G03*
X-307340Y-358140I-12329J-8958D01*
G01*
X-307340D02*
G03*
X-319511Y-364208I0J-15240D01*
G01*
X-307340Y-388620D02*
G03*
X-295331Y-382763I0J15240D01*
G01*
X-319349D02*
G03*
X-307340Y-388620I12009J9383D01*
G01*
X-253101Y-365692D02*
G03*
X-265430Y-359410I-12329J-8958D01*
G01*
X-265430D02*
G03*
X-277601Y-365478I0J-15240D01*
G01*
X-265430Y-389890D02*
G03*
X-253421Y-384033I0J15240D01*
G01*
X-277439D02*
G03*
X-265430Y-389890I12009J9383D01*
G01*
X-208651Y-366962D02*
G03*
X-220980Y-360680I-12329J-8958D01*
G01*
X-220980D02*
G03*
X-233151Y-366748I0J-15240D01*
G01*
X-220980Y-391160D02*
G03*
X-208971Y-385303I0J15240D01*
G01*
X-232989D02*
G03*
X-220980Y-391160I12009J9383D01*
G01*
X-388550Y-139700D02*
X-288010D01*
X-388550D02*
Y-35560D01*
X-288010D01*
Y-139700D02*
Y-35560D01*
D12*
X-291774Y-360319D02*
G03*
X-307340Y-353060I-15566J-13061D01*
G01*
X-307339D02*
G03*
X-325281Y-363840I0J-20320D01*
G01*
X-307340Y-393700D02*
G03*
X-291774Y-386441I0J20320D01*
G01*
X-324938Y-383540D02*
G03*
X-307341Y-393700I17598J10160D01*
G01*
X-249864Y-361589D02*
G03*
X-265430Y-354330I-15566J-13061D01*
G01*
X-265429D02*
G03*
X-283371Y-365110I0J-20320D01*
G01*
X-265430Y-394970D02*
G03*
X-249864Y-387711I0J20320D01*
G01*
X-283028Y-384810D02*
G03*
X-265431Y-394970I17598J10160D01*
G01*
X-205414Y-362859D02*
G03*
X-220980Y-355600I-15566J-13061D01*
G01*
X-220979D02*
G03*
X-238921Y-366380I0J-20320D01*
G01*
X-220980Y-396240D02*
G03*
X-205414Y-388981I0J20320D01*
G01*
X-238578Y-386080D02*
G03*
X-220981Y-396240I17598J10160D01*
G01*
D13*
X-287020Y-6477D02*
G03*
X-284480Y-9017I2540J0D01*
G01*
X-299720Y-6477D02*
G03*
X-284480Y-21717I15240J0D01*
G01*
X-182880Y-9017D02*
G03*
X-180340Y-6477I0J2540D01*
G01*
X-182880Y-21717D02*
G03*
X-167640Y-6477I0J15240D01*
G01*
X-330300Y-236700D02*
Y-233200D01*
X-342800Y-236700D02*
Y-233200D01*
X-105590Y-216720D02*
X-89590D01*
X-156790D02*
X-141890D01*
X-156790Y-179520D02*
X-154290D01*
X-92190D02*
X-89590D01*
X-156790Y-216720D02*
Y-179520D01*
X-89590Y-216720D02*
Y-179520D01*
X-10520Y-370810D02*
Y-271810D01*
X-55520D02*
X-10520D01*
X-55520Y-370810D02*
X-10520D01*
X-55520D02*
Y-271810D01*
X-139570Y-392330D02*
X-136070D01*
X-139570Y-379830D02*
X-136070D01*
X-323870Y-301000D02*
X-319810D01*
X-323870D02*
Y-257800D01*
X-319810D01*
X-292330Y-301000D02*
X-288270D01*
Y-257800D01*
X-292330D02*
X-288270D01*
X-132560Y-339190D02*
X-129060D01*
X-132560Y-351690D02*
X-129060D01*
X-265910Y-340260D02*
X-262410D01*
X-265910Y-327760D02*
X-262410D01*
X-113510Y-64870D02*
X-110010D01*
X-113510Y-77370D02*
X-110010D01*
X-278760Y-84440D02*
Y-37440D01*
Y-84440D02*
X-173360D01*
Y-37440D01*
X-278760D02*
X-173360D01*
X-386570Y-374140D02*
Y-275140D01*
Y-374140D02*
X-341570D01*
X-386570Y-275140D02*
X-341570D01*
Y-374140D02*
Y-275140D01*
X-151610Y-77370D02*
X-148110D01*
X-151610Y-64870D02*
X-148110D01*
X-140840Y-290930D02*
X-137340D01*
X-140840Y-303430D02*
X-137340D01*
X-220600Y-286730D02*
Y-269530D01*
X-236600Y-286730D02*
Y-269530D01*
X-151230Y-44930D02*
Y-41430D01*
X-163730Y-44930D02*
Y-41430D01*
X-309090Y-344070D02*
X-305590D01*
X-309090Y-331570D02*
X-305590D01*
X-279420Y-301000D02*
X-275360D01*
X-279420D02*
Y-257800D01*
X-275360D01*
X-247880Y-301000D02*
X-243820D01*
Y-257800D01*
X-247880D02*
X-243820D01*
X-219530Y-341530D02*
X-216030D01*
X-219530Y-329030D02*
X-216030D01*
X-178940Y-303430D02*
X-175440D01*
X-178940Y-290930D02*
X-175440D01*
X-173200Y-350420D02*
X-169700D01*
X-173200Y-337920D02*
X-169700D01*
X-67820Y-384470D02*
X-65020D01*
X-115320Y-291170D02*
X-112520D01*
X-67820D02*
X-65020D01*
X-115320Y-384470D02*
X-112520D01*
X-65020D02*
Y-291170D01*
X-115320Y-384470D02*
Y-291170D01*
X-204380Y-261290D02*
Y-188290D01*
X-161380Y-261290D02*
Y-188290D01*
X-171120Y-139610D02*
X-98120D01*
X-171120Y-96610D02*
X-98120D01*
X-279650Y-102400D02*
X-215650D01*
X-279650Y-189400D02*
X-261285D01*
X-234015D02*
X-215650D01*
Y-138785D01*
X-279650Y-189400D02*
Y-138785D01*
X-215650Y-116015D02*
Y-102400D01*
X-279650Y-116015D02*
Y-102400D01*
X-208280Y-29845D02*
Y-21717D01*
X-217420Y-29845D02*
X-208280D01*
X-259080D02*
Y-21717D01*
Y-29845D02*
X-249940D01*
X-299720Y105283D02*
X-287020D01*
Y-6477D02*
Y105283D01*
X-299720Y-6477D02*
Y105283D01*
X-180340D02*
X-167640D01*
X-180340Y-6477D02*
Y105283D01*
X-167640Y-6477D02*
Y105283D01*
X-217430Y-9017D02*
X-182880D01*
X-284480D02*
X-249940D01*
X-208280Y-21717D02*
X-182880D01*
X-284480D02*
X-259080D01*
X-20030Y-22938D02*
X-26801D01*
X-23416Y-26324D02*
Y-19553D01*
D14*
X-144239Y-44220D02*
Y-47220D01*
X-142740D01*
X-142240Y-46720D01*
Y-44720D01*
X-142740Y-44220D01*
X-144239D01*
X-141240Y-47220D02*
X-140241D01*
X-140740D01*
Y-44220D01*
X-141240Y-44720D01*
X-5998Y-287290D02*
X-2666D01*
X-1000Y-285624D01*
X-2666Y-283958D01*
X-5998D01*
X-5165Y-278959D02*
X-5998Y-279792D01*
Y-281459D01*
X-5165Y-282292D01*
X-1833D01*
X-1000Y-281459D01*
Y-279792D01*
X-1833Y-278959D01*
X-5165Y-273961D02*
X-5998Y-274794D01*
Y-276460D01*
X-5165Y-277293D01*
X-1833D01*
X-1000Y-276460D01*
Y-274794D01*
X-1833Y-273961D01*
X-6435Y-314438D02*
X-7268Y-315271D01*
Y-316937D01*
X-6435Y-317770D01*
X-3103D01*
X-2270Y-316937D01*
Y-315271D01*
X-3103Y-314438D01*
X-4769D01*
Y-316104D01*
X-2270Y-312772D02*
X-7268D01*
X-2270Y-309439D01*
X-7268D01*
Y-307773D02*
X-2270D01*
Y-305274D01*
X-3103Y-304441D01*
X-6435D01*
X-7268Y-305274D01*
Y-307773D01*
X-6435Y-334758D02*
X-7268Y-335591D01*
Y-337257D01*
X-6435Y-338090D01*
X-5602D01*
X-4769Y-337257D01*
Y-335591D01*
X-3936Y-334758D01*
X-3103D01*
X-2270Y-335591D01*
Y-337257D01*
X-3103Y-338090D01*
X-7268Y-329759D02*
Y-333092D01*
X-2270D01*
Y-329759D01*
X-4769Y-333092D02*
Y-331426D01*
X-2270Y-328093D02*
X-7268D01*
X-2270Y-324761D01*
X-7268D01*
X-2270Y-323095D02*
Y-321429D01*
Y-322262D01*
X-7268D01*
X-6435Y-323095D01*
Y-363968D02*
X-7268Y-364801D01*
Y-366467D01*
X-6435Y-367300D01*
X-5602D01*
X-4769Y-366467D01*
Y-364801D01*
X-3936Y-363968D01*
X-3103D01*
X-2270Y-364801D01*
Y-366467D01*
X-3103Y-367300D01*
X-7268Y-358969D02*
Y-362302D01*
X-2270D01*
Y-358969D01*
X-4769Y-362302D02*
Y-360635D01*
X-2270Y-357303D02*
X-7268D01*
X-2270Y-353971D01*
X-7268D01*
X-6435Y-348973D02*
X-7268Y-349806D01*
Y-351472D01*
X-6435Y-352305D01*
X-5602D01*
X-4769Y-351472D01*
Y-349806D01*
X-3936Y-348973D01*
X-3103D01*
X-2270Y-349806D01*
Y-351472D01*
X-3103Y-352305D01*
X-2270Y-343974D02*
Y-347307D01*
X-5602Y-343974D01*
X-6435D01*
X-7268Y-344807D01*
Y-346474D01*
X-6435Y-347307D01*
Y-88378D02*
X-7268Y-89211D01*
Y-90877D01*
X-6435Y-91710D01*
X-3103D01*
X-2270Y-90877D01*
Y-89211D01*
X-3103Y-88378D01*
X-4769D01*
Y-90044D01*
X-2270Y-86712D02*
X-7268D01*
X-2270Y-83379D01*
X-7268D01*
Y-81713D02*
X-2270D01*
Y-79214D01*
X-3103Y-78381D01*
X-6435D01*
X-7268Y-79214D01*
Y-81713D01*
Y-145050D02*
X-3936D01*
X-2270Y-143384D01*
X-3936Y-141718D01*
X-7268D01*
X-6435Y-136719D02*
X-7268Y-137552D01*
Y-139219D01*
X-6435Y-140052D01*
X-3103D01*
X-2270Y-139219D01*
Y-137552D01*
X-3103Y-136719D01*
X-6435Y-131721D02*
X-7268Y-132554D01*
Y-134220D01*
X-6435Y-135053D01*
X-3103D01*
X-2270Y-134220D01*
Y-132554D01*
X-3103Y-131721D01*
X-6435Y-198390D02*
X-7268Y-197557D01*
Y-195891D01*
X-6435Y-195058D01*
X-5602D01*
X-4769Y-195891D01*
Y-196724D01*
Y-195891D01*
X-3936Y-195058D01*
X-3103D01*
X-2270Y-195891D01*
Y-197557D01*
X-3103Y-198390D01*
X-2270Y-193392D02*
X-3103D01*
Y-192559D01*
X-2270D01*
Y-193392D01*
X-6435Y-189226D02*
X-7268Y-188393D01*
Y-186727D01*
X-6435Y-185894D01*
X-5602D01*
X-4769Y-186727D01*
Y-187560D01*
Y-186727D01*
X-3936Y-185894D01*
X-3103D01*
X-2270Y-186727D01*
Y-188393D01*
X-3103Y-189226D01*
X-7268Y-184228D02*
X-3936D01*
X-2270Y-182562D01*
X-3936Y-180896D01*
X-7268D01*
X-392782Y-53070D02*
X-396114D01*
X-397780Y-54736D01*
X-396114Y-56402D01*
X-392782D01*
X-393615Y-61401D02*
X-392782Y-60567D01*
Y-58901D01*
X-393615Y-58068D01*
X-396947D01*
X-397780Y-58901D01*
Y-60567D01*
X-396947Y-61401D01*
X-393615Y-66399D02*
X-392782Y-65566D01*
Y-63900D01*
X-393615Y-63067D01*
X-396947D01*
X-397780Y-63900D01*
Y-65566D01*
X-396947Y-66399D01*
X-392345Y-107202D02*
X-391512Y-106369D01*
Y-104703D01*
X-392345Y-103870D01*
X-395677D01*
X-396510Y-104703D01*
Y-106369D01*
X-395677Y-107202D01*
X-394011D01*
Y-105536D01*
X-396510Y-108868D02*
X-391512D01*
X-396510Y-112201D01*
X-391512D01*
Y-113867D02*
X-396510D01*
Y-116366D01*
X-395677Y-117199D01*
X-392345D01*
X-391512Y-116366D01*
Y-113867D01*
Y-288020D02*
X-394844D01*
X-396510Y-289686D01*
X-394844Y-291352D01*
X-391512D01*
X-392345Y-296351D02*
X-391512Y-295518D01*
Y-293851D01*
X-392345Y-293018D01*
X-395677D01*
X-396510Y-293851D01*
Y-295518D01*
X-395677Y-296351D01*
X-392345Y-301349D02*
X-391512Y-300516D01*
Y-298850D01*
X-392345Y-298017D01*
X-395677D01*
X-396510Y-298850D01*
Y-300516D01*
X-395677Y-301349D01*
X-392345Y-312942D02*
X-391512Y-312109D01*
Y-310443D01*
X-392345Y-309610D01*
X-395677D01*
X-396510Y-310443D01*
Y-312109D01*
X-395677Y-312942D01*
X-394011D01*
Y-311276D01*
X-396510Y-314608D02*
X-391512D01*
X-396510Y-317941D01*
X-391512D01*
Y-319607D02*
X-396510D01*
Y-322106D01*
X-395677Y-322939D01*
X-392345D01*
X-391512Y-322106D01*
Y-319607D01*
X-392345Y-335802D02*
X-391512Y-334969D01*
Y-333303D01*
X-392345Y-332470D01*
X-393178D01*
X-394011Y-333303D01*
Y-334969D01*
X-394844Y-335802D01*
X-395677D01*
X-396510Y-334969D01*
Y-333303D01*
X-395677Y-332470D01*
X-391512Y-340801D02*
Y-337468D01*
X-396510D01*
Y-340801D01*
X-394011Y-337468D02*
Y-339134D01*
X-396510Y-342467D02*
X-391512D01*
X-396510Y-345799D01*
X-391512D01*
X-396510Y-347465D02*
Y-349131D01*
Y-348298D01*
X-391512D01*
X-392345Y-347465D01*
Y-363742D02*
X-391512Y-362909D01*
Y-361243D01*
X-392345Y-360410D01*
X-393178D01*
X-394011Y-361243D01*
Y-362909D01*
X-394844Y-363742D01*
X-395677D01*
X-396510Y-362909D01*
Y-361243D01*
X-395677Y-360410D01*
X-391512Y-368741D02*
Y-365408D01*
X-396510D01*
Y-368741D01*
X-394011Y-365408D02*
Y-367075D01*
X-396510Y-370407D02*
X-391512D01*
X-396510Y-373739D01*
X-391512D01*
X-396510Y-378737D02*
Y-375405D01*
X-393178Y-378737D01*
X-392345D01*
X-391512Y-377904D01*
Y-376238D01*
X-392345Y-375405D01*
X-112989Y-59920D02*
Y-56920D01*
X-111490D01*
X-110990Y-57420D01*
Y-58420D01*
X-111490Y-58920D01*
X-112989D01*
X-111989D02*
X-110990Y-59920D01*
X-108491D02*
Y-56920D01*
X-109990Y-58420D01*
X-107991D01*
D15*
X-75763Y-53381D02*
X-77429D01*
X-76596D01*
Y-57546D01*
X-77429Y-58379D01*
X-78262D01*
X-79095Y-57546D01*
X-70765Y-58379D02*
X-74097D01*
X-70765Y-55047D01*
Y-54214D01*
X-71598Y-53381D01*
X-73264D01*
X-74097Y-54214D01*
X-148904Y-243881D02*
Y-247213D01*
X-147238Y-248879D01*
X-145572Y-247213D01*
Y-243881D01*
X-143906Y-248879D02*
Y-243881D01*
X-141407D01*
X-140574Y-244714D01*
Y-246380D01*
X-141407Y-247213D01*
X-143906D01*
X-142240D02*
X-140574Y-248879D01*
X-135576D02*
X-138908D01*
X-135576Y-245547D01*
Y-244714D01*
X-136409Y-243881D01*
X-138075D01*
X-138908Y-244714D01*
X-214985Y-292141D02*
X-211653D01*
Y-292974D01*
X-214985Y-296306D01*
Y-297139D01*
X-211653D01*
X-209987Y-292974D02*
X-209154Y-292141D01*
X-207488D01*
X-206655Y-292974D01*
Y-293807D01*
X-207488Y-294640D01*
X-208321D01*
X-207488D01*
X-206655Y-295473D01*
Y-296306D01*
X-207488Y-297139D01*
X-209154D01*
X-209987Y-296306D01*
X-253085Y-236261D02*
X-249753D01*
Y-237094D01*
X-253085Y-240426D01*
Y-241259D01*
X-249753D01*
X-244755D02*
X-248087D01*
X-244755Y-237927D01*
Y-237094D01*
X-245588Y-236261D01*
X-247254D01*
X-248087Y-237094D01*
X-337342Y-262931D02*
X-334010D01*
Y-263764D01*
X-337342Y-267096D01*
Y-267929D01*
X-334010D01*
X-332344D02*
X-330678D01*
X-331511D01*
Y-262931D01*
X-332344Y-263764D01*
X-205221Y-123231D02*
Y-126563D01*
X-203555Y-128229D01*
X-201889Y-126563D01*
Y-123231D01*
X-200223Y-128229D02*
Y-123231D01*
X-197724D01*
X-196891Y-124064D01*
Y-125730D01*
X-197724Y-126563D01*
X-200223D01*
X-198557D02*
X-196891Y-128229D01*
X-195225D02*
X-193559D01*
X-194392D01*
Y-123231D01*
X-195225Y-124064D01*
X-205638Y-284439D02*
Y-279441D01*
X-203139D01*
X-202306Y-280274D01*
Y-281940D01*
X-203139Y-282773D01*
X-205638D01*
X-203972D02*
X-202306Y-284439D01*
X-200640D02*
X-198974D01*
X-199806D01*
Y-279441D01*
X-200640Y-280274D01*
X-196474D02*
X-195641Y-279441D01*
X-193975D01*
X-193142Y-280274D01*
Y-281107D01*
X-193975Y-281940D01*
X-194808D01*
X-193975D01*
X-193142Y-282773D01*
Y-283606D01*
X-193975Y-284439D01*
X-195641D01*
X-196474Y-283606D01*
X-166268Y-331429D02*
Y-326431D01*
X-163769D01*
X-162936Y-327264D01*
Y-328930D01*
X-163769Y-329763D01*
X-166268D01*
X-164602D02*
X-162936Y-331429D01*
X-161270D02*
X-159604D01*
X-160436D01*
Y-326431D01*
X-161270Y-327264D01*
X-153772Y-331429D02*
X-157104D01*
X-153772Y-328097D01*
Y-327264D01*
X-154605Y-326431D01*
X-156271D01*
X-157104Y-327264D01*
X-148925Y-369529D02*
Y-364531D01*
X-146426D01*
X-145593Y-365364D01*
Y-367030D01*
X-146426Y-367863D01*
X-148925D01*
X-147259D02*
X-145593Y-369529D01*
X-143926D02*
X-142260D01*
X-143094D01*
Y-364531D01*
X-143926Y-365364D01*
X-139761Y-369529D02*
X-138095D01*
X-138928D01*
Y-364531D01*
X-139761Y-365364D01*
X-133248Y-281899D02*
Y-276901D01*
X-130749D01*
X-129916Y-277734D01*
Y-279400D01*
X-130749Y-280233D01*
X-133248D01*
X-131582D02*
X-129916Y-281899D01*
X-128250D02*
X-126583D01*
X-127416D01*
Y-276901D01*
X-128250Y-277734D01*
X-124084D02*
X-123251Y-276901D01*
X-121585D01*
X-120752Y-277734D01*
Y-281066D01*
X-121585Y-281899D01*
X-123251D01*
X-124084Y-281066D01*
Y-277734D01*
X-344525Y-215859D02*
Y-210861D01*
X-342026D01*
X-341193Y-211694D01*
Y-213360D01*
X-342026Y-214193D01*
X-344525D01*
X-342859D02*
X-341193Y-215859D01*
X-339527Y-215026D02*
X-338694Y-215859D01*
X-337028D01*
X-336195Y-215026D01*
Y-211694D01*
X-337028Y-210861D01*
X-338694D01*
X-339527Y-211694D01*
Y-212527D01*
X-338694Y-213360D01*
X-336195D01*
X-171805Y-396199D02*
Y-391201D01*
X-169306D01*
X-168473Y-392034D01*
Y-393700D01*
X-169306Y-394533D01*
X-171805D01*
X-170139D02*
X-168473Y-396199D01*
X-166807Y-392034D02*
X-165974Y-391201D01*
X-164308D01*
X-163475Y-392034D01*
Y-392867D01*
X-164308Y-393700D01*
X-163475Y-394533D01*
Y-395366D01*
X-164308Y-396199D01*
X-165974D01*
X-166807Y-395366D01*
Y-394533D01*
X-165974Y-393700D01*
X-166807Y-392867D01*
Y-392034D01*
X-165974Y-393700D02*
X-164308D01*
X-244195Y-327619D02*
Y-322621D01*
X-241696D01*
X-240863Y-323454D01*
Y-325120D01*
X-241696Y-325953D01*
X-244195D01*
X-242529D02*
X-240863Y-327619D01*
X-239197Y-322621D02*
X-235865D01*
Y-323454D01*
X-239197Y-326786D01*
Y-327619D01*
X-291185D02*
Y-322621D01*
X-288686D01*
X-287853Y-323454D01*
Y-325120D01*
X-288686Y-325953D01*
X-291185D01*
X-289519D02*
X-287853Y-327619D01*
X-282855Y-322621D02*
X-284521Y-323454D01*
X-286187Y-325120D01*
Y-326786D01*
X-285354Y-327619D01*
X-283688D01*
X-282855Y-326786D01*
Y-325953D01*
X-283688Y-325120D01*
X-286187D01*
X-333095Y-327619D02*
Y-322621D01*
X-330596D01*
X-329763Y-323454D01*
Y-325120D01*
X-330596Y-325953D01*
X-333095D01*
X-331429D02*
X-329763Y-327619D01*
X-324765Y-322621D02*
X-328097D01*
Y-325120D01*
X-326431Y-324287D01*
X-325598D01*
X-324765Y-325120D01*
Y-326786D01*
X-325598Y-327619D01*
X-327264D01*
X-328097Y-326786D01*
X-141325Y-58379D02*
Y-53381D01*
X-138826D01*
X-137993Y-54214D01*
Y-55880D01*
X-138826Y-56713D01*
X-141325D01*
X-139659D02*
X-137993Y-58379D01*
X-136327Y-54214D02*
X-135494Y-53381D01*
X-133828D01*
X-132995Y-54214D01*
Y-55047D01*
X-133828Y-55880D01*
X-134661D01*
X-133828D01*
X-132995Y-56713D01*
Y-57546D01*
X-133828Y-58379D01*
X-135494D01*
X-136327Y-57546D01*
X-268325Y-201889D02*
Y-196891D01*
X-265826D01*
X-264993Y-197724D01*
Y-199390D01*
X-265826Y-200223D01*
X-268325D01*
X-266659D02*
X-264993Y-201889D01*
X-259995D02*
X-263327D01*
X-259995Y-198557D01*
Y-197724D01*
X-260828Y-196891D01*
X-262494D01*
X-263327Y-197724D01*
X-125252Y-8849D02*
Y-3851D01*
X-122753D01*
X-121920Y-4684D01*
Y-6350D01*
X-122753Y-7183D01*
X-125252D01*
X-123586D02*
X-121920Y-8849D01*
X-120254D02*
X-118588D01*
X-119421D01*
Y-3851D01*
X-120254Y-4684D01*
X-56154Y-48301D02*
Y-53299D01*
X-52821D01*
X-47823Y-48301D02*
X-51155D01*
Y-53299D01*
X-47823D01*
X-51155Y-50800D02*
X-49489D01*
X-46157Y-48301D02*
Y-53299D01*
X-43658D01*
X-42825Y-52466D01*
Y-49134D01*
X-43658Y-48301D01*
X-46157D01*
X-38659Y-53299D02*
Y-48301D01*
X-41159Y-50800D01*
X-37826D01*
X-103144Y-45761D02*
Y-50759D01*
X-99811D01*
X-94813Y-45761D02*
X-98145D01*
Y-50759D01*
X-94813D01*
X-98145Y-48260D02*
X-96479D01*
X-93147Y-45761D02*
Y-50759D01*
X-90648D01*
X-89815Y-49926D01*
Y-46594D01*
X-90648Y-45761D01*
X-93147D01*
X-84816Y-50759D02*
X-88149D01*
X-84816Y-47427D01*
Y-46594D01*
X-85649Y-45761D01*
X-87316D01*
X-88149Y-46594D01*
X-386313Y-154981D02*
X-387979D01*
X-388812Y-155814D01*
Y-159146D01*
X-387979Y-159979D01*
X-386313D01*
X-385480Y-159146D01*
Y-155814D01*
X-386313Y-154981D01*
X-383814Y-159979D02*
Y-154981D01*
X-380481Y-159979D01*
Y-154981D01*
X-378815Y-157480D02*
X-375483D01*
X-371318Y-154981D02*
X-372984D01*
X-373817Y-155814D01*
Y-159146D01*
X-372984Y-159979D01*
X-371318D01*
X-370485Y-159146D01*
Y-155814D01*
X-371318Y-154981D01*
X-365486D02*
X-368819D01*
Y-157480D01*
X-367152D01*
X-368819D01*
Y-159979D01*
X-360488Y-154981D02*
X-363820D01*
Y-157480D01*
X-362154D01*
X-363820D01*
Y-159979D01*
X-245465Y-344211D02*
Y-349209D01*
X-242133D01*
X-240467Y-345044D02*
X-239634Y-344211D01*
X-237968D01*
X-237135Y-345044D01*
Y-345877D01*
X-237968Y-346710D01*
X-238801D01*
X-237968D01*
X-237135Y-347543D01*
Y-348376D01*
X-237968Y-349209D01*
X-239634D01*
X-240467Y-348376D01*
X-288645Y-344211D02*
Y-349209D01*
X-285313D01*
X-280315D02*
X-283647D01*
X-280315Y-345877D01*
Y-345044D01*
X-281148Y-344211D01*
X-282814D01*
X-283647Y-345044D01*
X-336072Y-344211D02*
Y-349209D01*
X-332740D01*
X-331074D02*
X-329408D01*
X-330241D01*
Y-344211D01*
X-331074Y-345044D01*
X-71953Y-271821D02*
X-73619D01*
X-72786D01*
Y-275986D01*
X-73619Y-276819D01*
X-74452D01*
X-75285Y-275986D01*
X-66955Y-271821D02*
X-70287D01*
Y-274320D01*
X-68621Y-273487D01*
X-67788D01*
X-66955Y-274320D01*
Y-275986D01*
X-67788Y-276819D01*
X-69454D01*
X-70287Y-275986D01*
X-372943Y-264201D02*
X-374609D01*
X-373776D01*
Y-268366D01*
X-374609Y-269199D01*
X-375442D01*
X-376275Y-268366D01*
X-368778Y-269199D02*
Y-264201D01*
X-371277Y-266700D01*
X-367945D01*
X-346710Y-24171D02*
X-348376D01*
X-347543D01*
Y-28336D01*
X-348376Y-29169D01*
X-349209D01*
X-350042Y-28336D01*
X-345044Y-29169D02*
X-343378D01*
X-344211D01*
Y-24171D01*
X-345044Y-25004D01*
X-128270Y-326431D02*
X-131602D01*
Y-328930D01*
X-129936D01*
X-131602D01*
Y-331429D01*
X-126604D02*
X-124938D01*
X-125771D01*
Y-326431D01*
X-126604Y-327264D01*
X-198953Y-305674D02*
X-199786Y-304841D01*
X-201452D01*
X-202285Y-305674D01*
Y-309006D01*
X-201452Y-309839D01*
X-199786D01*
X-198953Y-309006D01*
X-193955Y-304841D02*
X-195621Y-305674D01*
X-197287Y-307340D01*
Y-309006D01*
X-196454Y-309839D01*
X-194788D01*
X-193955Y-309006D01*
Y-308173D01*
X-194788Y-307340D01*
X-197287D01*
X-193873Y-372984D02*
X-194706Y-372151D01*
X-196372D01*
X-197205Y-372984D01*
Y-376316D01*
X-196372Y-377149D01*
X-194706D01*
X-193873Y-376316D01*
X-188875Y-372151D02*
X-192207D01*
Y-374650D01*
X-190541Y-373817D01*
X-189708D01*
X-188875Y-374650D01*
Y-376316D01*
X-189708Y-377149D01*
X-191374D01*
X-192207Y-376316D01*
X-183713Y-167244D02*
X-184546Y-166411D01*
X-186212D01*
X-187045Y-167244D01*
Y-170576D01*
X-186212Y-171409D01*
X-184546D01*
X-183713Y-170576D01*
X-179548Y-171409D02*
Y-166411D01*
X-182047Y-168910D01*
X-178715D01*
X-162123Y-155814D02*
X-162956Y-154981D01*
X-164622D01*
X-165455Y-155814D01*
Y-159146D01*
X-164622Y-159979D01*
X-162956D01*
X-162123Y-159146D01*
X-160457Y-155814D02*
X-159624Y-154981D01*
X-157958D01*
X-157125Y-155814D01*
Y-156647D01*
X-157958Y-157480D01*
X-158791D01*
X-157958D01*
X-157125Y-158313D01*
Y-159146D01*
X-157958Y-159979D01*
X-159624D01*
X-160457Y-159146D01*
X-190063Y-101204D02*
X-190896Y-100371D01*
X-192562D01*
X-193395Y-101204D01*
Y-104536D01*
X-192562Y-105369D01*
X-190896D01*
X-190063Y-104536D01*
X-185065Y-105369D02*
X-188397D01*
X-185065Y-102037D01*
Y-101204D01*
X-185898Y-100371D01*
X-187564D01*
X-188397Y-101204D01*
X-143510Y-27544D02*
X-144343Y-26711D01*
X-146009D01*
X-146842Y-27544D01*
Y-30876D01*
X-146009Y-31709D01*
X-144343D01*
X-143510Y-30876D01*
X-141844Y-31709D02*
X-140178D01*
X-141011D01*
Y-26711D01*
X-141844Y-27544D01*
M02*
