G04*
G04 #@! TF.GenerationSoftware,Altium Limited,Altium Designer,23.1.1 (15)*
G04*
G04 Layer_Physical_Order=2*
G04 Layer_Color=16711680*
%FSLAX44Y44*%
%MOMM*%
G71*
G04*
G04 #@! TF.SameCoordinates,F07AD2E6-3264-46D2-9BB4-269CB8441167*
G04*
G04*
G04 #@! TF.FilePolarity,Positive*
G04*
G01*
G75*
%ADD43C,1.8034*%
%ADD45C,1.5240*%
%ADD53C,0.4000*%
%ADD54C,0.5000*%
%ADD55C,1.5000*%
%ADD56R,1.8600X1.8600*%
%ADD57C,1.6500*%
%ADD58C,1.3080*%
%ADD59C,1.3208*%
%ADD60R,1.3080X1.3080*%
%ADD61C,1.8600*%
%ADD62C,2.1000*%
%ADD63C,2.0000*%
%ADD64C,2.6250*%
%ADD65C,1.4500*%
G36*
X-282690Y-50D02*
X-282204Y-1223D01*
X-332098Y-51118D01*
X-333759Y-50673D01*
X-336801D01*
X-339741Y-51461D01*
X-342376Y-52982D01*
X-344528Y-55134D01*
X-346049Y-57769D01*
X-346837Y-60708D01*
Y-63752D01*
X-346049Y-66691D01*
X-344528Y-69326D01*
X-342376Y-71478D01*
X-339741Y-72999D01*
X-336801Y-73787D01*
X-333759D01*
X-330819Y-72999D01*
X-328184Y-71478D01*
X-326032Y-69326D01*
X-324511Y-66691D01*
X-323723Y-63752D01*
Y-60708D01*
X-324168Y-59048D01*
X-273692Y-8573D01*
X-244612D01*
X-244086Y-9843D01*
X-245848Y-11604D01*
X-247562Y-14170D01*
X-248743Y-17021D01*
X-249345Y-20047D01*
Y-23133D01*
X-248743Y-26159D01*
X-247562Y-29010D01*
X-245848Y-31576D01*
X-243666Y-33758D01*
X-241100Y-35472D01*
X-238249Y-36653D01*
X-235223Y-37255D01*
X-234805D01*
X-234319Y-38428D01*
X-250091Y-54200D01*
X-263300D01*
Y-77880D01*
X-256693D01*
X-256352Y-79150D01*
X-257471Y-79796D01*
X-259294Y-81619D01*
X-260583Y-83851D01*
X-261250Y-86341D01*
Y-88919D01*
X-260583Y-91409D01*
X-259294Y-93641D01*
X-257471Y-95464D01*
X-255239Y-96753D01*
X-252749Y-97420D01*
X-250171D01*
X-249374Y-97206D01*
X-239696Y-106885D01*
X-237876Y-108101D01*
X-235730Y-108528D01*
X-214680D01*
X-212534Y-108101D01*
X-211999Y-107743D01*
X-211189Y-108730D01*
X-219526Y-117066D01*
X-221229Y-116610D01*
X-224070D01*
X-226815Y-117345D01*
X-229275Y-118766D01*
X-231284Y-120775D01*
X-232705Y-123235D01*
X-233440Y-125979D01*
Y-128820D01*
X-232705Y-131565D01*
X-231284Y-134025D01*
X-229275Y-136034D01*
X-226815Y-137455D01*
X-224070Y-138190D01*
X-221229D01*
X-218485Y-137455D01*
X-216025Y-136034D01*
X-214016Y-134025D01*
X-212595Y-131565D01*
X-211860Y-128820D01*
Y-125979D01*
X-212316Y-124276D01*
X-187265Y-99224D01*
X-186160Y-97570D01*
X-185772Y-95619D01*
Y-87571D01*
X-181378Y-83177D01*
X-180359Y-83450D01*
X-177781D01*
X-175291Y-82783D01*
X-173059Y-81494D01*
X-171236Y-79671D01*
X-169947Y-77439D01*
X-169280Y-74949D01*
Y-72371D01*
X-169947Y-69881D01*
X-171236Y-67649D01*
X-173059Y-65826D01*
X-174142Y-65201D01*
Y-63480D01*
X-174569Y-61334D01*
X-175784Y-59515D01*
X-199894Y-35405D01*
X-201714Y-34189D01*
X-203860Y-33762D01*
X-221903D01*
X-222429Y-32492D01*
X-221512Y-31576D01*
X-219798Y-29010D01*
X-218617Y-26159D01*
X-218015Y-23133D01*
Y-20047D01*
X-218617Y-17021D01*
X-219798Y-14170D01*
X-221512Y-11604D01*
X-223274Y-9843D01*
X-222748Y-8573D01*
X-215258D01*
X-196359Y-27471D01*
X-196480Y-27921D01*
Y-30499D01*
X-195813Y-32989D01*
X-194524Y-35221D01*
X-192701Y-37044D01*
X-190469Y-38333D01*
X-187979Y-39000D01*
X-185401D01*
X-182911Y-38333D01*
X-180679Y-37044D01*
X-178856Y-35221D01*
X-177567Y-32989D01*
X-176900Y-30499D01*
Y-27921D01*
X-177567Y-25431D01*
X-178856Y-23199D01*
X-180679Y-21376D01*
X-182911Y-20087D01*
X-185401Y-19420D01*
X-187979D01*
X-188429Y-19541D01*
X-206746Y-1223D01*
X-206260Y-50D01*
X-15190Y-50D01*
X-13574Y-50D01*
X-10403Y-681D01*
X-7417Y-1918D01*
X-4729Y-3714D01*
X-2444Y-5999D01*
X-648Y-8687D01*
X589Y-11674D01*
X1220Y-14844D01*
X1220Y-16460D01*
X1220Y-16460D01*
X1220Y-16460D01*
X1220Y-381050D01*
X1220Y-382921D01*
X490Y-386592D01*
X-942Y-390050D01*
X-3022Y-393162D01*
X-5668Y-395808D01*
X-8780Y-397888D01*
X-12238Y-399320D01*
X-15909Y-400050D01*
X-17780Y-400050D01*
X-379730D01*
X-381606Y-400050D01*
X-385287Y-399318D01*
X-388754Y-397882D01*
X-391874Y-395797D01*
X-394527Y-393144D01*
X-396612Y-390024D01*
X-398048Y-386557D01*
X-398780Y-382876D01*
X-398780Y-381000D01*
Y-17780D01*
Y-16034D01*
X-398099Y-12608D01*
X-396762Y-9382D01*
X-394822Y-6478D01*
X-392352Y-4008D01*
X-389448Y-2068D01*
X-386222Y-732D01*
X-382796Y-50D01*
X-381050D01*
X-381050Y-50D01*
X-282690Y-50D01*
D02*
G37*
%LPC*%
G36*
X-60908Y-12820D02*
X-60960D01*
Y-21590D01*
X-52190D01*
Y-21538D01*
X-52874Y-18985D01*
X-54196Y-16695D01*
X-56065Y-14826D01*
X-58355Y-13504D01*
X-60908Y-12820D01*
D02*
G37*
G36*
X-63500D02*
X-63552D01*
X-66105Y-13504D01*
X-68395Y-14826D01*
X-70264Y-16695D01*
X-71586Y-18985D01*
X-72270Y-21538D01*
Y-21590D01*
X-63500D01*
Y-12820D01*
D02*
G37*
G36*
X-13663Y-4840D02*
X-16338D01*
X-18922Y-5533D01*
X-21239Y-6870D01*
X-23130Y-8762D01*
X-24468Y-11079D01*
X-25160Y-13663D01*
Y-16338D01*
X-24468Y-18922D01*
X-23130Y-21239D01*
X-21239Y-23130D01*
X-18922Y-24468D01*
X-16338Y-25160D01*
X-13663D01*
X-11079Y-24468D01*
X-8762Y-23130D01*
X-6870Y-21239D01*
X-5533Y-18922D01*
X-4840Y-16338D01*
Y-13663D01*
X-5533Y-11079D01*
X-6870Y-8762D01*
X-8762Y-6870D01*
X-11079Y-5533D01*
X-13663Y-4840D01*
D02*
G37*
G36*
X-382442D02*
X-385117D01*
X-387701Y-5533D01*
X-390018Y-6870D01*
X-391910Y-8762D01*
X-393247Y-11079D01*
X-393940Y-13663D01*
Y-16338D01*
X-393247Y-18922D01*
X-391910Y-21239D01*
X-390018Y-23130D01*
X-387701Y-24468D01*
X-385117Y-25160D01*
X-382442D01*
X-379858Y-24468D01*
X-377541Y-23130D01*
X-375650Y-21239D01*
X-374312Y-18922D01*
X-373620Y-16338D01*
Y-13663D01*
X-374312Y-11079D01*
X-375650Y-8762D01*
X-377541Y-6870D01*
X-379858Y-5533D01*
X-382442Y-4840D01*
D02*
G37*
G36*
X-52190Y-24130D02*
X-60960D01*
Y-32900D01*
X-60908D01*
X-58355Y-32216D01*
X-56065Y-30894D01*
X-54196Y-29025D01*
X-52874Y-26735D01*
X-52190Y-24182D01*
Y-24130D01*
D02*
G37*
G36*
X-63500D02*
X-72270D01*
Y-24182D01*
X-71586Y-26735D01*
X-70264Y-29025D01*
X-68395Y-30894D01*
X-66105Y-32216D01*
X-63552Y-32900D01*
X-63500D01*
Y-24130D01*
D02*
G37*
G36*
X-96820Y-4762D02*
X-114605D01*
X-116556Y-5150D01*
X-118210Y-6255D01*
X-125825Y-13870D01*
X-126930Y-15524D01*
X-127318Y-17475D01*
Y-83789D01*
X-129201Y-84876D01*
X-131024Y-86699D01*
X-132313Y-88931D01*
X-132980Y-91421D01*
Y-93999D01*
X-132313Y-96489D01*
X-131024Y-98721D01*
X-129201Y-100544D01*
X-126969Y-101833D01*
X-124479Y-102500D01*
X-121901D01*
X-119411Y-101833D01*
X-117179Y-100544D01*
X-115356Y-98721D01*
X-114067Y-96489D01*
X-113400Y-93999D01*
Y-91421D01*
X-114067Y-88931D01*
X-115356Y-86699D01*
X-117122Y-84933D01*
Y-30816D01*
X-115949Y-30330D01*
X-115385Y-30894D01*
X-113095Y-32216D01*
X-110542Y-32900D01*
X-110490D01*
Y-22860D01*
X-109220D01*
Y-21590D01*
X-99180D01*
Y-21538D01*
X-99864Y-18985D01*
X-101186Y-16695D01*
X-101750Y-16131D01*
X-101264Y-14958D01*
X-98932D01*
X-93541Y-20348D01*
X-93860Y-21538D01*
Y-24182D01*
X-93176Y-26735D01*
X-91854Y-29025D01*
X-89985Y-30894D01*
X-87695Y-32216D01*
X-85142Y-32900D01*
X-82498D01*
X-79945Y-32216D01*
X-77655Y-30894D01*
X-75786Y-29025D01*
X-74464Y-26735D01*
X-73780Y-24182D01*
Y-21538D01*
X-74464Y-18985D01*
X-75786Y-16695D01*
X-77655Y-14826D01*
X-79945Y-13504D01*
X-82498Y-12820D01*
X-85142D01*
X-86332Y-13139D01*
X-93215Y-6255D01*
X-94869Y-5150D01*
X-96820Y-4762D01*
D02*
G37*
G36*
X-99180Y-24130D02*
X-107950D01*
Y-32900D01*
X-107898D01*
X-105345Y-32216D01*
X-103055Y-30894D01*
X-101186Y-29025D01*
X-99864Y-26735D01*
X-99180Y-24182D01*
Y-24130D01*
D02*
G37*
G36*
X-35508Y-12820D02*
X-38152D01*
X-40705Y-13504D01*
X-42995Y-14826D01*
X-44864Y-16695D01*
X-46186Y-18985D01*
X-46870Y-21538D01*
Y-24182D01*
X-46186Y-26735D01*
X-44864Y-29025D01*
X-42995Y-30894D01*
X-40705Y-32216D01*
X-38152Y-32900D01*
X-35508D01*
X-34318Y-32581D01*
X-20338Y-46562D01*
Y-55136D01*
X-21608Y-55477D01*
X-22646Y-53679D01*
X-24469Y-51856D01*
X-26701Y-50567D01*
X-29191Y-49900D01*
X-31769D01*
X-34259Y-50567D01*
X-36491Y-51856D01*
X-38314Y-53679D01*
X-39603Y-55911D01*
X-40270Y-58401D01*
Y-60979D01*
X-39603Y-63469D01*
X-38314Y-65701D01*
X-36491Y-67524D01*
X-34259Y-68813D01*
X-31769Y-69480D01*
X-29338D01*
Y-81552D01*
X-30608Y-81892D01*
X-31392Y-80534D01*
X-33544Y-78382D01*
X-36179Y-76861D01*
X-39118Y-76073D01*
X-39370D01*
Y-87630D01*
Y-99187D01*
X-39118D01*
X-36179Y-98399D01*
X-33544Y-96878D01*
X-31392Y-94726D01*
X-30608Y-93368D01*
X-29338Y-93708D01*
Y-108988D01*
X-30511Y-109474D01*
X-30979Y-109006D01*
X-33211Y-107717D01*
X-35701Y-107050D01*
X-38279D01*
X-40769Y-107717D01*
X-43001Y-109006D01*
X-44824Y-110829D01*
X-46113Y-113061D01*
X-46780Y-115551D01*
Y-118129D01*
X-46113Y-120619D01*
X-44824Y-122851D01*
X-43788Y-123887D01*
Y-127649D01*
X-43831Y-127661D01*
X-46466Y-129182D01*
X-48618Y-131334D01*
X-50139Y-133969D01*
X-50927Y-136909D01*
Y-139951D01*
X-50482Y-141612D01*
X-67994Y-159124D01*
X-68036Y-159134D01*
X-68592Y-159011D01*
X-69171Y-157605D01*
X-68347Y-156179D01*
X-67680Y-153689D01*
Y-153670D01*
X-77470D01*
Y-152400D01*
X-78740D01*
Y-142610D01*
X-78759D01*
X-81249Y-143277D01*
X-83481Y-144566D01*
X-85304Y-146389D01*
X-86593Y-148621D01*
X-87219Y-150956D01*
X-88266Y-151528D01*
X-88391Y-151580D01*
X-126548Y-113422D01*
X-128368Y-112207D01*
X-130513Y-111780D01*
X-133124D01*
X-134406Y-109559D01*
X-136229Y-107736D01*
X-138461Y-106447D01*
X-140951Y-105780D01*
X-143529D01*
X-146019Y-106447D01*
X-148251Y-107736D01*
X-150074Y-109559D01*
X-151363Y-111791D01*
X-152030Y-114281D01*
Y-116859D01*
X-151363Y-119349D01*
X-150074Y-121581D01*
X-148251Y-123404D01*
X-146019Y-124693D01*
X-143529Y-125360D01*
X-140951D01*
X-138461Y-124693D01*
X-136229Y-123404D01*
X-135820Y-122996D01*
X-132836D01*
X-131141Y-124691D01*
X-131667Y-125961D01*
X-133229D01*
X-135719Y-126628D01*
X-137952Y-127916D01*
X-139774Y-129739D01*
X-141063Y-131972D01*
X-141730Y-134462D01*
Y-134480D01*
X-131940D01*
Y-135751D01*
X-130670D01*
Y-145541D01*
X-130652D01*
X-128162Y-144873D01*
X-125929Y-143584D01*
X-124107Y-141762D01*
X-122818Y-139529D01*
X-122150Y-137039D01*
Y-135477D01*
X-120880Y-134951D01*
X-87953Y-167879D01*
X-88439Y-169052D01*
X-122080D01*
X-124031Y-169440D01*
X-125685Y-170545D01*
X-134584Y-179445D01*
X-134601Y-179440D01*
X-137179D01*
X-139669Y-180107D01*
X-141901Y-181396D01*
X-143724Y-183219D01*
X-145013Y-185451D01*
X-145680Y-187941D01*
Y-190519D01*
X-145013Y-193009D01*
X-143724Y-195241D01*
X-141901Y-197064D01*
X-139669Y-198353D01*
X-137179Y-199020D01*
X-134601D01*
X-132111Y-198353D01*
X-129879Y-197064D01*
X-128056Y-195241D01*
X-126767Y-193009D01*
X-126100Y-190519D01*
Y-187941D01*
X-126641Y-185921D01*
X-119968Y-179248D01*
X-58434D01*
X-57908Y-180518D01*
X-148385Y-270994D01*
X-149490Y-272648D01*
X-149878Y-274599D01*
Y-344170D01*
X-149490Y-346121D01*
X-148385Y-347775D01*
X-131437Y-364723D01*
X-131710Y-365741D01*
Y-368319D01*
X-131043Y-370809D01*
X-129754Y-373041D01*
X-127931Y-374864D01*
X-125699Y-376153D01*
X-123209Y-376820D01*
X-120631D01*
X-118141Y-376153D01*
X-115909Y-374864D01*
X-114086Y-373041D01*
X-112797Y-370809D01*
X-112130Y-368319D01*
Y-365741D01*
X-112797Y-363251D01*
X-114086Y-361019D01*
X-115909Y-359196D01*
X-118141Y-357907D01*
X-120631Y-357240D01*
X-123209D01*
X-124228Y-357513D01*
X-139682Y-342058D01*
Y-276711D01*
X-52411Y-189440D01*
X-51141Y-189966D01*
Y-191455D01*
X-50696Y-193115D01*
X-94135Y-236554D01*
X-95351Y-238373D01*
X-95778Y-240519D01*
Y-268852D01*
X-96753Y-270541D01*
X-97420Y-273031D01*
Y-275609D01*
X-96753Y-278099D01*
X-95464Y-280331D01*
X-93641Y-282154D01*
X-91409Y-283443D01*
X-88919Y-284110D01*
X-86341D01*
X-83851Y-283443D01*
X-81619Y-282154D01*
X-79796Y-280331D01*
X-78507Y-278099D01*
X-77840Y-275609D01*
Y-273031D01*
X-78507Y-270541D01*
X-79796Y-268309D01*
X-81619Y-266486D01*
X-83851Y-265197D01*
X-84562Y-265007D01*
Y-242842D01*
X-42766Y-201046D01*
X-41106Y-201490D01*
X-38063D01*
X-35123Y-200703D01*
X-32488Y-199181D01*
X-30336Y-197030D01*
X-28815Y-194394D01*
X-28027Y-191455D01*
Y-188412D01*
X-28815Y-185473D01*
X-30336Y-182837D01*
X-32488Y-180686D01*
X-35123Y-179164D01*
X-36653Y-178754D01*
X-36981Y-177528D01*
X-11635Y-152182D01*
X-10530Y-150528D01*
X-10142Y-148577D01*
Y-44450D01*
X-10530Y-42499D01*
X-11635Y-40845D01*
X-27109Y-25372D01*
X-26790Y-24182D01*
Y-21538D01*
X-27474Y-18985D01*
X-28796Y-16695D01*
X-30665Y-14826D01*
X-32955Y-13504D01*
X-35508Y-12820D01*
D02*
G37*
G36*
X-41910Y-76073D02*
X-42161D01*
X-45101Y-76861D01*
X-47736Y-78382D01*
X-49888Y-80534D01*
X-51409Y-83169D01*
X-52197Y-86109D01*
Y-86360D01*
X-41910D01*
Y-76073D01*
D02*
G37*
G36*
X-91421Y-80380D02*
X-91440D01*
Y-88900D01*
X-82920D01*
Y-88881D01*
X-83587Y-86391D01*
X-84876Y-84159D01*
X-86699Y-82336D01*
X-88931Y-81047D01*
X-91421Y-80380D01*
D02*
G37*
G36*
X-93980D02*
X-93999D01*
X-96489Y-81047D01*
X-98721Y-82336D01*
X-100544Y-84159D01*
X-101833Y-86391D01*
X-102500Y-88881D01*
Y-88900D01*
X-93980D01*
Y-80380D01*
D02*
G37*
G36*
X-41910Y-88900D02*
X-52197D01*
Y-89151D01*
X-51409Y-92091D01*
X-49888Y-94726D01*
X-47736Y-96878D01*
X-45101Y-98399D01*
X-42161Y-99187D01*
X-41910D01*
Y-88900D01*
D02*
G37*
G36*
X-82920Y-91440D02*
X-91440D01*
Y-99960D01*
X-91421D01*
X-88931Y-99293D01*
X-86699Y-98004D01*
X-84876Y-96181D01*
X-83587Y-93949D01*
X-82920Y-91459D01*
Y-91440D01*
D02*
G37*
G36*
X-93980D02*
X-102500D01*
Y-91459D01*
X-101833Y-93949D01*
X-100544Y-96181D01*
X-98721Y-98004D01*
X-96489Y-99293D01*
X-93999Y-99960D01*
X-93980D01*
Y-91440D01*
D02*
G37*
G36*
X-333759Y-101473D02*
X-334010D01*
Y-111760D01*
X-323723D01*
Y-111509D01*
X-324511Y-108569D01*
X-326032Y-105934D01*
X-328184Y-103782D01*
X-330819Y-102261D01*
X-333759Y-101473D01*
D02*
G37*
G36*
X-336550D02*
X-336801D01*
X-339741Y-102261D01*
X-342376Y-103782D01*
X-344528Y-105934D01*
X-346049Y-108569D01*
X-346837Y-111509D01*
Y-111760D01*
X-336550D01*
Y-101473D01*
D02*
G37*
G36*
X-323723Y-114300D02*
X-334010D01*
Y-124587D01*
X-333759D01*
X-330819Y-123799D01*
X-328184Y-122278D01*
X-326032Y-120126D01*
X-324511Y-117491D01*
X-323723Y-114551D01*
Y-114300D01*
D02*
G37*
G36*
X-336550D02*
X-346837D01*
Y-114551D01*
X-346049Y-117491D01*
X-344528Y-120126D01*
X-342376Y-122278D01*
X-339741Y-123799D01*
X-336801Y-124587D01*
X-336550D01*
Y-114300D01*
D02*
G37*
G36*
X-271230Y-116610D02*
X-274071D01*
X-276815Y-117345D01*
X-279275Y-118766D01*
X-281284Y-120775D01*
X-282705Y-123235D01*
X-283440Y-125979D01*
Y-128820D01*
X-282705Y-131565D01*
X-281284Y-134025D01*
X-279275Y-136034D01*
X-276815Y-137455D01*
X-274071Y-138190D01*
X-271230D01*
X-268485Y-137455D01*
X-266025Y-136034D01*
X-264016Y-134025D01*
X-262596Y-131565D01*
X-261860Y-128820D01*
Y-125979D01*
X-262596Y-123235D01*
X-264016Y-120775D01*
X-266025Y-118766D01*
X-268485Y-117345D01*
X-271230Y-116610D01*
D02*
G37*
G36*
X-133210Y-137021D02*
X-141730D01*
Y-137039D01*
X-141063Y-139529D01*
X-139774Y-141762D01*
X-137952Y-143584D01*
X-135719Y-144873D01*
X-133229Y-145541D01*
X-133210D01*
Y-137021D01*
D02*
G37*
G36*
X-76181Y-142610D02*
X-76200D01*
Y-151130D01*
X-67680D01*
Y-151111D01*
X-68347Y-148621D01*
X-69636Y-146389D01*
X-71459Y-144566D01*
X-73691Y-143277D01*
X-76181Y-142610D01*
D02*
G37*
G36*
X-369518Y-166490D02*
X-369570D01*
Y-175260D01*
X-360800D01*
Y-175208D01*
X-361484Y-172655D01*
X-362806Y-170365D01*
X-364675Y-168496D01*
X-366965Y-167174D01*
X-369518Y-166490D01*
D02*
G37*
G36*
X-372110D02*
X-372162D01*
X-374715Y-167174D01*
X-377005Y-168496D01*
X-378874Y-170365D01*
X-380196Y-172655D01*
X-380880Y-175208D01*
Y-175260D01*
X-372110D01*
Y-166490D01*
D02*
G37*
G36*
X-245999Y-139860D02*
X-249301D01*
X-252490Y-140715D01*
X-255350Y-142366D01*
X-257684Y-144700D01*
X-259335Y-147560D01*
X-260190Y-150749D01*
Y-154051D01*
X-259335Y-157240D01*
X-257684Y-160100D01*
X-255350Y-162435D01*
X-252731Y-163947D01*
X-252687Y-164867D01*
X-252801Y-165317D01*
X-255657Y-166966D01*
X-258085Y-169394D01*
X-259801Y-172367D01*
X-260690Y-175683D01*
Y-176130D01*
X-247650D01*
X-234610D01*
Y-175683D01*
X-235499Y-172367D01*
X-237215Y-169394D01*
X-239643Y-166966D01*
X-242499Y-165317D01*
X-242612Y-164867D01*
X-242570Y-163947D01*
X-239950Y-162435D01*
X-237616Y-160100D01*
X-235965Y-157240D01*
X-235110Y-154051D01*
Y-150749D01*
X-235965Y-147560D01*
X-237616Y-144700D01*
X-239950Y-142366D01*
X-242810Y-140715D01*
X-245999Y-139860D01*
D02*
G37*
G36*
X-162541Y-160390D02*
X-165119D01*
X-167609Y-161057D01*
X-169841Y-162346D01*
X-171664Y-164169D01*
X-172953Y-166401D01*
X-173620Y-168891D01*
Y-171469D01*
X-173347Y-172488D01*
X-185989Y-185130D01*
X-187094Y-186784D01*
X-187482Y-188734D01*
Y-194330D01*
X-200144Y-206992D01*
X-231669D01*
X-232196Y-206079D01*
X-234019Y-204256D01*
X-236251Y-202967D01*
X-238741Y-202300D01*
X-241319D01*
X-243809Y-202967D01*
X-246041Y-204256D01*
X-247864Y-206079D01*
X-249153Y-208311D01*
X-249820Y-210801D01*
Y-213379D01*
X-249153Y-215869D01*
X-247864Y-218101D01*
X-246041Y-219924D01*
X-243809Y-221213D01*
X-241319Y-221880D01*
X-238741D01*
X-236251Y-221213D01*
X-234019Y-219924D01*
X-232196Y-218101D01*
X-231669Y-217188D01*
X-198032D01*
X-196082Y-216800D01*
X-194428Y-215695D01*
X-178780Y-200047D01*
X-177675Y-198393D01*
X-177286Y-196442D01*
Y-190846D01*
X-166138Y-179697D01*
X-165119Y-179970D01*
X-162541D01*
X-160051Y-179303D01*
X-157819Y-178014D01*
X-155996Y-176191D01*
X-154707Y-173959D01*
X-154040Y-171469D01*
Y-168891D01*
X-154707Y-166401D01*
X-155996Y-164169D01*
X-157819Y-162346D01*
X-160051Y-161057D01*
X-162541Y-160390D01*
D02*
G37*
G36*
X-360800Y-177800D02*
X-369570D01*
Y-186570D01*
X-369518D01*
X-366965Y-185886D01*
X-364675Y-184564D01*
X-362806Y-182695D01*
X-361484Y-180405D01*
X-360800Y-177852D01*
Y-177800D01*
D02*
G37*
G36*
X-372110D02*
X-380880D01*
Y-177852D01*
X-380196Y-180405D01*
X-378874Y-182695D01*
X-377005Y-184564D01*
X-374715Y-185886D01*
X-372162Y-186570D01*
X-372110D01*
Y-177800D01*
D02*
G37*
G36*
X-234610Y-178670D02*
X-246380D01*
Y-190440D01*
X-245933D01*
X-242617Y-189552D01*
X-239643Y-187835D01*
X-237215Y-185407D01*
X-235499Y-182433D01*
X-234610Y-179117D01*
Y-178670D01*
D02*
G37*
G36*
X-248920D02*
X-260690D01*
Y-179117D01*
X-259801Y-182433D01*
X-258085Y-185407D01*
X-255657Y-187835D01*
X-252683Y-189552D01*
X-249367Y-190440D01*
X-248920D01*
Y-178670D01*
D02*
G37*
G36*
X-369518Y-191890D02*
X-372162D01*
X-374715Y-192574D01*
X-377005Y-193896D01*
X-378874Y-195765D01*
X-380196Y-198055D01*
X-380880Y-200608D01*
Y-203252D01*
X-380196Y-205805D01*
X-378874Y-208095D01*
X-377005Y-209964D01*
X-374715Y-211286D01*
X-372162Y-211970D01*
X-369518D01*
X-366965Y-211286D01*
X-364675Y-209964D01*
X-362806Y-208095D01*
X-362557Y-207663D01*
X-335118D01*
X-334224Y-209211D01*
X-332401Y-211034D01*
X-330169Y-212323D01*
X-327679Y-212990D01*
X-325101D01*
X-322611Y-212323D01*
X-320379Y-211034D01*
X-318556Y-209211D01*
X-317267Y-206979D01*
X-316600Y-204489D01*
Y-201911D01*
X-317267Y-199421D01*
X-318556Y-197189D01*
X-320379Y-195366D01*
X-322611Y-194077D01*
X-325101Y-193410D01*
X-327679D01*
X-330169Y-194077D01*
X-332401Y-195366D01*
X-334224Y-197189D01*
X-334385Y-197467D01*
X-361824D01*
X-362806Y-195765D01*
X-364675Y-193896D01*
X-366965Y-192574D01*
X-369518Y-191890D01*
D02*
G37*
G36*
Y-213480D02*
X-372162D01*
X-374715Y-214164D01*
X-377005Y-215486D01*
X-378874Y-217355D01*
X-380196Y-219645D01*
X-380880Y-222198D01*
Y-224842D01*
X-380196Y-227395D01*
X-378874Y-229685D01*
X-377005Y-231554D01*
X-374715Y-232876D01*
X-372162Y-233560D01*
X-369518D01*
X-366965Y-232876D01*
X-364675Y-231554D01*
X-362806Y-229685D01*
X-362190Y-228618D01*
X-340773D01*
X-337186Y-232205D01*
X-335532Y-233310D01*
X-333581Y-233698D01*
X-308081D01*
X-307554Y-234611D01*
X-305731Y-236434D01*
X-303499Y-237723D01*
X-301009Y-238390D01*
X-298431D01*
X-295941Y-237723D01*
X-293709Y-236434D01*
X-291886Y-234611D01*
X-290597Y-232379D01*
X-289930Y-229889D01*
Y-227311D01*
X-290597Y-224821D01*
X-291886Y-222589D01*
X-293709Y-220766D01*
X-295941Y-219477D01*
X-298431Y-218810D01*
X-301009D01*
X-303499Y-219477D01*
X-305731Y-220766D01*
X-307554Y-222589D01*
X-308081Y-223502D01*
X-331470D01*
X-335056Y-219915D01*
X-336710Y-218810D01*
X-338661Y-218422D01*
X-362190D01*
X-362806Y-217355D01*
X-364675Y-215486D01*
X-366965Y-214164D01*
X-369518Y-213480D01*
D02*
G37*
G36*
Y-238880D02*
X-369570D01*
Y-247650D01*
X-360800D01*
Y-247598D01*
X-361484Y-245045D01*
X-362806Y-242755D01*
X-364675Y-240886D01*
X-366965Y-239564D01*
X-369518Y-238880D01*
D02*
G37*
G36*
X-372110D02*
X-372162D01*
X-374715Y-239564D01*
X-377005Y-240886D01*
X-378874Y-242755D01*
X-380196Y-245045D01*
X-380880Y-247598D01*
Y-247650D01*
X-372110D01*
Y-238880D01*
D02*
G37*
G36*
X-360800Y-250190D02*
X-369570D01*
Y-258960D01*
X-369518D01*
X-366965Y-258276D01*
X-364675Y-256954D01*
X-362806Y-255085D01*
X-361484Y-252795D01*
X-360800Y-250242D01*
Y-250190D01*
D02*
G37*
G36*
X-372110D02*
X-380880D01*
Y-250242D01*
X-380196Y-252795D01*
X-378874Y-255085D01*
X-377005Y-256954D01*
X-374715Y-258276D01*
X-372162Y-258960D01*
X-372110D01*
Y-250190D01*
D02*
G37*
G36*
X-328911Y-273420D02*
X-331489D01*
X-333979Y-274087D01*
X-336211Y-275376D01*
X-338034Y-277199D01*
X-338267Y-277602D01*
X-357509D01*
X-359655Y-278029D01*
X-361474Y-279245D01*
X-367913Y-285684D01*
X-368375Y-285560D01*
X-370765D01*
X-373075Y-286179D01*
X-375145Y-287374D01*
X-376836Y-289065D01*
X-378031Y-291135D01*
X-378650Y-293445D01*
Y-295835D01*
X-378031Y-298145D01*
X-376836Y-300215D01*
X-375145Y-301906D01*
X-373075Y-303101D01*
X-370765Y-303720D01*
X-368375D01*
X-366065Y-303101D01*
X-363995Y-301906D01*
X-362304Y-300215D01*
X-361109Y-298145D01*
X-360490Y-295835D01*
Y-294121D01*
X-355186Y-288818D01*
X-338267D01*
X-338034Y-289221D01*
X-336211Y-291044D01*
X-333979Y-292333D01*
X-331489Y-293000D01*
X-328911D01*
X-326421Y-292333D01*
X-324189Y-291044D01*
X-322366Y-289221D01*
X-321077Y-286989D01*
X-320410Y-284499D01*
Y-281921D01*
X-321077Y-279431D01*
X-322366Y-277199D01*
X-324189Y-275376D01*
X-326421Y-274087D01*
X-328911Y-273420D01*
D02*
G37*
G36*
X-163811Y-269610D02*
X-166389D01*
X-168879Y-270277D01*
X-171111Y-271566D01*
X-172934Y-273389D01*
X-174223Y-275621D01*
X-174890Y-278111D01*
Y-280689D01*
X-174617Y-281707D01*
X-189039Y-296129D01*
X-190144Y-297783D01*
X-190532Y-299734D01*
Y-310393D01*
X-209680Y-329542D01*
X-362029D01*
X-362304Y-329065D01*
X-363995Y-327374D01*
X-366065Y-326179D01*
X-368375Y-325560D01*
X-370765D01*
X-373075Y-326179D01*
X-375145Y-327374D01*
X-376836Y-329065D01*
X-378031Y-331135D01*
X-378650Y-333445D01*
Y-335835D01*
X-378031Y-338145D01*
X-376836Y-340215D01*
X-375145Y-341906D01*
X-373075Y-343101D01*
X-370765Y-343720D01*
X-368375D01*
X-366065Y-343101D01*
X-363995Y-341906D01*
X-362304Y-340215D01*
X-362029Y-339738D01*
X-207569D01*
X-205618Y-339350D01*
X-203964Y-338245D01*
X-181829Y-316110D01*
X-180724Y-314456D01*
X-180336Y-312505D01*
Y-301845D01*
X-167407Y-288917D01*
X-166389Y-289190D01*
X-163811D01*
X-161321Y-288523D01*
X-159089Y-287234D01*
X-157266Y-285411D01*
X-155977Y-283179D01*
X-155310Y-280689D01*
Y-278111D01*
X-155977Y-275621D01*
X-157266Y-273389D01*
X-159089Y-271566D01*
X-161321Y-270277D01*
X-163811Y-269610D01*
D02*
G37*
G36*
X-15221Y-169280D02*
X-17799D01*
X-20289Y-169947D01*
X-22521Y-171236D01*
X-24344Y-173059D01*
X-25633Y-175291D01*
X-26300Y-177781D01*
Y-180359D01*
X-25633Y-182849D01*
X-24344Y-185081D01*
X-22521Y-186904D01*
X-22118Y-187137D01*
Y-277977D01*
X-26370Y-282230D01*
X-36600D01*
Y-300390D01*
X-18440D01*
Y-290161D01*
X-12545Y-284265D01*
X-11329Y-282446D01*
X-10902Y-280300D01*
Y-187137D01*
X-10499Y-186904D01*
X-8676Y-185081D01*
X-7387Y-182849D01*
X-6720Y-180359D01*
Y-177781D01*
X-7387Y-175291D01*
X-8676Y-173059D01*
X-10499Y-171236D01*
X-12731Y-169947D01*
X-15221Y-169280D01*
D02*
G37*
G36*
X-26250Y-302250D02*
Y-310040D01*
X-18460D01*
X-19059Y-307805D01*
X-20254Y-305735D01*
X-21945Y-304044D01*
X-24015Y-302849D01*
X-26250Y-302250D01*
D02*
G37*
G36*
X-28790D02*
X-31025Y-302849D01*
X-33095Y-304044D01*
X-34786Y-305735D01*
X-35981Y-307805D01*
X-36580Y-310040D01*
X-28790D01*
Y-302250D01*
D02*
G37*
G36*
X-210801Y-302630D02*
X-210820D01*
Y-311150D01*
X-202300D01*
Y-311131D01*
X-202967Y-308641D01*
X-204256Y-306409D01*
X-206079Y-304586D01*
X-208311Y-303297D01*
X-210801Y-302630D01*
D02*
G37*
G36*
X-213360D02*
X-213379D01*
X-215869Y-303297D01*
X-218101Y-304586D01*
X-219924Y-306409D01*
X-221213Y-308641D01*
X-221880Y-311131D01*
Y-311150D01*
X-213360D01*
Y-302630D01*
D02*
G37*
G36*
X-368300Y-305580D02*
Y-313370D01*
X-360510D01*
X-361109Y-311135D01*
X-362304Y-309065D01*
X-363995Y-307374D01*
X-366065Y-306179D01*
X-368300Y-305580D01*
D02*
G37*
G36*
X-370840D02*
X-373075Y-306179D01*
X-375145Y-307374D01*
X-376836Y-309065D01*
X-378031Y-311135D01*
X-378630Y-313370D01*
X-370840D01*
Y-305580D01*
D02*
G37*
G36*
X-18460Y-312580D02*
X-26250D01*
Y-320370D01*
X-24015Y-319771D01*
X-21945Y-318576D01*
X-20254Y-316885D01*
X-19059Y-314815D01*
X-18460Y-312580D01*
D02*
G37*
G36*
X-124441Y-306440D02*
X-127019D01*
X-129509Y-307107D01*
X-131741Y-308396D01*
X-133564Y-310219D01*
X-134853Y-312451D01*
X-135520Y-314941D01*
Y-317519D01*
X-134853Y-320009D01*
X-133564Y-322241D01*
X-131741Y-324064D01*
X-129509Y-325353D01*
X-127019Y-326020D01*
X-124441D01*
X-121951Y-325353D01*
X-119719Y-324064D01*
X-117896Y-322241D01*
X-117369Y-321328D01*
X-44711D01*
X-36457Y-329582D01*
X-36600Y-330115D01*
Y-332505D01*
X-35981Y-334815D01*
X-34786Y-336885D01*
X-34599Y-337072D01*
X-35409Y-338058D01*
X-36292Y-337468D01*
X-38243Y-337080D01*
X-42413D01*
X-42808Y-335602D01*
X-44097Y-333370D01*
X-45920Y-331547D01*
X-48152Y-330258D01*
X-50642Y-329591D01*
X-53220D01*
X-55710Y-330258D01*
X-57942Y-331547D01*
X-59765Y-333370D01*
X-61054Y-335602D01*
X-61721Y-338092D01*
Y-340670D01*
X-61054Y-343160D01*
X-59765Y-345392D01*
X-57942Y-347215D01*
X-55710Y-348504D01*
X-53220Y-349171D01*
X-50642D01*
X-48152Y-348504D01*
X-46025Y-347276D01*
X-40355D01*
X-36600Y-351031D01*
Y-352505D01*
X-35981Y-354815D01*
X-34786Y-356885D01*
X-33095Y-358576D01*
X-31025Y-359771D01*
X-28715Y-360390D01*
X-26325D01*
X-24015Y-359771D01*
X-21945Y-358576D01*
X-20254Y-356885D01*
X-19059Y-354815D01*
X-18440Y-352505D01*
Y-350115D01*
X-19059Y-347805D01*
X-20254Y-345735D01*
X-21945Y-344044D01*
X-24015Y-342849D01*
X-26325Y-342230D01*
X-28715D01*
X-30503Y-342709D01*
X-33270Y-339941D01*
X-32490Y-338925D01*
X-31025Y-339771D01*
X-28715Y-340390D01*
X-26325D01*
X-24015Y-339771D01*
X-21945Y-338576D01*
X-20254Y-336885D01*
X-19059Y-334815D01*
X-18440Y-332505D01*
Y-330115D01*
X-19059Y-327805D01*
X-20254Y-325735D01*
X-21945Y-324044D01*
X-24015Y-322849D01*
X-26325Y-322230D01*
X-28715D01*
X-29248Y-322373D01*
X-30355Y-321265D01*
X-29697Y-320127D01*
X-28790Y-320370D01*
Y-312580D01*
X-36580D01*
X-36337Y-313487D01*
X-37475Y-314145D01*
X-38995Y-312625D01*
X-40649Y-311520D01*
X-42600Y-311132D01*
X-117369D01*
X-117896Y-310219D01*
X-119719Y-308396D01*
X-121951Y-307107D01*
X-124441Y-306440D01*
D02*
G37*
G36*
X-202300Y-313690D02*
X-210820D01*
Y-322210D01*
X-210801D01*
X-208311Y-321543D01*
X-206079Y-320254D01*
X-204256Y-318431D01*
X-202967Y-316199D01*
X-202300Y-313709D01*
Y-313690D01*
D02*
G37*
G36*
X-213360D02*
X-221880D01*
Y-313709D01*
X-221213Y-316199D01*
X-219924Y-318431D01*
X-218101Y-320254D01*
X-215869Y-321543D01*
X-213379Y-322210D01*
X-213360D01*
Y-313690D01*
D02*
G37*
G36*
X-360510Y-315910D02*
X-368300D01*
Y-323700D01*
X-366065Y-323101D01*
X-363995Y-321906D01*
X-362304Y-320215D01*
X-361109Y-318145D01*
X-360510Y-315910D01*
D02*
G37*
G36*
X-370840D02*
X-378630D01*
X-378031Y-318145D01*
X-376836Y-320215D01*
X-375145Y-321906D01*
X-373075Y-323101D01*
X-370840Y-323700D01*
Y-315910D01*
D02*
G37*
G36*
X-179890Y-343332D02*
X-309666D01*
X-311616Y-343720D01*
X-313270Y-344825D01*
X-317832Y-349387D01*
X-360490D01*
Y-345560D01*
X-378650D01*
Y-363720D01*
X-360490D01*
Y-359583D01*
X-342642D01*
X-342301Y-360853D01*
X-343831Y-361736D01*
X-345654Y-363559D01*
X-346943Y-365791D01*
X-347610Y-368281D01*
Y-370859D01*
X-346943Y-373349D01*
X-345654Y-375581D01*
X-343831Y-377404D01*
X-341599Y-378693D01*
X-339109Y-379360D01*
X-336531D01*
X-334041Y-378693D01*
X-331809Y-377404D01*
X-331408Y-377003D01*
X-328507D01*
X-327357Y-378994D01*
X-325654Y-380697D01*
X-323569Y-381901D01*
X-321244Y-382524D01*
X-318836D01*
X-316511Y-381901D01*
X-314426Y-380697D01*
X-312723Y-378994D01*
X-311519Y-376909D01*
X-310896Y-374584D01*
Y-372176D01*
X-311519Y-369851D01*
X-312723Y-367766D01*
X-314426Y-366063D01*
X-316511Y-364859D01*
X-318836Y-364236D01*
X-321244D01*
X-323569Y-364859D01*
X-325654Y-366063D01*
X-326398Y-366807D01*
X-328425D01*
X-328697Y-365791D01*
X-329986Y-363559D01*
X-331809Y-361736D01*
X-333339Y-360853D01*
X-332998Y-359583D01*
X-315720D01*
X-313769Y-359195D01*
X-312116Y-358090D01*
X-307554Y-353528D01*
X-273736D01*
X-273631Y-353781D01*
X-273339Y-354798D01*
X-274553Y-356901D01*
X-275220Y-359391D01*
Y-361969D01*
X-274813Y-363488D01*
X-276851Y-365526D01*
X-276926Y-365506D01*
X-279334D01*
X-281660Y-366129D01*
X-283745Y-367333D01*
X-285242Y-368830D01*
X-286169Y-368880D01*
X-286752Y-368755D01*
X-287323Y-367766D01*
X-289025Y-366063D01*
X-291110Y-364859D01*
X-293370Y-364254D01*
Y-373380D01*
Y-382506D01*
X-291110Y-381901D01*
X-289025Y-380697D01*
X-287528Y-379200D01*
X-286601Y-379150D01*
X-286018Y-379275D01*
X-285447Y-380265D01*
X-283745Y-381967D01*
X-281660Y-383171D01*
X-279334Y-383794D01*
X-276926D01*
X-274601Y-383171D01*
X-272516Y-381967D01*
X-270813Y-380265D01*
X-269609Y-378180D01*
X-268986Y-375854D01*
Y-373446D01*
X-269275Y-372369D01*
X-267237Y-370331D01*
X-266719Y-370470D01*
X-264141D01*
X-262012Y-369900D01*
X-261221Y-370731D01*
X-261134Y-370918D01*
X-261251Y-371120D01*
X-261856Y-373380D01*
X-254000D01*
Y-365524D01*
X-255722Y-365985D01*
X-256559Y-364894D01*
X-256307Y-364459D01*
X-255640Y-361969D01*
Y-359391D01*
X-256307Y-356901D01*
X-257521Y-354798D01*
X-257229Y-353781D01*
X-257124Y-353528D01*
X-226929D01*
X-226403Y-354798D01*
X-227544Y-355939D01*
X-228833Y-358171D01*
X-229500Y-360661D01*
Y-363239D01*
X-229227Y-364258D01*
X-231900Y-366930D01*
X-232476Y-366776D01*
X-234884D01*
X-237209Y-367399D01*
X-239294Y-368603D01*
X-240997Y-370305D01*
X-242201Y-372391D01*
X-242377Y-373050D01*
X-243692D01*
X-244209Y-371120D01*
X-245413Y-369035D01*
X-247115Y-367333D01*
X-249200Y-366129D01*
X-251460Y-365524D01*
Y-374650D01*
Y-383776D01*
X-249200Y-383171D01*
X-247115Y-381967D01*
X-245413Y-380265D01*
X-244209Y-378180D01*
X-244033Y-377520D01*
X-242718D01*
X-242201Y-379450D01*
X-240997Y-381535D01*
X-239294Y-383237D01*
X-237209Y-384441D01*
X-234884Y-385064D01*
X-232476D01*
X-230151Y-384441D01*
X-228065Y-383237D01*
X-226363Y-381535D01*
X-225159Y-379450D01*
X-224536Y-377124D01*
Y-374716D01*
X-224690Y-374140D01*
X-222017Y-371467D01*
X-220999Y-371740D01*
X-218421D01*
X-217615Y-371524D01*
X-216867Y-372638D01*
X-217406Y-374650D01*
X-209550D01*
Y-366794D01*
X-209902Y-366888D01*
X-210675Y-365880D01*
X-210587Y-365729D01*
X-209920Y-363239D01*
Y-360661D01*
X-210587Y-358171D01*
X-211876Y-355939D01*
X-213017Y-354798D01*
X-212491Y-353528D01*
X-182002D01*
X-176877Y-358653D01*
X-177409Y-360641D01*
Y-363218D01*
X-176742Y-365708D01*
X-175453Y-367941D01*
X-173631Y-369763D01*
X-171398Y-371052D01*
X-168908Y-371719D01*
X-166331D01*
X-163841Y-371052D01*
X-161608Y-369763D01*
X-159785Y-367941D01*
X-158497Y-365708D01*
X-157829Y-363218D01*
Y-360641D01*
X-158497Y-358151D01*
X-159785Y-355918D01*
X-161608Y-354095D01*
X-163841Y-352807D01*
X-166331Y-352139D01*
X-168908D01*
X-168958Y-352153D01*
X-176285Y-344825D01*
X-177939Y-343720D01*
X-179890Y-343332D01*
D02*
G37*
G36*
X-295910Y-364254D02*
X-298169Y-364859D01*
X-300254Y-366063D01*
X-301957Y-367766D01*
X-303161Y-369851D01*
X-303766Y-372110D01*
X-295910D01*
Y-364254D01*
D02*
G37*
G36*
X-207010Y-366794D02*
Y-374650D01*
X-199154D01*
X-199759Y-372391D01*
X-200963Y-370305D01*
X-202666Y-368603D01*
X-204750Y-367399D01*
X-207010Y-366794D01*
D02*
G37*
G36*
X-295910Y-374650D02*
X-303766D01*
X-303161Y-376909D01*
X-301957Y-378994D01*
X-300254Y-380697D01*
X-298169Y-381901D01*
X-295910Y-382506D01*
Y-374650D01*
D02*
G37*
G36*
X-254000Y-375920D02*
X-261856D01*
X-261251Y-378180D01*
X-260047Y-380265D01*
X-258344Y-381967D01*
X-256259Y-383171D01*
X-254000Y-383776D01*
Y-375920D01*
D02*
G37*
G36*
X-199154Y-377190D02*
X-207010D01*
Y-385046D01*
X-204750Y-384441D01*
X-202666Y-383237D01*
X-200963Y-381535D01*
X-199759Y-379450D01*
X-199154Y-377190D01*
D02*
G37*
G36*
X-209550D02*
X-217406D01*
X-216801Y-379450D01*
X-215597Y-381535D01*
X-213895Y-383237D01*
X-211810Y-384441D01*
X-209550Y-385046D01*
Y-377190D01*
D02*
G37*
G36*
X-187941Y-377560D02*
X-187960D01*
Y-386080D01*
X-179440D01*
Y-386061D01*
X-180107Y-383571D01*
X-181396Y-381339D01*
X-183219Y-379516D01*
X-185451Y-378227D01*
X-187941Y-377560D01*
D02*
G37*
G36*
X-190500D02*
X-190519D01*
X-193009Y-378227D01*
X-195241Y-379516D01*
X-197064Y-381339D01*
X-198353Y-383571D01*
X-199020Y-386061D01*
Y-386080D01*
X-190500D01*
Y-377560D01*
D02*
G37*
G36*
X-12442Y-374890D02*
X-15118D01*
X-17702Y-375582D01*
X-20018Y-376920D01*
X-21910Y-378811D01*
X-23248Y-381128D01*
X-23940Y-383712D01*
Y-386387D01*
X-23248Y-388971D01*
X-21910Y-391288D01*
X-20018Y-393180D01*
X-17702Y-394517D01*
X-15118Y-395210D01*
X-12442D01*
X-9858Y-394517D01*
X-7542Y-393180D01*
X-5650Y-391288D01*
X-4312Y-388971D01*
X-3620Y-386387D01*
Y-383712D01*
X-4312Y-381128D01*
X-5650Y-378811D01*
X-7542Y-376920D01*
X-9858Y-375582D01*
X-12442Y-374890D01*
D02*
G37*
G36*
X-382442D02*
X-385117D01*
X-387701Y-375582D01*
X-390018Y-376920D01*
X-391910Y-378811D01*
X-393247Y-381128D01*
X-393940Y-383712D01*
Y-386387D01*
X-393247Y-388971D01*
X-391910Y-391288D01*
X-390018Y-393180D01*
X-387701Y-394517D01*
X-385117Y-395210D01*
X-382442D01*
X-379858Y-394517D01*
X-377541Y-393180D01*
X-375650Y-391288D01*
X-374312Y-388971D01*
X-373620Y-386387D01*
Y-383712D01*
X-374312Y-381128D01*
X-375650Y-378811D01*
X-377541Y-376920D01*
X-379858Y-375582D01*
X-382442Y-374890D01*
D02*
G37*
G36*
X-179440Y-388620D02*
X-187960D01*
Y-397140D01*
X-187941D01*
X-185451Y-396473D01*
X-183219Y-395184D01*
X-181396Y-393361D01*
X-180107Y-391129D01*
X-179440Y-388639D01*
Y-388620D01*
D02*
G37*
G36*
X-190500D02*
X-199020D01*
Y-388639D01*
X-198353Y-391129D01*
X-197064Y-393361D01*
X-195241Y-395184D01*
X-193009Y-396473D01*
X-190519Y-397140D01*
X-190500D01*
Y-388620D01*
D02*
G37*
%LPD*%
D43*
X-39584Y-189933D02*
D03*
X-39370Y-138430D02*
D03*
X-40640Y-87630D02*
D03*
X-335280Y-62230D02*
D03*
Y-113030D02*
D03*
D45*
X-15000Y-15000D02*
D03*
X-383780D02*
D03*
X-13780Y-385050D02*
D03*
X-383780D02*
D03*
D53*
X-185434Y-312505D02*
Y-299734D01*
X-165100Y-279400D01*
X-207569Y-334640D02*
X-185434Y-312505D01*
X-167619Y-361929D02*
Y-360701D01*
X-179890Y-348430D02*
X-167619Y-360701D01*
X-278130Y-374015D02*
X-265430Y-361315D01*
X-369415Y-354485D02*
X-315720D01*
X-278130Y-374650D02*
Y-374015D01*
X-265430Y-361315D02*
Y-360680D01*
X-315720Y-354485D02*
X-309666Y-348430D01*
X-179890D01*
X-337820Y-369570D02*
X-334979D01*
X-321706Y-371905D02*
X-321610Y-371810D01*
X-334979Y-369570D02*
X-332644Y-371905D01*
X-321706D01*
X-233680Y-375920D02*
X-219710Y-361950D01*
X-369570Y-334640D02*
X-207569D01*
X-122220Y-91740D02*
Y-17475D01*
X-123190Y-92710D02*
X-122220Y-91740D01*
X-182384Y-188734D02*
X-163830Y-170180D01*
X-182384Y-196442D02*
Y-188734D01*
X-369570Y-227330D02*
X-365760Y-223520D01*
X-198032Y-212090D02*
X-182384Y-196442D01*
X-240030Y-212090D02*
X-198032D01*
X-135890Y-189230D02*
Y-187960D01*
X-122080Y-174150D01*
X-190870Y-95619D02*
Y-85459D01*
X-179070Y-73660D01*
X-222650Y-127400D02*
X-190870Y-95619D01*
X-321610Y-371810D02*
X-320040Y-373380D01*
X-369570Y-354640D02*
X-369415Y-354485D01*
X-365760Y-223520D02*
X-338661D01*
X-333581Y-228600D01*
X-299720D01*
X-45792Y-166370D02*
X-24240Y-144818D01*
X-42080Y-175417D02*
X-15240Y-148577D01*
X-144780Y-344170D02*
Y-274599D01*
X-45597Y-175417D01*
X-125730Y-316230D02*
X-42600D01*
X-27520Y-331310D01*
X-46564Y-342178D02*
X-38243D01*
X-45597Y-175417D02*
X-42080D01*
X-38243Y-342178D02*
X-29111Y-351310D01*
X-327025Y-202565D02*
X-326390Y-203200D01*
X-370205Y-202565D02*
X-327025D01*
X-370840Y-201930D02*
X-370205Y-202565D01*
X-144780Y-344170D02*
X-121920Y-367030D01*
X-96820Y-9860D02*
X-83820Y-22860D01*
X-114605Y-9860D02*
X-96820D01*
X-122220Y-17475D02*
X-114605Y-9860D01*
X-29111Y-351310D02*
X-27520D01*
X-57059Y-174150D02*
X-49279Y-166370D01*
X-122080Y-174150D02*
X-57059D01*
X-49279Y-166370D02*
X-45792D01*
X-36830Y-22860D02*
X-15240Y-44450D01*
Y-148577D02*
Y-44450D01*
X-24980Y-62619D02*
X-24240D01*
X-27909Y-59690D02*
X-24980Y-62619D01*
X-24240Y-144818D02*
Y-62619D01*
X-30480Y-59690D02*
X-27909D01*
D54*
X-368460Y-313530D02*
X-213200D01*
X-212090Y-312420D01*
X-369570Y-314640D02*
X-368460Y-313530D01*
X-214680Y-102920D02*
X-200660Y-88900D01*
X-235730Y-102920D02*
X-214680D01*
X-224790Y-88900D02*
X-223520Y-90170D01*
X-251020Y-87630D02*
X-235730Y-102920D01*
X-224790Y-88900D02*
Y-64770D01*
X-207558Y-375920D02*
X-197946Y-385532D01*
X-208280Y-375920D02*
X-207558D01*
X-197946Y-385532D02*
X-191048D01*
X-189230Y-387350D01*
X-251460Y-87630D02*
X-251020D01*
X-200660Y-88900D02*
Y-63500D01*
X-203860Y-39370D02*
X-179750Y-63480D01*
Y-72980D02*
Y-63480D01*
Y-72980D02*
X-179070Y-73660D01*
X-228175Y-40215D02*
X-224695D01*
X-251460Y-63500D02*
X-228175Y-40215D01*
X-224695D02*
X-223850Y-39370D01*
X-203860D01*
X-276015Y-2965D02*
X-212935D01*
X-186690Y-29210D01*
X-335280Y-62230D02*
X-276015Y-2965D01*
X-90170Y-271780D02*
X-87630Y-274320D01*
X-42691Y-193040D02*
X-36830D01*
X-90170Y-271780D02*
Y-240519D01*
X-42691Y-193040D01*
X-369570Y-294640D02*
X-368939D01*
X-357509Y-283210D01*
X-330200D01*
X-27520Y-291310D02*
X-16510Y-280300D01*
Y-179070D01*
X-142240Y-115570D02*
X-140422Y-117388D01*
X-130513D01*
X-82751Y-165150D01*
X-38180Y-118030D02*
X-36990Y-116840D01*
X-82751Y-165150D02*
X-66090D01*
X-38180Y-137240D02*
Y-118030D01*
X-66090Y-165150D02*
X-38180Y-137240D01*
X-62230Y-66040D02*
Y-22860D01*
Y-66040D02*
X-40640Y-87630D01*
X-78740Y-125730D02*
X-40640Y-87630D01*
X-78740Y-151130D02*
X-77470Y-152400D01*
X-78740Y-151130D02*
Y-125730D01*
X-27520Y-311310D02*
X-11430Y-327400D01*
Y-364490D02*
Y-327400D01*
X-19215Y-371930D02*
X-18870D01*
X-11430Y-364490D01*
X-34635Y-387350D02*
X-19215Y-371930D01*
X-189230Y-387350D02*
X-34635D01*
X-381610Y-302600D02*
X-369570Y-314640D01*
X-381610Y-302600D02*
Y-259690D01*
X-370840Y-248920D01*
X-220384Y-388024D02*
X-208280Y-375920D01*
X-239356Y-388024D02*
X-220384D01*
X-252730Y-374650D02*
X-239356Y-388024D01*
X-109220Y-22860D02*
X-92710Y-39370D01*
X-264834Y-386754D02*
X-252730Y-374650D01*
X-92710Y-90170D02*
Y-39370D01*
X-283144Y-386754D02*
X-264834D01*
X-294640Y-375258D02*
Y-373380D01*
Y-375258D02*
X-283144Y-386754D01*
X-306744Y-385484D02*
X-294640Y-373380D01*
X-363816Y-385484D02*
X-306744D01*
X-390610Y-358690D02*
X-363816Y-385484D01*
X-390610Y-358690D02*
Y-192490D01*
X-132080Y-135890D02*
X-131940Y-135751D01*
X-390610Y-192490D02*
X-387050Y-188930D01*
X-206140Y-135890D02*
X-132080D01*
X-387050Y-188930D02*
X-255659D01*
X-247650Y-177400D02*
X-206140Y-135890D01*
X-255659Y-188930D02*
X-247650Y-180921D01*
Y-177400D01*
X-248085Y-176965D02*
X-247650Y-177400D01*
X-335280Y-140970D02*
Y-113030D01*
X-370840Y-176530D02*
X-370405Y-176965D01*
X-248085D01*
X-370840Y-176530D02*
X-335280Y-140970D01*
D55*
X-83820Y-22860D02*
D03*
X-36830D02*
D03*
X-62230D02*
D03*
X-370840Y-248920D02*
D03*
Y-223520D02*
D03*
X-109220Y-22860D02*
D03*
X-370840Y-176530D02*
D03*
Y-201930D02*
D03*
D56*
X-251460Y-66040D02*
D03*
D57*
X-222650Y-127400D02*
D03*
X-272650D02*
D03*
D58*
X-27520Y-351310D02*
D03*
Y-331310D02*
D03*
X-369570Y-294640D02*
D03*
X-27520Y-311310D02*
D03*
X-369570Y-314640D02*
D03*
Y-334640D02*
D03*
D59*
X-233680Y-375920D02*
D03*
X-278130Y-374650D02*
D03*
X-320040Y-373380D02*
D03*
X-208280Y-375920D02*
D03*
X-252730Y-374650D02*
D03*
X-294640Y-373380D02*
D03*
D60*
X-27520Y-291310D02*
D03*
X-369570Y-354640D02*
D03*
D61*
X-226060Y-66040D02*
D03*
X-200660D02*
D03*
D62*
X-247650Y-177400D02*
D03*
D63*
Y-152400D02*
D03*
D64*
X-233680Y-21590D02*
D03*
D65*
X-165100Y-279400D02*
D03*
X-167619Y-361929D02*
D03*
X-265430Y-360680D02*
D03*
X-337820Y-369570D02*
D03*
X-219710Y-361950D02*
D03*
X-212090Y-312420D02*
D03*
X-223520Y-90170D02*
D03*
X-123190Y-92710D02*
D03*
X-163830Y-170180D02*
D03*
X-135890Y-189230D02*
D03*
X-179070Y-73660D02*
D03*
X-87630Y-274320D02*
D03*
X-121920Y-367030D02*
D03*
X-51931Y-339381D02*
D03*
X-125730Y-316230D02*
D03*
X-16510Y-179070D02*
D03*
X-36990Y-116840D02*
D03*
X-142240Y-115570D02*
D03*
X-330200Y-283210D02*
D03*
X-77470Y-152400D02*
D03*
X-189230Y-387350D02*
D03*
X-299720Y-228600D02*
D03*
X-186690Y-29210D02*
D03*
X-92710Y-90170D02*
D03*
X-131940Y-135751D02*
D03*
X-326390Y-203200D02*
D03*
X-30480Y-59690D02*
D03*
X-251460Y-87630D02*
D03*
X-240030Y-212090D02*
D03*
M02*
